<svg>
<link type="text/css" rel="stylesheet" id="dark-mode-custom-link"/>
<link type="text/css" rel="stylesheet" id="dark-mode-general-link"/>
<style lang="en" type="text/css" id="dark-mode-custom-style"/>
<style lang="en" type="text/css" id="dark-mode-native-style"/>
<metadata> Created by FontForge 20090622 at Fri Oct 7 21:24:57 2016 By deploy user Â© 2008 Microsoft Corporation. All Rights Reserved. </metadata>
<defs>
<font id="Candara" horiz-adv-x="1033">
<font-face font-family="Candara" font-weight="400" font-stretch="normal" units-per-em="2048" panose-1="2 14 5 2 3 3 3 2 2 4" ascent="1484" descent="-564" x-height="950" cap-height="1302" bbox="-959 -581 2284 1950" underline-thickness="20" underline-position="-123" unicode-range="U+000D-U+FB04"/>
<missing-glyph horiz-adv-x="932" d="M932 1308v-1308h-932v1308h932zM841 91v1126h-750v-1126h750zM409 426l-2 31q0 124 38.5 175t68.5 79q57 58 73.5 88t16.5 63q0 66 -41.5 111.5t-96.5 45.5q-58 0 -98.5 -41t-51.5 -131l-90 14q12 130 80.5 190t167.5 60q94 0 159 -66.5t65 -173.5q0 -57 -22.5 -103 t-91.5 -112q-68 -61 -79.5 -99.5t-11.5 -130.5h-84zM389 272q0 28 19 47t46 19q28 0 47 -19t19 -47q0 -27 -19 -45.5t-47 -18.5q-27 0 -46 18.5t-19 45.5z"/>
<glyph glyph-name="f_b.liga" unicode="fb" horiz-adv-x="1811" d="M1534 489q0 152 -79 256.5t-218 104.5q-180 0 -258 -111q0 -354 16 -575q82 -70 211 -70q164 0 246 116t82 279zM1712 514q0 -219 -125 -380t-342 -161q-184 0 -250 66h-8l-24 -39h-156q18 330 18 745q0 287 -19 544q-99 24 -182 24q-79 0 -125.5 -20t-71 -65t-31.5 -118 t-7 -180q99 0 277 10l-6 -149q-203 6 -273 6q0 -455 12 -797h-178q15 334 15 797q-62 0 -213 -6l6 147q139 -8 207 -8q0 135 16 231t61 157t124.5 89.5t186.5 28.5q83 0 171 -29l198 10q-10 -172 -10 -545h8q99 113 312 113q184 0 296.5 -138t112.5 -333z"/>
<glyph glyph-name="f_f_b.liga" unicode="ffb" horiz-adv-x="2383" d="M2284 514q0 -219 -124.5 -380t-342.5 -161q-184 0 -249 66h-9l-24 -39h-156q19 330 19 745q-1 287 -20 544q-84 24 -182 24q-79 0 -125.5 -20t-71 -65t-31.5 -118t-7 -180q99 0 277 10l-6 -149q-203 6 -273 6q0 -455 13 -797h-179q15 334 15 797h-421q0 -455 12 -797 h-178q15 334 15 797q-62 0 -213 -6l6 147q139 -8 207 -8q0 115 16 211t61 157t124.5 89.5t186.5 28.5q169 0 291 -64q39 35 94 55q80 29 186 29q84 0 172 -29l204 11q-16 -173 -16 -546h9q98 113 311 113q184 0 296.5 -138t112.5 -333zM2106 489q0 152 -78.5 256.5 t-218.5 104.5q-180 0 -258 -111q0 -354 17 -575q82 -70 211 -70q163 0 245 116t82 279zM844 1241q-108 52 -220 52q-79 0 -125.5 -20t-71 -65t-31.5 -118t-7 -160h419q0 135 16 231q7 44 20 80z"/>
<glyph glyph-name="uniFB00" unicode="ff" horiz-adv-x="1267" d="M844 1243q-91 52 -220 52q-79 0 -125.5 -20t-71 -65t-31.5 -118t-7 -160h419q0 135 16 231q7 44 20 80zM1238 1286q-62 17 -121 17q-92 0 -125 -73t-33 -300q101 0 279 10l-6 -149q-203 6 -273 6q0 -455 13 -797h-179q15 334 15 797h-421q0 -455 12 -797h-178 q15 334 15 797q-62 0 -213 -6l6 147q139 -6 207 -6q0 115 16 211t61 157t124.5 89.5t186.5 28.5q166 0 287 -63q74 81 206 81q72 0 150 -17z"/>
<glyph glyph-name="f_h.liga" unicode="fh" horiz-adv-x="1783" d="M1653 0h-183q23 262 23 565q0 162 -60.5 219.5t-168.5 57.5q-150 0 -281 -105q0 -544 8 -737h-184q18 330 18 745q0 287 -19 544q-99 24 -182 24q-79 0 -125.5 -20t-71 -65t-31.5 -118t-7 -180q99 0 277 10l-6 -149q-203 6 -273 6q0 -455 12 -797h-178q15 334 15 797 q-62 0 -213 -6l6 147q139 -8 207 -8q0 135 16 231t61 157t124.5 89.5t186.5 28.5q83 0 171 -29l190 10q-8 -305 -8 -565h6q150 131 330 131q160 0 250 -74.5t90 -261.5q0 -18 -2 -74.5t-2 -97.5q0 -143 4 -475z"/>
<glyph glyph-name="f_f_h.liga" unicode="ffh" horiz-adv-x="2355" d="M2225 0h-182q22 262 22 565q0 162 -60.5 219.5t-168.5 57.5q-150 0 -281 -105q0 -544 9 -737h-185q19 330 19 745q-1 287 -20 544q-99 24 -182 24q-79 0 -125.5 -20t-71 -65t-31.5 -118t-7 -180q99 0 277 10l-6 -149q-203 6 -273 6q0 -455 13 -797h-179q15 334 15 797 h-421q0 -455 12 -797h-178q15 334 15 797q-62 0 -213 -6l6 147q139 -8 207 -8q0 115 16 211t61 157t124.5 89.5t186.5 28.5q144 0 291 -64q39 35 94 55q80 29 187 29q83 0 171 -29l190 10q-8 -305 -8 -565h6q150 131 330 131q160 0 250 -74.5t90 -261.5q0 -18 -2 -74.5 t-2 -97.5q0 -143 4 -475zM844 1241q-108 52 -220 52q-79 0 -125.5 -20t-71 -65t-31.5 -118t-7 -160h419q0 135 16 231q7 44 20 80z"/>
<glyph glyph-name="uniFB01" unicode="fi" horiz-adv-x="1109" d="M1009 1364l-62 -150q-195 99 -325 99q-79 0 -125.5 -20t-71 -65t-31.5 -118t-7 -180q401 0 599 39q-12 -208 -12 -512q0 -240 14 -457h-181q14 201 14 457q0 100 -4.5 187.5t-12.5 165.5q-107 -7 -210.5 -10t-206.5 -3q0 -455 12 -797h-179q14 564 14 797q-61 0 -213 -6 l7 147q69 -4 120.5 -6t85.5 -2q0 135 16 231t61 157t124.5 89.5t186.5 28.5q215 0 387 -72z"/>
<glyph glyph-name="uniFB03" unicode="ffi" horiz-adv-x="1681" d="M1581 1364l-62 -150q-195 99 -325 99q-79 0 -125.5 -20t-71 -65t-31.5 -118t-7 -180q401 0 599 39q-13 -209 -13 -512q0 -240 15 -457h-183q15 201 15 457q0 215 -20 354q-159 -12 -413 -14q0 -455 12 -797h-178q15 334 15 797h-421q0 -455 12 -797h-178q15 334 15 797 q-62 0 -213 -6l6 147q138 -8 206 -8q0 115 16 211t61 157t124.5 89.5t186.5 28.5q169 0 291 -64q39 35 94 55q80 29 186 29q215 0 387 -72zM843 1241q-91 52 -220 52q-79 0 -125.5 -20t-71 -65t-31.5 -118t-7 -160h419q0 135 16 231q7 44 20 80z"/>
<glyph glyph-name="f_j.liga" unicode="fj" horiz-adv-x="1109" d="M979 -55q0 -324 -245 -394l-49 76q88 76 108 160q33 123 33 520q0 333 -25 504q-159 -12 -414 -12q0 -455 12 -797h-179q14 564 14 797q-61 0 -213 -6l7 147q69 -4 120.5 -6t85.5 -2q0 135 16 231t61 157t124.5 89.5t186.5 28.5q215 0 387 -72l-62 -150q-195 99 -325 99 q-79 0 -125.5 -20t-71 -65t-31.5 -118t-7 -180q401 0 599 39q-17 -309 -17 -623q0 -82 5 -218t5 -185z"/>
<glyph glyph-name="f_f_j.liga" unicode="ffj" horiz-adv-x="1681" d="M1581 1366l-62 -150q-195 99 -325 99q-79 0 -125.5 -20t-71 -65t-31.5 -118t-7 -180q401 0 599 39q-17 -309 -17 -623q0 -82 5 -218t5 -185q0 -324 -245 -394l-49 76q88 76 108 160q33 123 33 520q0 333 -25 504q-159 -12 -414 -12q0 -455 12 -799h-179q14 566 14 799 h-418q0 -457 12 -799h-179q14 333 14 797q-61 0 -213 -6l7 147q138 -8 206 -8v2q0 115 16 211t61 157t124.5 89.5t186.5 28.5q169 0 291 -64q39 35 94 55q80 29 186 29q215 0 387 -72zM843 1243q-91 52 -220 52q-79 0 -125.5 -20t-71 -65t-31.5 -118t-7 -160h419 q0 135 16 231q7 44 20 80z"/>
<glyph glyph-name="f_k.liga" unicode="fk" horiz-adv-x="1670" d="M1659 0h-236q0 35 -194 266q-199 240 -250 240h-6q0 -213 10 -506h-176q18 330 18 745q0 287 -19 544q-99 24 -182 24q-79 0 -125.5 -20t-71 -65t-31.5 -118t-7 -180q99 0 277 10l-6 -149q-203 6 -273 6q0 -455 12 -797h-178q15 334 15 797q-62 0 -213 -6l6 147 q139 -8 207 -8q0 135 16 231t61 157t124.5 89.5t186.5 28.5q83 0 171 -29l188 10q-10 -217 -10 -839h6q33 0 208 168.5t175 203.5h221q0 -32 -158 -166q-147 -125 -268 -206v-9q123 -94 318 -321q184 -215 184 -248z"/>
<glyph glyph-name="f_f_k.liga" unicode="ffk" horiz-adv-x="2242" d="M2231 0h-235q0 35 -195 266q-199 240 -250 240h-6q0 -213 10 -506h-176q19 330 19 745q-1 287 -20 544q-89 24 -182 24q-79 0 -125.5 -20t-71 -65t-31.5 -118t-7 -180q99 0 277 10l-6 -149q-203 6 -273 6q0 -455 13 -797h-179q15 334 15 797h-421q0 -455 12 -797h-178 q15 334 15 797q-62 0 -213 -6l6 147q139 -8 207 -8q0 115 16 211t61 157t124.5 89.5t186.5 28.5q169 0 291 -64q39 35 94 55q80 29 186 29q84 0 172 -29l188 11q-10 -218 -10 -840h6q33 0 208 168.5t175 203.5h221q0 -32 -157 -166q-148 -125 -269 -206v-9q123 -94 318 -321 q184 -215 184 -248zM844 1241q-91 52 -220 52q-79 0 -125.5 -20t-71 -65t-31.5 -118t-7 -160h419q0 135 16 231q7 44 20 80z"/>
<glyph glyph-name="uniFB02" unicode="fl" horiz-adv-x="1143" d="M999 1417q-20 -272 -20 -672q0 -409 20 -745h-192q18 330 18 745q0 287 -19 544q-99 24 -182 24q-79 0 -125.5 -20t-71 -65t-31.5 -118t-7 -180q99 0 277 10l-6 -149q-203 6 -273 6q0 -455 12 -797h-178q15 334 15 797q-62 0 -213 -6l6 147q139 -8 207 -8q0 135 16 231 t61 157t124.5 89.5t186.5 28.5q83 0 171 -29z"/>
<glyph glyph-name="uniFB04" unicode="ffl" horiz-adv-x="1716" d="M1572 0h-193q18 330 18 745q0 287 -19 544q-99 24 -182 24q-79 0 -125.5 -20t-71 -65t-31.5 -118t-7 -180q99 0 277 10l-6 -149q-203 6 -273 6q0 -455 12 -797h-178q15 334 15 797h-421q0 -455 12 -797h-178q15 334 15 797q-62 0 -213 -6l6 147q139 -8 207 -8 q0 115 16 211t61 157t124.5 89.5t186.5 28.5q169 0 291 -64q39 35 94 55q80 29 187 29q83 0 171 -29l204 11q-20 -273 -20 -673q0 -409 21 -745zM844 1241q-91 52 -220 52q-79 0 -125.5 -20t-71 -65t-31.5 -118t-7 -160h419q0 135 16 231q7 44 20 80z"/>
<glyph glyph-name=".notdef" horiz-adv-x="932" d="M932 1308v-1308h-932v1308h932zM841 91v1126h-750v-1126h750zM409 426l-2 31q0 124 38.5 175t68.5 79q57 58 73.5 88t16.5 63q0 66 -41.5 111.5t-96.5 45.5q-58 0 -98.5 -41t-51.5 -131l-90 14q12 130 80.5 190t167.5 60q94 0 159 -66.5t65 -173.5q0 -57 -22.5 -103 t-91.5 -112q-68 -61 -79.5 -99.5t-11.5 -130.5h-84zM389 272q0 28 19 47t46 19q28 0 47 -19t19 -47q0 -27 -19 -45.5t-47 -18.5q-27 0 -46 18.5t-19 45.5z"/>
<glyph glyph-name="glyph1" horiz-adv-x="444"/>
<glyph glyph-name="glyph1" horiz-adv-x="444"/>
<glyph glyph-name="uni000D" unicode=" " horiz-adv-x="444"/>
<glyph glyph-name="space" unicode=" " horiz-adv-x="444"/>
<glyph glyph-name="space" unicode=" " horiz-adv-x="444"/>
<glyph glyph-name="A" unicode="A" horiz-adv-x="1262" d="M1251 0h-211q0 67 -126 421h-577q-124 -349 -124 -421h-202q0 37 258 639.5t258 662.5h232q0 -59 246 -653t246 -649zM868 552q-235 587 -235 624h-11q0 -31 -243 -624h489z"/>
<glyph glyph-name="B" unicode="B" horiz-adv-x="1200" d="M1101 397q0 -194 -165 -300q-161 -103 -442 -103q-78 0 -306 6q14 310 14 684q0 352 -14 618h120q35 0 141 3t154 3q416 0 416 -287q0 -224 -197 -298v-10q279 -50 279 -316zM932 380q0 246 -436 246q-80 0 -141 -6q0 -267 11 -477q38 -9 134 -9q241 0 342 63 q90 57 90 183zM851 971q0 207 -279 207q-140 0 -227 -15q8 -72 8 -407q49 -2 108 -2q198 0 288 45q102 50 102 172z"/>
<glyph glyph-name="C" unicode="C" horiz-adv-x="1125" d="M1070 159l-13 -149q-123 -37 -268 -37q-344 0 -517 188.5t-173 460.5q0 285 193 491.5t519 206.5q90 0 190 -27l-28 -159q-115 36 -205 36q-242 0 -367 -150t-125 -367q0 -221 144 -379t398 -158q97 0 252 43z"/>
<glyph glyph-name="D" unicode="D" horiz-adv-x="1316" d="M1217 698q0 -284 -181.5 -498t-500.5 -214q-104 0 -347 14q15 310 15 684q0 352 -15 618h110q40 0 122 3t108 3q353 0 521 -173.5t168 -436.5zM1043 653q0 222 -141.5 371t-437.5 149q-42 0 -115 -10q8 -233 8 -479q0 -270 11 -548q80 -16 154 -16q264 0 392.5 156.5 t128.5 376.5z"/>
<glyph glyph-name="E" unicode="E" horiz-adv-x="1066" d="M1000 151l-6 -151h-806q14 310 14 684q0 352 -14 618h756l-8 -149q-275 12 -583 12q6 -155 6 -419q266 0 474 12v-149q-222 9 -474 9q0 -257 9 -482q332 0 632 15z"/>
<glyph glyph-name="F" unicode="F" horiz-adv-x="1002" d="M958 1302l-8 -149q-266 12 -603 12q12 -166 12 -458q235 0 457 8v-145q-214 8 -457 8q0 -391 11 -578h-182q14 310 14 684q0 352 -14 618h770z"/>
<glyph glyph-name="G" unicode="G" horiz-adv-x="1271" d="M1138 27q-164 -54 -331 -54q-351 0 -529.5 187.5t-178.5 463.5q0 279 194 487.5t538 208.5q124 0 235 -29l-25 -166q-165 40 -266 40q-242 0 -370.5 -146.5t-128.5 -363.5q0 -218 147.5 -382t416.5 -164q49 0 147 15q-17 104 -17 242q0 116 -14 227h182q-8 -132 -8 -279 q0 -63 8 -287z"/>
<glyph glyph-name="H" unicode="H" horiz-adv-x="1335" d="M1147 0h-190q10 346 10 620h-599q0 -222 10 -620h-190q14 365 14 684q0 334 -14 618h190q-12 -286 -12 -556h603q0 217 -12 556h190q-15 -278 -15 -618q0 -373 15 -684z"/>
<glyph glyph-name="I" unicode="I" horiz-adv-x="566" d="M378 0h-190q15 324 15 684q0 354 -15 618h190q-14 -273 -14 -618q0 -362 14 -684z"/>
<glyph glyph-name="J" unicode="J" horiz-adv-x="851" d="M685 1302q-7 -152 -10.5 -337t-3.5 -407q0 -161 -27 -266t-84.5 -177t-147.5 -107t-216 -35q-97 0 -174 21l15 146q71 -33 148 -33q86 0 150.5 24.5t103 76.5t55 128t16.5 199q0 454 -15 767h190z"/>
<glyph glyph-name="K" unicode="K" horiz-adv-x="1212" d="M1190 0h-219q0 11 -114 174q-132 189 -241 312q-148 167 -219 167h-31q0 -234 10 -653h-188q15 310 15 684q0 352 -15 618h188q-10 -266 -10 -540h23q55 0 274.5 255t219.5 285h208q0 -30 -213.5 -247.5t-317.5 -292.5v-10q115 -44 383 -397q247 -325 247 -355z"/>
<glyph glyph-name="L" unicode="L" horiz-adv-x="1003" d="M981 147l-6 -147h-787q12 247 12 684q0 376 -12 618h186q-12 -202 -12 -618q0 -342 -11 -548q300 0 630 11z"/>
<glyph glyph-name="M" unicode="M" horiz-adv-x="1748" d="M1582 0h-188q0 223 -31 645t-33 506h-10q-100 -325 -253.5 -705.5t-153.5 -445.5h-135q0 70 -143 453.5t-181 513.5t-52 184h-10q-3 -137 -39.5 -553t-36.5 -598h-172q0 10 68 550.5t68 751.5h263q0 -110 160 -550t160 -533h10q0 93 180 534.5t180 548.5h257 q0 -211 46 -748t46 -554z"/>
<glyph glyph-name="N" unicode="N" horiz-adv-x="1380" d="M1192 0h-140q0 17 -328 479q-343 485 -391 612h-10q18 -241 18 -413q0 -336 15 -678h-168q17 325 17 684q0 353 -17 618h192q0 -28 302 -456q316 -450 360 -586h10q-17 244 -17 414q0 370 -14 628h171q-17 -265 -17 -618q0 -359 17 -684z"/>
<glyph glyph-name="O" unicode="O" horiz-adv-x="1421" d="M1322 671q0 -323 -189 -516.5t-437 -193.5q-238 0 -417.5 177.5t-179.5 479.5q0 327 189 518.5t437 191.5q238 0 417.5 -177.5t179.5 -479.5zM1144 648q0 258 -135.5 399.5t-312.5 141.5q-164 0 -292 -149t-128 -398q0 -259 136.5 -400.5t312.5 -141.5q164 0 291.5 151 t127.5 397z"/>
<glyph glyph-name="P" unicode="P" horiz-adv-x="1132" d="M1066 979q0 -228 -173 -341t-465 -113q-37 0 -64 2q0 -218 16 -527h-192q15 284 15 684q0 344 -15 618h143q23 0 131.5 3t184.5 3q192 0 305.5 -87.5t113.5 -241.5zM899 921q0 257 -351 257q-86 0 -193 -15q7 -163 7 -508q35 -2 86 -2q451 0 451 268z"/>
<glyph glyph-name="Q" unicode="Q" horiz-adv-x="1421" d="M1357 -434l-188 -8q-63 275 -146 342q-76 61 -327 61q-233 0 -404 164q-193 186 -193 493q0 332 203 533q180 177 423 177q233 0 404 -164q193 -185 193 -493q0 -228 -100 -399q-90 -153 -243 -237v-10q169 -16 243 -104q78 -93 135 -355zM1144 648q0 260 -147 411 q-127 130 -301 130q-161 0 -284 -141q-136 -157 -136 -406q0 -259 148 -411q128 -131 301 -131q161 0 283 142q136 157 136 406z"/>
<glyph glyph-name="R" unicode="R" horiz-adv-x="1240" d="M1174 0h-193q-96 287 -140 380q-56 117 -127 151q-56 27 -201 27q-85 0 -151 -2q0 -323 12 -556h-186q15 310 15 684q0 352 -15 618h141q45 0 114 3t158 3q438 0 438 -302q0 -251 -246 -353v-10q110 -33 178 -153q57 -100 203 -490zM868 938q0 238 -322 238 q-115 0 -193 -13q7 -174 7 -473q60 -2 115 -2q393 0 393 250z"/>
<glyph glyph-name="S" unicode="S" horiz-adv-x="1047" d="M948 337q0 -370 -515 -370q-188 0 -334 43l35 157q168 -58 319 -58q340 0 340 192q0 97 -88 166q-59 46 -232 123q-182 81 -255 149q-101 94 -101 236q0 148 103 241q115 104 325 104q238 0 326 -31l-24 -159q-152 48 -323 48q-257 0 -257 -172q0 -83 74 -139 q48 -35 212 -106q187 -81 270 -154q125 -110 125 -270z"/>
<glyph glyph-name="T" unicode="T" horiz-adv-x="1043" d="M1021 1302l-5 -141q-198 10 -409 10q-2 -192 -2 -487q0 -326 10 -684h-183q12 341 12 684q0 291 -6 487q-148 0 -416 -12l5 143h994z"/>
<glyph glyph-name="U" unicode="U" horiz-adv-x="1398" d="M1232 1302q-4 -189 -6 -353t-2 -306q0 -670 -529 -670q-138 0 -236.5 39.5t-162 121t-93 205.5t-29.5 293q0 148 -2 314.5t-6 355.5h190q-12 -381 -12 -597q0 -174 17 -283.5t60.5 -182.5t109.5 -103.5t168 -30.5q107 0 174 30.5t109 101t60 181t18 289.5 q0 106 -3.5 253.5t-10.5 341.5h186z"/>
<glyph glyph-name="V" unicode="V" horiz-adv-x="1134" d="M1123 1302q0 -83 -252.5 -650t-252.5 -652h-130q0 77 -238.5 647t-238.5 655h190q0 -78 182 -555.5t182 -546.5h10q0 78 184 544.5t184 557.5h180z"/>
<glyph glyph-name="W" unicode="W" horiz-adv-x="1815" d="M1804 1302q0 -73 -216 -654t-216 -648h-130q0 88 -157 510q-171 457 -194 589h-13q-20 -140 -172 -600q-142 -431 -142 -499h-130q0 102 -211.5 683.5t-211.5 618.5h190q0 -41 151.5 -518t151.5 -584h11q0 113 154 580.5t154 521.5h175q0 -65 160 -554.5t160 -547.5h11 q0 98 145.5 554.5t145.5 547.5h184z"/>
<glyph glyph-name="X" unicode="X" horiz-adv-x="1143" d="M1132 0h-217q0 39 -150 288q-145 241 -215 326h-11q-60 -81 -186 -318q-132 -249 -132 -296h-210q0 30 211 345q209 312 260 360v10q-54 61 -222 307q-173 254 -173 280h215q0 -30 120 -232q118 -198 169 -258h10q51 62 162 261t111 229h211q0 -28 -183 -270 q-177 -232 -241 -297v-10q76 -85 270 -380q201 -305 201 -345z"/>
<glyph glyph-name="Y" unicode="Y" horiz-adv-x="1127" d="M1105 1302q0 -37 -123 -216q-174 -253 -227 -344q-123 -209 -123 -318q0 -206 14 -424h-192q13 207 13 426q0 120 -115 333q-65 119 -215 344q-115 174 -115 199h205q0 -26 172.5 -318.5t172.5 -386.5h10q0 95 164.5 380t164.5 325h194z"/>
<glyph glyph-name="Z" unicode="Z" horiz-adv-x="1062" d="M963 167l-6 -167h-858l9 120q126 176 367 570q259 425 259 473v11q-219 0 -621 -25l5 153h816l-8 -124q-114 -161 -351 -565q-247 -420 -247 -462v-11q207 0 635 27z"/>
<glyph glyph-name="Agrave" unicode="À" horiz-adv-x="1262" d="M1251 0h-211q0 67 -126 421h-577q-124 -349 -124 -421h-202q0 37 258 639.5t258 662.5h232q0 -59 246 -653t246 -649zM868 552q-235 587 -235 624h-11q0 -31 -243 -624h489zM737 1416h-120q-10 16 -143 139t-133 135h216q0 -11 90 -134.5t90 -139.5z"/>
<glyph glyph-name="Aacute" unicode="Á" horiz-adv-x="1262" d="M1251 0h-211q0 67 -126 421h-577q-124 -349 -124 -421h-202q0 37 258 639.5t258 662.5h232q0 -59 246 -653t246 -649zM868 552q-235 587 -235 624h-11q0 -31 -243 -624h489zM947 1690q0 -12 -133 -135t-143 -139h-120q0 16 90 139.5t90 134.5h216z"/>
<glyph glyph-name="Acircumflex" unicode="Â" horiz-adv-x="1262" d="M1251 0h-211q0 67 -126 421h-577q-124 -349 -124 -421h-202q0 37 258 639.5t258 662.5h232q0 -59 246 -653t246 -649zM868 552q-235 587 -235 624h-11q0 -31 -243 -624h489zM931 1416h-114q-10 13 -177 158q-167 -145 -177 -158h-114q0 13 94.5 135.5t99.5 138.5h194 q5 -16 99.5 -138.5t94.5 -135.5z"/>
<glyph glyph-name="Atilde" unicode="Ã" horiz-adv-x="1262" d="M1251 0h-211q0 67 -126 421h-577q-124 -349 -124 -421h-202q0 37 258 639.5t258 662.5h232q0 -59 246 -653t246 -649zM868 552q-235 587 -235 624h-11q0 -31 -243 -624h489zM1037 1640q-110 -185 -250 -185q-51 0 -128.5 24t-125.5 24q-88 0 -172 -84l-62 50 q110 185 250 185q51 0 128.5 -24t125.5 -24q88 0 172 84z"/>
<glyph glyph-name="Adieresis" unicode="Ä" horiz-adv-x="1262" d="M1251 0h-211q0 67 -126 421h-577q-124 -349 -124 -421h-202q0 37 258 639.5t258 662.5h232q0 -59 246 -653t246 -649zM868 552q-235 587 -235 624h-11q0 -31 -243 -624h489zM565 1559q0 -46 -30.5 -80.5t-84.5 -34.5q-45 0 -70 30t-25 72q0 44 30.5 77.5t85.5 33.5 q45 0 69.5 -28.5t24.5 -69.5zM943 1559q0 -46 -30.5 -80.5t-84.5 -34.5q-45 0 -70 30t-25 72q0 44 30.5 77.5t85.5 33.5q45 0 69.5 -28.5t24.5 -69.5z"/>
<glyph glyph-name="Amacron" unicode="Ā" horiz-adv-x="1262" d="M1251 0h-211q0 67 -126 421h-577q-124 -349 -124 -421h-202q0 37 258 639.5t258 662.5h232q0 -59 246 -653t246 -649zM868 552q-235 587 -235 624h-11q0 -31 -243 -624h489zM893 1600l-12 -124h-474l12 124h474z"/>
<glyph glyph-name="Abreve" unicode="Ă" horiz-adv-x="1262" d="M1251 0h-211q0 67 -126 421h-577q-124 -349 -124 -421h-202q0 37 258 639.5t258 662.5h232q0 -59 246 -653t246 -649zM868 552q-235 587 -235 624h-11q0 -31 -243 -624h489zM946 1640q-95 -218 -306 -218q-221 0 -308 218l100 50q72 -144 206 -144q124 0 208 144z"/>
<glyph glyph-name="Aring" unicode="Å" horiz-adv-x="1262" d="M1251 0h-211q0 67 -126 421h-577q-124 -349 -124 -421h-202q0 37 258 639.5t258 662.5h232q0 -59 246 -653t246 -649zM868 552q-235 587 -235 624h-11q0 -31 -243 -624h489zM865 1584q0 -104 -69 -165t-159 -61q-82 0 -139 51.5t-57 147.5q0 103 69 163t159 60 q82 0 139 -51t57 -145zM771 1576q0 57 -32 87.5t-78 30.5q-50 0 -88 -35.5t-38 -96.5q0 -57 32 -87.5t78 -30.5q50 0 88 35.5t38 96.5z"/>
<glyph glyph-name="Aringacute" unicode="Ǻ" horiz-adv-x="1262" d="M980 1900q0 -12 -118 -90.5t-128 -93.5h-120q0 15 70 94t70 90h226zM1251 0h-211q0 67 -126 421h-577q-124 -349 -124 -421h-202q0 37 258 639.5t258 662.5h232q0 -59 246 -653t246 -649zM868 552q-235 587 -235 624h-11q0 -31 -243 -624h489zM823 1523q0 -83 -55 -132 t-127 -49q-66 0 -111.5 41t-45.5 118q0 83 55.5 131t127.5 48q65 0 110.5 -41t45.5 -116zM743 1516q0 43 -24 66.5t-59 23.5q-38 0 -67 -27t-29 -74q0 -42 24.5 -65.5t58.5 -23.5q38 0 67 27t29 73z"/>
<glyph glyph-name="Aogonek" unicode="Ą" horiz-adv-x="1262" d="M1251 0q-247 -82 -247 -234q0 -116 102 -116q40 0 86 16l28 -137q-53 -15 -136 -15q-98 0 -158 46.5t-60 169.5q0 150 174 270q0 67 -126 421h-577q-124 -349 -124 -421h-202q0 37 258 639.5t258 662.5h232q0 -59 246 -653t246 -649zM868 552q-235 587 -235 624h-11 q0 -31 -243 -624h489z"/>
<glyph glyph-name="AE" unicode="Æ" horiz-adv-x="1668" d="M1602 151l-6 -151h-823q13 223 13 421h-461q-118 -349 -118 -421h-196q0 36 261.5 636t261.5 666h1012l-6 -149q-304 12 -610 12q9 -154 9 -419q236 0 505 6l-5 -143q-249 9 -500 9q0 -257 8 -482q340 0 655 15zM786 552q0 357 -13 613h-157q0 -38 -248 -613h418z"/>
<glyph glyph-name="AEacute" unicode="Ǽ" horiz-adv-x="1668" d="M1602 151l-6 -151h-823q13 223 13 421h-461q-118 -349 -118 -421h-196q0 36 261.5 636t261.5 666h1012l-6 -149q-304 12 -610 12q9 -154 9 -419q236 0 505 6l-5 -143q-249 9 -500 9q0 -257 8 -482q340 0 655 15zM786 552q0 357 -13 613h-157q0 -38 -248 -613h418z M1222 1690q0 -12 -133 -135t-143 -139h-120q0 16 90 139.5t90 134.5h216z"/>
<glyph glyph-name="Cacute" unicode="Ć" horiz-adv-x="1125" d="M1070 159l-13 -149q-123 -37 -268 -37q-344 0 -517 188.5t-173 460.5q0 285 193 491.5t519 206.5q90 0 190 -27l-28 -159q-115 36 -205 36q-242 0 -367 -150t-125 -367q0 -221 144 -379t398 -158q97 0 252 43zM1013 1690q0 -12 -133 -135t-143 -139h-120q0 16 90 139.5 t90 134.5h216z"/>
<glyph glyph-name="Ccircumflex" unicode="Ĉ" horiz-adv-x="1125" d="M1070 159l-13 -149q-123 -37 -268 -37q-344 0 -517 188.5t-173 460.5q0 285 193 491.5t519 206.5q90 0 190 -27l-28 -159q-115 36 -205 36q-242 0 -367 -150t-125 -367q0 -221 144 -379t398 -158q97 0 252 43zM1023 1416h-114q-10 13 -177 158q-167 -145 -177 -158h-114 q0 13 94.5 135.5t99.5 138.5h194q5 -16 99.5 -138.5t94.5 -135.5z"/>
<glyph glyph-name="Ccaron" unicode="Č" horiz-adv-x="1125" d="M1070 159l-13 -149q-123 -37 -268 -37q-344 0 -517 188.5t-173 460.5q0 285 193 491.5t519 206.5q90 0 190 -27l-28 -159q-115 36 -205 36q-242 0 -367 -150t-125 -367q0 -221 144 -379t398 -158q97 0 252 43zM1073 1690q0 -13 -94.5 -135.5t-99.5 -138.5h-194 q-5 16 -99.5 138.5t-94.5 135.5h114q10 -13 177 -158q167 145 177 158h114z"/>
<glyph glyph-name="Cdotaccent" unicode="Ċ" horiz-adv-x="1125" d="M1070 159l-13 -149q-123 -37 -268 -37q-344 0 -517 188.5t-173 460.5q0 285 193 491.5t519 206.5q90 0 190 -27l-28 -159q-115 36 -205 36q-242 0 -367 -150t-125 -367q0 -221 144 -379t398 -158q97 0 252 43zM864 1565q0 -51 -33 -88.5t-93 -37.5q-51 0 -79.5 32.5 t-28.5 78.5q0 50 34 87t94 37q49 0 77.5 -32.5t28.5 -76.5z"/>
<glyph glyph-name="Ccedilla" unicode="Ç" horiz-adv-x="1125" d="M1070 159l-13 -149q-172 -37 -268 -37q-84 0 -156 12l-12 -85q196 -47 196 -192q0 -222 -240 -222l-14 92q47 0 76.5 32t29.5 76q0 113 -152 142l35 173q-177 47 -292 173q-161 176 -161 448q0 280 181 478q200 220 531 220q90 0 190 -27l-28 -159q-115 36 -205 36 q-244 0 -377 -162q-115 -141 -115 -355q0 -218 134 -368q151 -169 408 -169q97 0 252 43z"/>
<glyph glyph-name="Dcaron" unicode="Ď" horiz-adv-x="1316" d="M1217 698q0 -284 -181.5 -498t-500.5 -214q-104 0 -347 14q15 310 15 684q0 352 -15 618h110q40 0 122 3t108 3q353 0 521 -173.5t168 -436.5zM1043 653q0 222 -141.5 371t-437.5 149q-42 0 -115 -10q8 -233 8 -479q0 -270 11 -548q80 -16 154 -16q264 0 392.5 156.5 t128.5 376.5zM942 1690q0 -13 -94.5 -135.5t-99.5 -138.5h-194q-5 16 -99.5 138.5t-94.5 135.5h114q10 -13 177 -158q167 145 177 158h114z"/>
<glyph glyph-name="Dcroat" unicode="Đ" horiz-adv-x="1316" d="M1217 698q0 -284 -172 -487q-191 -225 -510 -225q-104 0 -347 14q15 249 15 585q-33 0 -160 -17l9 167q120 -4 151 -4q0 347 -15 571h110q41 0 126 3t124 3q336 0 502.5 -175t166.5 -435zM1043 653q0 218 -138 369t-417 151q-62 0 -139 -10q10 -160 8 -432q56 0 391 33 l-6 -161q-346 0 -385 -8q0 -276 11 -459q80 -16 157 -16q261 0 399 167q119 143 119 366z"/>
<glyph glyph-name="Egrave" unicode="È" horiz-adv-x="1066" d="M1000 151l-6 -151h-806q14 310 14 684q0 352 -14 618h756l-8 -149q-275 12 -583 12q6 -155 6 -419q266 0 474 12v-149q-222 9 -474 9q0 -257 9 -482q332 0 632 15zM680 1416h-120q-10 16 -143 139t-133 135h216q0 -11 90 -134.5t90 -139.5z"/>
<glyph glyph-name="Eacute" unicode="É" horiz-adv-x="1066" d="M1000 151l-6 -151h-806q14 310 14 684q0 352 -14 618h756l-8 -149q-275 12 -583 12q6 -155 6 -419q266 0 474 12v-149q-222 9 -474 9q0 -257 9 -482q332 0 632 15zM898 1690q0 -12 -133 -135t-143 -139h-120q0 16 90 139.5t90 134.5h216z"/>
<glyph glyph-name="Ecircumflex" unicode="Ê" horiz-adv-x="1066" d="M1000 151l-6 -151h-806q14 310 14 684q0 352 -14 618h756l-8 -149q-275 12 -583 12q6 -155 6 -419q266 0 474 12v-149q-222 9 -474 9q0 -257 9 -482q332 0 632 15zM885 1416h-114q-10 13 -177 158q-167 -145 -177 -158h-114q0 13 94.5 135.5t99.5 138.5h194 q5 -16 99.5 -138.5t94.5 -135.5z"/>
<glyph glyph-name="Ecaron" unicode="Ě" horiz-adv-x="1066" d="M1000 151l-6 -151h-806q14 310 14 684q0 352 -14 618h756l-8 -149q-275 12 -583 12q6 -155 6 -419q266 0 474 12v-149q-222 9 -474 9q0 -257 9 -482q332 0 632 15zM888 1690q0 -13 -94.5 -135.5t-99.5 -138.5h-194q-5 16 -99.5 138.5t-94.5 135.5h114q10 -13 177 -158 q167 145 177 158h114z"/>
<glyph glyph-name="Edieresis" unicode="Ë" horiz-adv-x="1066" d="M1000 151l-6 -151h-806q14 310 14 684q0 352 -14 618h756l-8 -149q-275 12 -583 12q6 -155 6 -419q266 0 474 12v-149q-222 9 -474 9q0 -257 9 -482q332 0 632 15zM483 1559q0 -46 -30.5 -80.5t-84.5 -34.5q-45 0 -70 30t-25 72q0 44 30.5 77.5t85.5 33.5 q45 0 69.5 -28.5t24.5 -69.5zM861 1559q0 -46 -30.5 -80.5t-84.5 -34.5q-45 0 -70 30t-25 72q0 44 30.5 77.5t85.5 33.5q45 0 69.5 -28.5t24.5 -69.5z"/>
<glyph glyph-name="Emacron" unicode="Ē" horiz-adv-x="1066" d="M1000 151l-6 -151h-806q14 310 14 684q0 352 -14 618h756l-8 -149q-275 12 -583 12q6 -155 6 -419q266 0 474 12v-149q-222 9 -474 9q0 -257 9 -482q332 0 632 15zM827 1600l-12 -124h-474l12 124h474z"/>
<glyph glyph-name="Ebreve" unicode="Ĕ" horiz-adv-x="1066" d="M1000 151l-6 -151h-806q14 310 14 684q0 352 -14 618h756l-8 -149q-275 12 -583 12q6 -155 6 -419q266 0 474 12v-149q-222 9 -474 9q0 -257 9 -482q332 0 632 15zM899 1640q-95 -218 -306 -218q-221 0 -308 218l100 50q72 -144 206 -144q124 0 208 144z"/>
<glyph glyph-name="Edotaccent" unicode="Ė" horiz-adv-x="1066" d="M1000 151l-6 -151h-806q14 310 14 684q0 352 -14 618h756l-8 -149q-275 12 -583 12q6 -155 6 -419q266 0 474 12v-149q-222 9 -474 9q0 -257 9 -482q332 0 632 15zM706 1565q0 -51 -33 -88.5t-93 -37.5q-51 0 -79.5 32.5t-28.5 78.5q0 50 34 87t94 37q49 0 77.5 -32.5 t28.5 -76.5z"/>
<glyph glyph-name="Eogonek" unicode="Ę" horiz-adv-x="1066" d="M1000 151l-6 -151q-210 -115 -210 -239q0 -111 102 -111q40 0 86 16l28 -137q-53 -15 -136 -15q-98 0 -158 46.5t-60 144.5q0 169 178 285v10h-636q14 310 14 684q0 352 -14 618h754l-6 -149q-275 12 -583 12q6 -155 6 -419q266 0 479 12l-5 -149q-222 9 -474 9 q0 -257 9 -482q332 0 632 15z"/>
<glyph glyph-name="Gcircumflex" unicode="Ĝ" horiz-adv-x="1271" d="M1138 27q-164 -54 -331 -54q-351 0 -529.5 187.5t-178.5 463.5q0 279 194 487.5t538 208.5q124 0 235 -29l-25 -166q-165 40 -266 40q-242 0 -370.5 -146.5t-128.5 -363.5q0 -218 147.5 -382t416.5 -164q49 0 147 15q-17 104 -17 242q0 116 -14 227h182q-8 -132 -8 -279 q0 -63 8 -287zM1048 1416h-114q-10 13 -177 158q-167 -145 -177 -158h-114q0 13 94.5 135.5t99.5 138.5h194q5 -16 99.5 -138.5t94.5 -135.5z"/>
<glyph glyph-name="Gbreve" unicode="Ğ" horiz-adv-x="1271" d="M1138 27q-164 -54 -331 -54q-351 0 -529.5 187.5t-178.5 463.5q0 279 194 487.5t538 208.5q124 0 235 -29l-25 -166q-165 40 -266 40q-242 0 -370.5 -146.5t-128.5 -363.5q0 -218 147.5 -382t416.5 -164q49 0 147 15q-17 104 -17 242q0 116 -14 227h182q-8 -132 -8 -279 q0 -63 8 -287zM1057 1640q-95 -218 -306 -218q-221 0 -308 218l100 50q72 -144 206 -144q124 0 208 144z"/>
<glyph glyph-name="Gdotaccent" unicode="Ġ" horiz-adv-x="1271" d="M1138 27q-164 -54 -331 -54q-351 0 -529.5 187.5t-178.5 463.5q0 279 194 487.5t538 208.5q124 0 235 -29l-25 -166q-165 40 -266 40q-242 0 -370.5 -146.5t-128.5 -363.5q0 -218 147.5 -382t416.5 -164q49 0 147 15q-17 104 -17 242q0 116 -14 227h182q-8 -132 -8 -279 q0 -63 8 -287zM871 1565q0 -51 -33 -88.5t-93 -37.5q-51 0 -79.5 32.5t-28.5 78.5q0 50 34 87t94 37q49 0 77.5 -32.5t28.5 -76.5z"/>
<glyph glyph-name="Gcommaaccent" unicode="Ģ" horiz-adv-x="1271" d="M1138 27q-164 -54 -331 -54q-351 0 -529.5 187.5t-178.5 463.5q0 279 194 487.5t538 208.5q124 0 235 -29l-25 -166q-165 40 -266 40q-242 0 -370.5 -146.5t-128.5 -363.5q0 -218 147.5 -382t416.5 -164q49 0 147 15q-17 104 -17 242q0 116 -14 227h182q-8 -132 -8 -279 q0 -63 8 -287zM831 -248q0 -77 -53 -159.5t-111 -118.5l-39 40q74 93 74 161q-101 27 -101 98q0 49 27.5 84.5t82.5 35.5q59 0 89.5 -39t30.5 -102z"/>
<glyph glyph-name="Hcircumflex" unicode="Ĥ" horiz-adv-x="1335" d="M1147 0h-190q10 346 10 620h-599q0 -222 10 -620h-190q14 365 14 684q0 334 -14 618h190q-12 -286 -12 -556h603q0 217 -12 556h190q-15 -278 -15 -618q0 -373 15 -684zM964 1416h-114q-10 13 -177 158q-167 -145 -177 -158h-114q0 13 94.5 135.5t99.5 138.5h194 q5 -16 99.5 -138.5t94.5 -135.5z"/>
<glyph glyph-name="Hbar" unicode="Ħ" horiz-adv-x="1335" d="M1257 1044l-10 -108h-113q-2 -122 -2 -252q0 -373 15 -684h-190q10 346 10 620h-599q0 -222 10 -620h-190q14 365 14 684q0 130 -2 252h-122l10 108h109q-3 134 -9 258h190q-6 -131 -9 -258h596q-3 118 -8 258h190q-7 -123 -11 -258h121zM969 746q0 85 -2 190h-600 q-1 -96 -1 -190h603z"/>
<glyph glyph-name="Igrave" unicode="Ì" horiz-adv-x="566" d="M378 0h-190q15 324 15 684q0 354 -15 618h190q-14 -273 -14 -618q0 -362 14 -684zM375 1416h-120q-10 16 -143 139t-133 135h216q0 -11 90 -134.5t90 -139.5z"/>
<glyph glyph-name="Iacute" unicode="Í" horiz-adv-x="566" d="M378 0h-190q15 324 15 684q0 354 -15 618h190q-14 -273 -14 -618q0 -362 14 -684zM591 1690q0 -12 -133 -135t-143 -139h-120q0 16 90 139.5t90 134.5h216z"/>
<glyph glyph-name="Icircumflex" unicode="Î" horiz-adv-x="566" d="M378 0h-190q15 324 15 684q0 354 -15 618h190q-14 -273 -14 -618q0 -362 14 -684zM577 1416h-114q-10 13 -177 158q-167 -145 -177 -158h-114q0 13 94.5 135.5t99.5 138.5h194q5 -16 99.5 -138.5t94.5 -135.5z"/>
<glyph glyph-name="Itilde" unicode="Ĩ" horiz-adv-x="566" d="M378 0h-190q15 324 15 684q0 354 -15 618h190q-14 -273 -14 -618q0 -362 14 -684zM650 1640q-110 -185 -250 -185q-51 0 -128.5 24t-125.5 24q-88 0 -172 -84l-62 50q110 185 250 185q51 0 128.5 -24t125.5 -24q88 0 172 84z"/>
<glyph glyph-name="Idieresis" unicode="Ï" horiz-adv-x="566" d="M378 0h-190q15 324 15 684q0 354 -15 618h190q-14 -273 -14 -618q0 -362 14 -684zM202 1559q0 -46 -30.5 -80.5t-84.5 -34.5q-45 0 -70 30t-25 72q0 44 30.5 77.5t85.5 33.5q45 0 69.5 -28.5t24.5 -69.5zM580 1559q0 -46 -30.5 -80.5t-84.5 -34.5q-45 0 -70 30t-25 72 q0 44 30.5 77.5t85.5 33.5q45 0 69.5 -28.5t24.5 -69.5z"/>
<glyph glyph-name="Imacron" unicode="Ī" horiz-adv-x="566" d="M378 0h-190q15 324 15 684q0 354 -15 618h190q-14 -273 -14 -618q0 -362 14 -684zM529 1600l-12 -124h-474l12 124h474z"/>
<glyph glyph-name="Ibreve" unicode="Ĭ" horiz-adv-x="566" d="M378 0h-190q15 324 15 684q0 354 -15 618h190q-14 -273 -14 -618q0 -362 14 -684zM591 1640q-95 -218 -306 -218q-221 0 -308 218l100 50q72 -144 206 -144q124 0 208 144z"/>
<glyph glyph-name="Idotaccent" unicode="İ" horiz-adv-x="566" d="M378 0h-190q15 324 15 684q0 354 -15 618h190q-14 -273 -14 -618q0 -362 14 -684zM413 1565q0 -51 -33 -88.5t-93 -37.5q-51 0 -79.5 32.5t-28.5 78.5q0 50 34 87t94 37q49 0 77.5 -32.5t28.5 -76.5z"/>
<glyph glyph-name="Iogonek" unicode="Į" horiz-adv-x="566" d="M378 0q-222 -76 -222 -204q0 -146 117 -146q40 0 86 16l28 -137q-53 -15 -126 -15q-107 0 -172.5 54.5t-65.5 185.5q0 135 165 246q15 324 15 684q0 354 -15 618h190q-14 -273 -14 -618q0 -362 14 -684z"/>
<glyph glyph-name="IJ" unicode="Ĳ" horiz-adv-x="1427" d="M378 0h-190q15 324 15 684q0 354 -15 618h190q-14 -273 -14 -618q0 -362 14 -684zM1261 1302q-7 -152 -10.5 -337t-3.5 -407q0 -161 -27 -266t-84.5 -177t-147.5 -107t-216 -35q-97 0 -174 21l15 146q71 -33 148 -33q86 0 150.5 24.5t103 76.5t55 128t16.5 199 q0 454 -15 767h190z"/>
<glyph glyph-name="Jcircumflex" unicode="Ĵ" horiz-adv-x="851" d="M685 1302q-7 -152 -10.5 -337t-3.5 -407q0 -161 -27 -266t-84.5 -177t-147.5 -107t-216 -35q-97 0 -174 21l15 146q71 -33 148 -33q86 0 150.5 24.5t103 76.5t55 128t16.5 199q0 454 -15 767h190zM873 1416h-114q-10 13 -177 158q-167 -145 -177 -158h-114 q0 13 94.5 135.5t99.5 138.5h194q5 -16 99.5 -138.5t94.5 -135.5z"/>
<glyph glyph-name="Kcommaaccent" unicode="Ķ" horiz-adv-x="1212" d="M1190 0h-219q0 11 -114 174q-132 189 -241 312q-148 167 -219 167h-31q0 -234 10 -653h-188q15 310 15 684q0 352 -15 618h188q-10 -266 -10 -540h23q55 0 274.5 255t219.5 285h208q0 -30 -213.5 -247.5t-317.5 -292.5v-10q115 -44 383 -397q247 -325 247 -355zM777 -248 q0 -77 -53 -159.5t-111 -118.5l-39 40q74 93 74 161q-101 27 -101 98q0 49 27.5 84.5t82.5 35.5q59 0 89.5 -39t30.5 -102z"/>
<glyph glyph-name="Lacute" unicode="Ĺ" horiz-adv-x="1003" d="M981 147l-6 -147h-787q12 247 12 684q0 376 -12 618h186q-12 -202 -12 -618q0 -342 -11 -548q300 0 630 11zM593 1690q0 -12 -133 -135t-143 -139h-120q0 16 90 139.5t90 134.5h216z"/>
<glyph glyph-name="Lcaron" unicode="Ľ" horiz-adv-x="1003" d="M981 147l-6 -147h-787q12 247 12 684q0 376 -12 618h186q-12 -202 -12 -618q0 -342 -11 -548q300 0 630 11zM1008 1174q0 -85 -58.5 -175.5t-122.5 -130.5l-43 44q82 102 82 177q-112 30 -112 108q0 54 30.5 93t90.5 39q65 0 99 -43t34 -112z"/>
<glyph glyph-name="Lcommaaccent" unicode="Ļ" horiz-adv-x="1003" d="M981 147l-6 -147h-787q12 247 12 684q0 376 -12 618h186q-12 -202 -12 -618q0 -342 -11 -548q300 0 630 11zM692 -248q0 -77 -53 -159.5t-111 -118.5l-39 40q74 93 74 161q-101 27 -101 98q0 49 27.5 84.5t82.5 35.5q59 0 89.5 -39t30.5 -102z"/>
<glyph glyph-name="Lslash" unicode="Ł" horiz-adv-x="1003" d="M981 147l-6 -147h-787q9 195 11 519l-151 -106l-72 108l224 142q0 397 -12 639h186q-11 -178 -12 -535l396 278l93 -116l-489 -305q-1 -304 -11 -488q300 0 630 11z"/>
<glyph glyph-name="Ldot" unicode="Ŀ" horiz-adv-x="1003" d="M981 147l-6 -147h-787q12 247 12 684q0 376 -12 618h186q-12 -202 -12 -618q0 -342 -11 -548q300 0 630 11zM969 711q0 -51 -33 -88.5t-93 -37.5q-51 0 -79.5 32.5t-28.5 78.5q0 50 34 87t94 37q49 0 77.5 -32.5t28.5 -76.5z"/>
<glyph glyph-name="Nacute" unicode="Ń" horiz-adv-x="1380" d="M1192 0h-140q0 17 -328 479q-343 485 -391 612h-10q18 -241 18 -413q0 -336 15 -678h-168q17 325 17 684q0 353 -17 618h192q0 -28 302 -456q316 -450 360 -586h10q-17 244 -17 414q0 370 -14 628h171q-17 -265 -17 -618q0 -359 17 -684zM1011 1690q0 -12 -133 -135 t-143 -139h-120q0 16 90 139.5t90 134.5h216z"/>
<glyph glyph-name="Ncaron" unicode="Ň" horiz-adv-x="1380" d="M1192 0h-140q0 17 -328 479q-343 485 -391 612h-10q18 -241 18 -413q0 -336 15 -678h-168q17 325 17 684q0 353 -17 618h192q0 -28 302 -456q316 -450 360 -586h10q-17 244 -17 414q0 370 -14 628h171q-17 -265 -17 -618q0 -359 17 -684zM989 1690q0 -13 -94.5 -135.5 t-99.5 -138.5h-194q-5 16 -99.5 138.5t-94.5 135.5h114q10 -13 177 -158q167 145 177 158h114z"/>
<glyph glyph-name="Ntilde" unicode="Ñ" horiz-adv-x="1380" d="M1192 0h-140q0 17 -328 479q-343 485 -391 612h-10q18 -241 18 -413q0 -336 15 -678h-168q17 325 17 684q0 353 -17 618h192q0 -28 302 -456q316 -450 360 -586h10q-17 244 -17 414q0 370 -14 628h171q-17 -265 -17 -618q0 -359 17 -684zM1063 1640q-110 -185 -250 -185 q-51 0 -128.5 24t-125.5 24q-88 0 -172 -84l-62 50q110 185 250 185q51 0 128.5 -24t125.5 -24q88 0 172 84z"/>
<glyph glyph-name="Ncommaaccent" unicode="Ņ" horiz-adv-x="1380" d="M1192 0h-140q0 17 -328 479q-343 485 -391 612h-10q18 -241 18 -413q0 -336 15 -678h-168q17 325 17 684q0 353 -17 618h192q0 -28 302 -456q316 -450 360 -586h10q-17 244 -17 414q0 370 -14 628h171q-17 -265 -17 -618q0 -359 17 -684zM799 -248q0 -77 -53 -159.5 t-111 -118.5l-39 40q74 93 74 161q-101 27 -101 98q0 49 27.5 84.5t82.5 35.5q59 0 89.5 -39t30.5 -102z"/>
<glyph glyph-name="Ograve" unicode="Ò" horiz-adv-x="1421" d="M1322 671q0 -323 -189 -516.5t-437 -193.5q-238 0 -417.5 177.5t-179.5 479.5q0 327 189 518.5t437 191.5q238 0 417.5 -177.5t179.5 -479.5zM1144 648q0 258 -135.5 399.5t-312.5 141.5q-164 0 -292 -149t-128 -398q0 -259 136.5 -400.5t312.5 -141.5q164 0 291.5 151 t127.5 397zM800 1416h-120q-10 16 -143 139t-133 135h216q0 -11 90 -134.5t90 -139.5z"/>
<glyph glyph-name="Oacute" unicode="Ó" horiz-adv-x="1421" d="M1322 671q0 -323 -189 -516.5t-437 -193.5q-238 0 -417.5 177.5t-179.5 479.5q0 327 189 518.5t437 191.5q238 0 417.5 -177.5t179.5 -479.5zM1144 648q0 258 -135.5 399.5t-312.5 141.5q-164 0 -292 -149t-128 -398q0 -259 136.5 -400.5t312.5 -141.5q164 0 291.5 151 t127.5 397zM1055 1690q0 -12 -133 -135t-143 -139h-120q0 16 90 139.5t90 134.5h216z"/>
<glyph glyph-name="Ocircumflex" unicode="Ô" horiz-adv-x="1421" d="M1322 671q0 -323 -189 -516.5t-437 -193.5q-238 0 -417.5 177.5t-179.5 479.5q0 327 189 518.5t437 191.5q238 0 417.5 -177.5t179.5 -479.5zM1144 648q0 258 -135.5 399.5t-312.5 141.5q-164 0 -292 -149t-128 -398q0 -259 136.5 -400.5t312.5 -141.5q164 0 291.5 151 t127.5 397zM1010 1416h-114q-10 13 -177 158q-167 -145 -177 -158h-114q0 13 94.5 135.5t99.5 138.5h194q5 -16 99.5 -138.5t94.5 -135.5z"/>
<glyph glyph-name="Otilde" unicode="Õ" horiz-adv-x="1421" d="M1322 671q0 -323 -189 -516.5t-437 -193.5q-238 0 -417.5 177.5t-179.5 479.5q0 327 189 518.5t437 191.5q238 0 417.5 -177.5t179.5 -479.5zM1144 648q0 258 -135.5 399.5t-312.5 141.5q-164 0 -292 -149t-128 -398q0 -259 136.5 -400.5t312.5 -141.5q164 0 291.5 151 t127.5 397zM1132 1640q-110 -185 -250 -185q-51 0 -128.5 24t-125.5 24q-88 0 -172 -84l-62 50q110 185 250 185q51 0 128.5 -24t125.5 -24q88 0 172 84z"/>
<glyph glyph-name="Odieresis" unicode="Ö" horiz-adv-x="1421" d="M1322 671q0 -323 -189 -516.5t-437 -193.5q-238 0 -417.5 177.5t-179.5 479.5q0 327 189 518.5t437 191.5q238 0 417.5 -177.5t179.5 -479.5zM1144 648q0 258 -135.5 399.5t-312.5 141.5q-164 0 -292 -149t-128 -398q0 -259 136.5 -400.5t312.5 -141.5q164 0 291.5 151 t127.5 397zM646 1559q0 -46 -30.5 -80.5t-84.5 -34.5q-45 0 -70 30t-25 72q0 44 30.5 77.5t85.5 33.5q45 0 69.5 -28.5t24.5 -69.5zM1024 1559q0 -46 -30.5 -80.5t-84.5 -34.5q-45 0 -70 30t-25 72q0 44 30.5 77.5t85.5 33.5q45 0 69.5 -28.5t24.5 -69.5z"/>
<glyph glyph-name="Omacron" unicode="Ō" horiz-adv-x="1421" d="M1322 671q0 -323 -189 -516.5t-437 -193.5q-238 0 -417.5 177.5t-179.5 479.5q0 327 189 518.5t437 191.5q238 0 417.5 -177.5t179.5 -479.5zM1144 648q0 258 -135.5 399.5t-312.5 141.5q-164 0 -292 -149t-128 -398q0 -259 136.5 -400.5t312.5 -141.5q164 0 291.5 151 t127.5 397zM977 1600l-12 -124h-474l12 124h474z"/>
<glyph glyph-name="Obreve" unicode="Ŏ" horiz-adv-x="1421" d="M1322 671q0 -323 -189 -516.5t-437 -193.5q-238 0 -417.5 177.5t-179.5 479.5q0 327 189 518.5t437 191.5q238 0 417.5 -177.5t179.5 -479.5zM1144 648q0 258 -135.5 399.5t-312.5 141.5q-164 0 -292 -149t-128 -398q0 -259 136.5 -400.5t312.5 -141.5q164 0 291.5 151 t127.5 397zM1030 1640q-95 -218 -306 -218q-221 0 -308 218l100 50q72 -144 206 -144q124 0 208 144z"/>
<glyph glyph-name="Ohungarumlaut" unicode="Ő" horiz-adv-x="1421" d="M1322 671q0 -323 -189 -516.5t-437 -193.5q-238 0 -417.5 177.5t-179.5 479.5q0 327 189 518.5t437 191.5q238 0 417.5 -177.5t179.5 -479.5zM1144 648q0 258 -135.5 399.5t-312.5 141.5q-164 0 -292 -149t-128 -398q0 -259 136.5 -400.5t312.5 -141.5q164 0 291.5 151 t127.5 397zM749 1690q0 -22 -83.5 -140t-90.5 -134h-94q0 16 35 134.5t35 139.5h198zM1109 1690q0 -22 -83.5 -140t-90.5 -134h-94q7 16 38.5 134.5t31.5 139.5h198z"/>
<glyph glyph-name="Oslash" unicode="Ø" horiz-adv-x="1421" d="M1356 1322q0 -46 -157 -238q124 -172 124 -413q0 -319 -186 -514.5t-440 -195.5q-207 0 -370 134q-143 -172 -143 -209l-119 31q0 53 176 265q-141 176 -141 436q0 326 188.5 518t437.5 192q224 0 392 -153q116 143 116 178zM1011 1048q-129 144 -314 144 q-163 0 -291.5 -149t-128.5 -398q0 -189 82 -325zM1145 651q0 167 -64 293l-645 -721q126 -120 290 -120q163 0 291 151.5t128 396.5z"/>
<glyph glyph-name="Oslashacute" unicode="Ǿ" horiz-adv-x="1421" d="M1356 1322q0 -46 -157 -238q124 -172 124 -413q0 -319 -186 -514.5t-440 -195.5q-207 0 -370 134q-143 -172 -143 -209l-119 31q0 53 176 265q-141 176 -141 436q0 326 188.5 518t437.5 192q224 0 392 -153q116 143 116 178zM1011 1048q-129 144 -314 144 q-163 0 -291.5 -149t-128.5 -398q0 -189 82 -325zM1145 651q0 167 -64 293l-645 -721q126 -120 290 -120q163 0 291 151.5t128 396.5zM1057 1690q0 -12 -133 -135t-143 -139h-120q0 16 90 139.5t90 134.5h216z"/>
<glyph glyph-name="OE" unicode="Œ" horiz-adv-x="1846" d="M1780 151l-6 -151h-816q-144 -37 -275 -37q-290 0 -448 211q-136 182 -136 452q0 272 151 474q171 228 450 228q120 0 277 -26h748l-7 -149q-349 12 -605 12q6 -154 6 -419q204 0 504 6l-6 -143q-248 9 -498 9q0 -257 13 -482q236 0 648 15zM962 684q0 280 -8 475 q-125 33 -273 33q-195 0 -302 -169q-94 -147 -94 -368q0 -219 107 -376q117 -174 310 -174q157 0 252 40q8 222 8 539z"/>
<glyph glyph-name="Racute" unicode="Ŕ" horiz-adv-x="1240" d="M1174 0h-193q-96 287 -140 380q-56 117 -127 151q-56 27 -201 27q-85 0 -151 -2q0 -323 12 -556h-186q15 310 15 684q0 352 -15 618h141q45 0 114 3t158 3q438 0 438 -302q0 -251 -246 -353v-10q110 -33 178 -153q57 -100 203 -490zM868 938q0 238 -322 238 q-115 0 -193 -13q7 -174 7 -473q60 -2 115 -2q393 0 393 250zM931 1690q0 -12 -133 -135t-143 -139h-120q0 16 90 139.5t90 134.5h216z"/>
<glyph glyph-name="Rcaron" unicode="Ř" horiz-adv-x="1240" d="M1174 0h-193q-96 287 -140 380q-56 117 -127 151q-56 27 -201 27q-85 0 -151 -2q0 -323 12 -556h-186q15 310 15 684q0 352 -15 618h141q45 0 114 3t158 3q438 0 438 -302q0 -251 -246 -353v-10q110 -33 178 -153q57 -100 203 -490zM868 938q0 238 -322 238 q-115 0 -193 -13q7 -174 7 -473q60 -2 115 -2q393 0 393 250zM904 1690q0 -13 -94.5 -135.5t-99.5 -138.5h-194q-5 16 -99.5 138.5t-94.5 135.5h114q10 -13 177 -158q167 145 177 158h114z"/>
<glyph glyph-name="Rcommaaccent" unicode="Ŗ" horiz-adv-x="1240" d="M1174 0h-193q-96 287 -140 380q-56 117 -127 151q-56 27 -201 27q-85 0 -151 -2q0 -323 12 -556h-186q15 310 15 684q0 352 -15 618h141q45 0 114 3t158 3q438 0 438 -302q0 -251 -246 -353v-10q110 -33 178 -153q57 -100 203 -490zM868 938q0 238 -322 238 q-115 0 -193 -13q7 -174 7 -473q60 -2 115 -2q393 0 393 250zM776 -248q0 -77 -53 -159.5t-111 -118.5l-39 40q74 93 74 161q-101 27 -101 98q0 49 27.5 84.5t82.5 35.5q59 0 89.5 -39t30.5 -102z"/>
<glyph glyph-name="Sacute" unicode="Ś" horiz-adv-x="1047" d="M948 337q0 -370 -515 -370q-188 0 -334 43l35 157q168 -58 319 -58q340 0 340 192q0 97 -88 166q-59 46 -232 123q-182 81 -255 149q-101 94 -101 236q0 148 103 241q115 104 325 104q238 0 326 -31l-24 -159q-152 48 -323 48q-257 0 -257 -172q0 -83 74 -139 q48 -35 212 -106q187 -81 270 -154q125 -110 125 -270zM878 1690q0 -12 -133 -135t-143 -139h-120q0 16 90 139.5t90 134.5h216z"/>
<glyph glyph-name="Scircumflex" unicode="Ŝ" horiz-adv-x="1047" d="M948 337q0 -370 -515 -370q-188 0 -334 43l35 157q168 -58 319 -58q340 0 340 192q0 97 -88 166q-59 46 -232 123q-182 81 -255 149q-101 94 -101 236q0 148 103 241q115 104 325 104q238 0 326 -31l-24 -159q-152 48 -323 48q-257 0 -257 -172q0 -83 74 -139 q48 -35 212 -106q187 -81 270 -154q125 -110 125 -270zM821 1416h-114q-10 13 -177 158q-167 -145 -177 -158h-114q0 13 94.5 135.5t99.5 138.5h194q5 -16 99.5 -138.5t94.5 -135.5z"/>
<glyph glyph-name="Scaron" unicode="Š" horiz-adv-x="1047" d="M948 337q0 -370 -515 -370q-188 0 -334 43l35 157q168 -58 319 -58q340 0 340 192q0 97 -88 166q-59 46 -232 123q-182 81 -255 149q-101 94 -101 236q0 148 103 241q115 104 325 104q238 0 326 -31l-24 -159q-152 48 -323 48q-257 0 -257 -172q0 -83 74 -139 q48 -35 212 -106q187 -81 270 -154q125 -110 125 -270zM846 1690q0 -13 -94.5 -135.5t-99.5 -138.5h-194q-5 16 -99.5 138.5t-94.5 135.5h114q10 -13 177 -158q167 145 177 158h114z"/>
<glyph glyph-name="Scedilla" unicode="Ş" horiz-adv-x="1047" d="M948 337q0 -354 -473 -369l-10 -68q196 -47 196 -192q0 -222 -240 -222l-14 92q47 0 76.5 32t29.5 76q0 113 -152 142l28 140q-162 4 -296 42l39 157q170 -58 321 -58q340 0 340 192q0 97 -88 166q-59 46 -232 123q-182 81 -255 149q-101 94 -101 236q0 148 103 241 q115 104 325 104q238 0 326 -31l-24 -159q-152 48 -323 48q-257 0 -257 -172q0 -83 74 -139q48 -35 212 -106q187 -81 270 -154q125 -110 125 -270z"/>
<glyph glyph-name="Scommaaccent" unicode="Ș" horiz-adv-x="1047" d="M948 337q0 -370 -515 -370q-188 0 -334 43l35 157q168 -58 319 -58q340 0 340 192q0 97 -88 166q-59 46 -232 123q-182 81 -255 149q-101 94 -101 236q0 148 103 241q115 104 325 104q238 0 326 -31l-24 -159q-152 48 -323 48q-257 0 -257 -172q0 -83 74 -139 q48 -35 212 -106q187 -81 270 -154q125 -110 125 -270zM552 -248q0 -77 -53 -159.5t-111 -118.5l-39 40q74 93 74 161q-101 27 -101 98q0 49 27.5 84.5t82.5 35.5q59 0 89.5 -39t30.5 -102z"/>
<glyph glyph-name="Tcaron" unicode="Ť" horiz-adv-x="1043" d="M1021 1302l-5 -141q-198 10 -409 10q-2 -192 -2 -487q0 -326 10 -684h-183q12 341 12 684q0 291 -6 487q-148 0 -416 -12l5 143h994zM819 1690q0 -13 -94.5 -135.5t-99.5 -138.5h-194q-5 16 -99.5 138.5t-94.5 135.5h114q10 -13 177 -158q167 145 177 158h114z"/>
<glyph glyph-name="Tcommaaccent" unicode="Ţ" horiz-adv-x="1043" d="M1021 1302l-5 -141q-198 10 -409 10q-2 -192 -2 -487q0 -326 10 -684h-183q12 341 12 684q0 291 -6 487q-148 0 -416 -12l5 143h994zM657 -248q0 -77 -53 -159.5t-111 -118.5l-39 40q74 93 74 161q-101 27 -101 98q0 49 27.5 84.5t82.5 35.5q59 0 89.5 -39t30.5 -102z "/>
<glyph glyph-name="Tcommaaccent" unicode="Ț" horiz-adv-x="1043" d="M1021 1302l-5 -141q-198 10 -409 10q-2 -192 -2 -487q0 -326 10 -684h-183q12 341 12 684q0 291 -6 487q-148 0 -416 -12l5 143h994zM657 -248q0 -77 -53 -159.5t-111 -118.5l-39 40q74 93 74 161q-101 27 -101 98q0 49 27.5 84.5t82.5 35.5q59 0 89.5 -39t30.5 -102z "/>
<glyph glyph-name="Tbar" unicode="Ŧ" horiz-adv-x="1043" d="M1021 1302l-5 -141q-198 10 -409 10q-2 -171 -2 -426h349l-10 -108h-339q0 -305 10 -637h-183q11 317 12 637h-349l10 108h339q-1 251 -6 426q-148 0 -416 -12l5 143h994z"/>
<glyph glyph-name="Ugrave" unicode="Ù" horiz-adv-x="1398" d="M1232 1302q-4 -189 -6 -353t-2 -306q0 -670 -529 -670q-138 0 -236.5 39.5t-162 121t-93 205.5t-29.5 293q0 148 -2 314.5t-6 355.5h190q-12 -381 -12 -597q0 -174 17 -283.5t60.5 -182.5t109.5 -103.5t168 -30.5q107 0 174 30.5t109 101t60 181t18 289.5 q0 106 -3.5 253.5t-10.5 341.5h186zM794 1416h-120q-10 16 -143 139t-133 135h216q0 -11 90 -134.5t90 -139.5z"/>
<glyph glyph-name="Uacute" unicode="Ú" horiz-adv-x="1398" d="M1232 1302q-4 -189 -6 -353t-2 -306q0 -670 -529 -670q-138 0 -236.5 39.5t-162 121t-93 205.5t-29.5 293q0 148 -2 314.5t-6 355.5h190q-12 -381 -12 -597q0 -174 17 -283.5t60.5 -182.5t109.5 -103.5t168 -30.5q107 0 174 30.5t109 101t60 181t18 289.5 q0 106 -3.5 253.5t-10.5 341.5h186zM1021 1690q0 -12 -133 -135t-143 -139h-120q0 16 90 139.5t90 134.5h216z"/>
<glyph glyph-name="Ucircumflex" unicode="Û" horiz-adv-x="1398" d="M1232 1302q-4 -189 -6 -353t-2 -306q0 -670 -529 -670q-138 0 -236.5 39.5t-162 121t-93 205.5t-29.5 293q0 148 -2 314.5t-6 355.5h190q-12 -381 -12 -597q0 -174 17 -283.5t60.5 -182.5t109.5 -103.5t168 -30.5q107 0 174 30.5t109 101t60 181t18 289.5 q0 106 -3.5 253.5t-10.5 341.5h186zM994 1416h-114q-10 13 -177 158q-167 -145 -177 -158h-114q0 13 94.5 135.5t99.5 138.5h194q5 -16 99.5 -138.5t94.5 -135.5z"/>
<glyph glyph-name="Utilde" unicode="Ũ" horiz-adv-x="1398" d="M1232 1302q-4 -189 -6 -353t-2 -306q0 -670 -529 -670q-138 0 -236.5 39.5t-162 121t-93 205.5t-29.5 293q0 148 -2 314.5t-6 355.5h190q-12 -381 -12 -597q0 -174 17 -283.5t60.5 -182.5t109.5 -103.5t168 -30.5q107 0 174 30.5t109 101t60 181t18 289.5 q0 106 -3.5 253.5t-10.5 341.5h186zM1098 1640q-110 -185 -250 -185q-51 0 -128.5 24t-125.5 24q-88 0 -172 -84l-62 50q110 185 250 185q51 0 128.5 -24t125.5 -24q88 0 172 84z"/>
<glyph glyph-name="Udieresis" unicode="Ü" horiz-adv-x="1398" d="M1232 1302q-4 -189 -6 -353t-2 -306q0 -670 -529 -670q-138 0 -236.5 39.5t-162 121t-93 205.5t-29.5 293q0 148 -2 314.5t-6 355.5h190q-12 -381 -12 -597q0 -174 17 -283.5t60.5 -182.5t109.5 -103.5t168 -30.5q107 0 174 30.5t109 101t60 181t18 289.5 q0 106 -3.5 253.5t-10.5 341.5h186zM626 1559q0 -46 -30.5 -80.5t-84.5 -34.5q-45 0 -70 30t-25 72q0 44 30.5 77.5t85.5 33.5q45 0 69.5 -28.5t24.5 -69.5zM1004 1559q0 -46 -30.5 -80.5t-84.5 -34.5q-45 0 -70 30t-25 72q0 44 30.5 77.5t85.5 33.5q45 0 69.5 -28.5 t24.5 -69.5z"/>
<glyph glyph-name="Umacron" unicode="Ū" horiz-adv-x="1398" d="M1232 1302q-4 -189 -6 -353t-2 -306q0 -670 -529 -670q-138 0 -236.5 39.5t-162 121t-93 205.5t-29.5 293q0 148 -2 314.5t-6 355.5h190q-12 -381 -12 -597q0 -174 17 -283.5t60.5 -182.5t109.5 -103.5t168 -30.5q107 0 174 30.5t109 101t60 181t18 289.5 q0 106 -3.5 253.5t-10.5 341.5h186zM949 1600l-12 -124h-474l12 124h474z"/>
<glyph glyph-name="Ubreve" unicode="Ŭ" horiz-adv-x="1398" d="M1232 1302q-4 -189 -6 -353t-2 -306q0 -670 -529 -670q-138 0 -236.5 39.5t-162 121t-93 205.5t-29.5 293q0 148 -2 314.5t-6 355.5h190q-12 -381 -12 -597q0 -174 17 -283.5t60.5 -182.5t109.5 -103.5t168 -30.5q107 0 174 30.5t109 101t60 181t18 289.5 q0 106 -3.5 253.5t-10.5 341.5h186zM1022 1640q-95 -218 -306 -218q-221 0 -308 218l100 50q72 -144 206 -144q124 0 208 144z"/>
<glyph glyph-name="Uring" unicode="Ů" horiz-adv-x="1398" d="M1232 1302q-4 -189 -6 -353t-2 -306q0 -670 -529 -670q-138 0 -236.5 39.5t-162 121t-93 205.5t-29.5 293q0 148 -2 314.5t-6 355.5h190q-12 -381 -12 -597q0 -174 17 -283.5t60.5 -182.5t109.5 -103.5t168 -30.5q107 0 174 30.5t109 101t60 181t18 289.5 q0 106 -3.5 253.5t-10.5 341.5h186zM923 1584q0 -104 -69 -165t-159 -61q-82 0 -139 51.5t-57 147.5q0 103 69 163t159 60q82 0 139 -51t57 -145zM829 1576q0 57 -32 87.5t-78 30.5q-50 0 -88 -35.5t-38 -96.5q0 -57 32 -87.5t78 -30.5q50 0 88 35.5t38 96.5z"/>
<glyph glyph-name="Uhungarumlaut" unicode="Ű" horiz-adv-x="1398" d="M1232 1302q-4 -189 -6 -353t-2 -306q0 -670 -529 -670q-138 0 -236.5 39.5t-162 121t-93 205.5t-29.5 293q0 148 -2 314.5t-6 355.5h190q-12 -381 -12 -597q0 -174 17 -283.5t60.5 -182.5t109.5 -103.5t168 -30.5q107 0 174 30.5t109 101t60 181t18 289.5 q0 106 -3.5 253.5t-10.5 341.5h186zM729 1690q0 -22 -83.5 -140t-90.5 -134h-94q0 16 35 134.5t35 139.5h198zM1089 1690q0 -22 -83.5 -140t-90.5 -134h-94q7 16 38.5 134.5t31.5 139.5h198z"/>
<glyph glyph-name="Uogonek" unicode="Ų" horiz-adv-x="1398" d="M948 -471q-52 -15 -136 -15q-51 0 -91 12t-68.5 38t-43.5 67t-15 99q0 136 141 235v9q-11 -1 -40 -1q-138 0 -236.5 39.5t-162 121t-93 205.5t-29.5 293q0 148 -2 314.5t-6 355.5h190q-12 -381 -12 -597q0 -174 17 -283.5t61 -181t111.5 -103.5t165.5 -32q106 0 173.5 30 t111 101t60 181.5t16.5 289.5q0 106 -3.5 253.5t-10.5 341.5h186q-4 -189 -6 -353t-2 -306q0 -497 -291 -625q-201 -89 -201 -242q0 -126 102 -126q41 0 86 16z"/>
<glyph glyph-name="Wgrave" unicode="Ẁ" horiz-adv-x="1815" d="M1804 1302q0 -73 -216 -654t-216 -648h-130q0 88 -157 510q-171 457 -194 589h-13q-20 -140 -172 -600q-142 -431 -142 -499h-130q0 102 -211.5 683.5t-211.5 618.5h190q0 -41 151.5 -518t151.5 -584h11q0 113 154 580.5t154 521.5h175q0 -65 160 -554.5t160 -547.5h11 q0 98 145.5 554.5t145.5 547.5h184zM985 1416h-120q-10 16 -143 139t-133 135h216q0 -11 90 -134.5t90 -139.5z"/>
<glyph glyph-name="Wacute" unicode="Ẃ" horiz-adv-x="1815" d="M1804 1302q0 -73 -216 -654t-216 -648h-130q0 88 -157 510q-171 457 -194 589h-13q-20 -140 -172 -600q-142 -431 -142 -499h-130q0 102 -211.5 683.5t-211.5 618.5h190q0 -41 151.5 -518t151.5 -584h11q0 113 154 580.5t154 521.5h175q0 -65 160 -554.5t160 -547.5h11 q0 98 145.5 554.5t145.5 547.5h184zM1224 1690q0 -12 -133 -135t-143 -139h-120q0 16 90 139.5t90 134.5h216z"/>
<glyph glyph-name="Wcircumflex" unicode="Ŵ" horiz-adv-x="1815" d="M1804 1302q0 -73 -216 -654t-216 -648h-130q0 88 -157 510q-171 457 -194 589h-13q-20 -140 -172 -600q-142 -431 -142 -499h-130q0 102 -211.5 683.5t-211.5 618.5h190q0 -41 151.5 -518t151.5 -584h11q0 113 154 580.5t154 521.5h175q0 -65 160 -554.5t160 -547.5h11 q0 98 145.5 554.5t145.5 547.5h184zM1197 1416h-114q-10 13 -177 158q-167 -145 -177 -158h-114q0 13 94.5 135.5t99.5 138.5h194q5 -16 99.5 -138.5t94.5 -135.5z"/>
<glyph glyph-name="Wdieresis" unicode="Ẅ" horiz-adv-x="1815" d="M1804 1302q0 -73 -216 -654t-216 -648h-130q0 88 -157 510q-171 457 -194 589h-13q-20 -140 -172 -600q-142 -431 -142 -499h-130q0 102 -211.5 683.5t-211.5 618.5h190q0 -41 151.5 -518t151.5 -584h11q0 113 154 580.5t154 521.5h175q0 -65 160 -554.5t160 -547.5h11 q0 98 145.5 554.5t145.5 547.5h184zM831 1559q0 -46 -30.5 -80.5t-84.5 -34.5q-45 0 -70 30t-25 72q0 44 30.5 77.5t85.5 33.5q45 0 69.5 -28.5t24.5 -69.5zM1209 1559q0 -46 -30.5 -80.5t-84.5 -34.5q-45 0 -70 30t-25 72q0 44 30.5 77.5t85.5 33.5q45 0 69.5 -28.5 t24.5 -69.5z"/>
<glyph glyph-name="Ygrave" unicode="Ỳ" horiz-adv-x="1127" d="M1105 1302q0 -37 -123 -216q-174 -253 -227 -344q-123 -209 -123 -318q0 -206 14 -424h-192q13 207 13 426q0 120 -115 333q-65 119 -215 344q-115 174 -115 199h205q0 -26 172.5 -318.5t172.5 -386.5h10q0 95 164.5 380t164.5 325h194zM645 1416h-120q-10 16 -143 139 t-133 135h216q0 -11 90 -134.5t90 -139.5z"/>
<glyph glyph-name="Yacute" unicode="Ý" horiz-adv-x="1127" d="M1105 1302q0 -37 -123 -216q-174 -253 -227 -344q-123 -209 -123 -318q0 -206 14 -424h-192q13 207 13 426q0 120 -115 333q-65 119 -215 344q-115 174 -115 199h205q0 -26 172.5 -318.5t172.5 -386.5h10q0 95 164.5 380t164.5 325h194zM898 1690q0 -12 -133 -135 t-143 -139h-120q0 16 90 139.5t90 134.5h216z"/>
<glyph glyph-name="Ycircumflex" unicode="Ŷ" horiz-adv-x="1127" d="M1105 1302q0 -37 -123 -216q-174 -253 -227 -344q-123 -209 -123 -318q0 -206 14 -424h-192q13 207 13 426q0 120 -115 333q-65 119 -215 344q-115 174 -115 199h205q0 -26 172.5 -318.5t172.5 -386.5h10q0 95 164.5 380t164.5 325h194zM861 1416h-114q-10 13 -177 158 q-167 -145 -177 -158h-114q0 13 94.5 135.5t99.5 138.5h194q5 -16 99.5 -138.5t94.5 -135.5z"/>
<glyph glyph-name="Ydieresis" unicode="Ÿ" horiz-adv-x="1127" d="M1105 1302q0 -37 -123 -216q-174 -253 -227 -344q-123 -209 -123 -318q0 -206 14 -424h-192q13 207 13 426q0 120 -115 333q-65 119 -215 344q-115 174 -115 199h205q0 -26 172.5 -318.5t172.5 -386.5h10q0 95 164.5 380t164.5 325h194zM495 1559q0 -46 -30.5 -80.5 t-84.5 -34.5q-45 0 -70 30t-25 72q0 44 30.5 77.5t85.5 33.5q45 0 69.5 -28.5t24.5 -69.5zM873 1559q0 -46 -30.5 -80.5t-84.5 -34.5q-45 0 -70 30t-25 72q0 44 30.5 77.5t85.5 33.5q45 0 69.5 -28.5t24.5 -69.5z"/>
<glyph glyph-name="Zacute" unicode="Ź" horiz-adv-x="1062" d="M963 167l-6 -167h-858l9 120q126 176 367 570q259 425 259 473v11q-219 0 -621 -25l5 153h816l-8 -124q-114 -161 -351 -565q-247 -420 -247 -462v-11q207 0 635 27zM824 1690q0 -12 -133 -135t-143 -139h-120q0 16 90 139.5t90 134.5h216z"/>
<glyph glyph-name="Zcaron" unicode="Ž" horiz-adv-x="1062" d="M963 167l-6 -167h-858l9 120q126 176 367 570q259 425 259 473v11q-219 0 -621 -25l5 153h816l-8 -124q-114 -161 -351 -565q-247 -420 -247 -462v-11q207 0 635 27zM806 1690q0 -13 -94.5 -135.5t-99.5 -138.5h-194q-5 16 -99.5 138.5t-94.5 135.5h114q10 -13 177 -158 q167 145 177 158h114z"/>
<glyph glyph-name="Zdotaccent" unicode="Ż" horiz-adv-x="1062" d="M963 167l-6 -167h-858l9 120q126 176 367 570q259 425 259 473v11q-219 0 -621 -25l5 153h816l-8 -124q-114 -161 -351 -565q-247 -420 -247 -462v-11q207 0 635 27zM675 1565q0 -51 -33 -88.5t-93 -37.5q-51 0 -79.5 32.5t-28.5 78.5q0 50 34 87t94 37q49 0 77.5 -32.5 t28.5 -76.5z"/>
<glyph glyph-name="Eng" unicode="Ŋ" horiz-adv-x="1380" d="M1193 -56q0 -159 -87 -256q-134 -130 -356 -130l-8 140q151 0 224.5 63.5t74.5 234.5v37l-317 446q-343 485 -391 612h-10q18 -241 18 -413q0 -336 15 -678h-168q17 325 17 684q0 353 -17 618h192q0 -28 302 -456q316 -450 360 -586h10q-17 244 -17 414q0 370 -14 628 h171q-14 -265 -14 -618q0 -287 7.5 -438t7.5 -302z"/>
<glyph glyph-name="Eth" unicode="Ð" horiz-adv-x="1316" d="M1217 698q0 -284 -172 -487q-191 -225 -510 -225q-104 0 -347 14q15 249 15 585q-33 0 -160 -17l9 167q120 -4 151 -4q0 347 -15 571h110q41 0 126 3t124 3q336 0 502.5 -175t166.5 -435zM1043 653q0 218 -138 369t-417 151q-62 0 -139 -10q10 -160 8 -432q56 0 391 33 l-6 -161q-346 0 -385 -8q0 -276 11 -459q80 -16 157 -16q261 0 399 167q119 143 119 366z"/>
<glyph glyph-name="Thorn" unicode="Þ" horiz-adv-x="1132" d="M1066 805q0 -232 -171.5 -346.5t-466.5 -114.5h-64q0 -138 10 -344h-186q12 340 12 690q0 338 -12 612h190q-6 -99 -7 -183q106 8 276 8q192 0 305.5 -87t113.5 -235zM899 741q0 256 -351 256q-87 0 -181 -15q-3 -165 -3 -510h84q451 0 451 269z"/>
<glyph glyph-name="a" unicode="a" horiz-adv-x="1005" d="M883 0l-157 -6q-12 49 -12 93h-10q-123 -112 -335 -112q-115 0 -198 67.5t-83 192.5q0 154 130 247.5t483 98.5q3 24 3 55q0 123 -65.5 164t-198.5 41q-157 0 -309 -39l17 138q150 43 345 43q178 0 275 -73.5t97 -250.5q0 -47 -4.5 -170.5t-4.5 -164.5q0 -182 27 -324z M706 194q-5 152 -5 273q-188 0 -286 -28q-164 -50 -164 -191q0 -136 192 -136q165 0 263 82z"/>
<glyph glyph-name="b" unicode="b" horiz-adv-x="1138" d="M1039 514q0 -219 -125 -380t-342 -161q-184 0 -250 66h-8l-25 -39h-147q13 345 13 746q0 362 -33 661l198 10q-10 -172 -10 -545h8q98 113 311 113q185 0 297.5 -138t112.5 -333zM861 490q0 151 -79 255t-218 104q-180 0 -258 -109q0 -356 16 -577q81 -68 211 -68 q164 0 246 115t82 280z"/>
<glyph glyph-name="c" unicode="c" horiz-adv-x="925" d="M859 153l-10 -134q-81 -46 -217 -46q-259 0 -396 143t-137 345q0 214 144 368t381 154q119 0 194 -24l-27 -157q-105 39 -213 39q-142 0 -226 -99t-84 -248q0 -162 100 -270t283 -108q75 0 208 37z"/>
<glyph glyph-name="d" unicode="d" horiz-adv-x="1127" d="M994 1l-149 -5q-8 43 -8 91h-11q-105 -114 -312 -114q-190 0 -302.5 138t-112.5 333q0 221 125 381t352 160q162 0 232 -66h8q0 248 -14 487l190 7q-19 -254 -19 -665q0 -418 21 -747zM833 198q0 311 -17 599q-81 67 -202 67q-169 0 -253 -112.5t-84 -282.5 q0 -152 79.5 -256t220.5 -104q177 0 256 89z"/>
<glyph glyph-name="e" unicode="e" horiz-adv-x="1051" d="M952 587q0 -42 -4 -116l-687 -12q10 -146 113 -244.5t273 -98.5q152 0 285 37l-17 -141q-98 -39 -283 -39q-260 0 -396.5 142t-136.5 346q0 218 124.5 375.5t334.5 157.5q193 0 293.5 -114t100.5 -293zM785 585q0 281 -235 281q-240 0 -283 -292z"/>
<glyph glyph-name="f" unicode="f" horiz-adv-x="694" d="M694 1419l-29 -132q-60 15 -120 15q-92 0 -124.5 -72.5t-32.5 -299.5q99 0 277 10l-6 -149q-202 6 -271 6q0 -455 12 -797h-179q14 333 14 797q-61 0 -213 -6l7 147q138 -8 206 -8q0 265 74 385.5t236 120.5q71 0 149 -17z"/>
<glyph glyph-name="g" unicode="g" horiz-adv-x="1105" d="M1072 1076l-16 -138q-186 0 -205 -60v-10q64 -78 64 -178q0 -156 -102.5 -257.5t-316.5 -101.5q-95 0 -151 20q-49 -35 -49 -87q0 -64 58 -85q74 -28 309 -28q380 0 380 -252q0 -180 -148 -298t-383 -118q-241 0 -343.5 87.5t-102.5 210.5q0 112 50.5 180t125.5 84v9 q-79 38 -79 146q0 98 100 172v8q-53 26 -101 88t-48 154q0 159 105 259t304 100q163 0 256 -59h11q32 169 168 169q74 0 114 -15zM893 -169q0 94 -68.5 132.5t-257.5 38.5q-128 0 -234 12q-122 -59 -122 -173q0 -244 320 -244q167 0 264.5 65t97.5 169zM754 649 q0 110 -69.5 168.5t-176.5 58.5q-101 0 -169 -56.5t-68 -160.5q0 -109 69.5 -166t178.5 -57q100 0 167.5 55.5t67.5 157.5z"/>
<glyph glyph-name="h" unicode="h" horiz-adv-x="1109" d="M979 0h-182q22 263 22 566q0 162 -60.5 218.5t-167.5 56.5q-150 0 -281 -103q0 -546 8 -738h-176q9 264 9 746q0 422 -29 661l190 10q-8 -305 -8 -566h6q150 132 329 132q160 0 250 -74.5t90 -261.5q0 -19 -2 -74.5t-2 -97.5q0 -144 4 -475z"/>
<glyph glyph-name="i" unicode="i" horiz-adv-x="446" d="M313 0h-181q14 200 14 457q0 289 -35 485l200 27q-12 -209 -12 -512q0 -240 14 -457zM355 1250q0 -51 -33 -88.5t-93 -37.5q-51 0 -79.5 32.5t-28.5 78.5q0 50 34 87t94 37q49 0 77.5 -32.5t28.5 -76.5z"/>
<glyph glyph-name="j" unicode="j" horiz-adv-x="446" d="M312 971q-17 -310 -17 -622q0 -83 5.5 -219.5t5.5 -185.5q0 -323 -246 -392l-50 76q89 75 110 160q31 122 31 520q0 427 -40 638zM355 1250q0 -51 -33 -88.5t-93 -37.5q-51 0 -79.5 32.5t-28.5 78.5q0 50 34 87t94 37q49 0 77.5 -32.5t28.5 -76.5z"/>
<glyph glyph-name="k" unicode="k" horiz-adv-x="1000" d="M989 0h-235q0 35 -194 267q-199 239 -250 239h-7q0 -214 11 -506h-176q13 366 13 746q0 387 -29 661l192 10q-11 -216 -11 -839h7q33 0 207.5 168.5t174.5 203.5h221q0 -32 -157 -166q-147 -125 -269 -206v-8q124 -94 319 -322q183 -215 183 -248z"/>
<glyph glyph-name="l" unicode="l" horiz-adv-x="469" d="M325 0h-192q18 330 18 746q0 404 -29 661l203 10q-19 -272 -19 -671q0 -411 19 -746z"/>
<glyph glyph-name="m" unicode="m" horiz-adv-x="1677" d="M1388 579q0 160 -55.5 211.5t-182.5 51.5q-107 0 -221 -105q-4 -122 -4 -239q0 -167 6 -498h-182q22 285 22 579q0 160 -55.5 211.5t-177.5 51.5q-125 0 -234 -105q0 -317 4 -737h-182q19 340 19 492q0 231 -45 454l176 25l18 -121h10q130 133 289 133q237 0 305 -133h11 q151 133 298 133q168 0 254 -74t86 -261q0 -19 -2 -75t-2 -75q0 -167 4 -498h-182q23 262 23 579z"/>
<glyph glyph-name="n" unicode="n" horiz-adv-x="1109" d="M979 0h-182q22 263 22 574q0 154 -62.5 210.5t-178.5 56.5q-142 0 -262 -103q0 -341 4 -738h-182q17 340 17 492q0 234 -44 454l176 25l19 -122h8q148 134 317 134q166 0 257 -73.5t91 -261.5q0 -19 -2 -75t-2 -75q0 -167 4 -498z"/>
<glyph glyph-name="o" unicode="o" horiz-adv-x="1144" d="M1045 504q0 -256 -147 -399.5t-346 -143.5q-186 0 -319.5 127t-133.5 358q0 258 147.5 403t346.5 145q186 0 319 -128.5t133 -361.5zM872 469q0 156 -78.5 277.5t-223.5 121.5q-144 0 -221.5 -115t-77.5 -267q0 -157 78.5 -278t224.5 -121q144 0 221 115.5t77 266.5z"/>
<glyph glyph-name="p" unicode="p" horiz-adv-x="1138" d="M1039 514q0 -216 -123.5 -378.5t-343.5 -162.5q-184 0 -242 66h-10q0 -278 6 -496h-188q23 266 23 657q0 482 -50 746l176 25l15 -99h10q97 113 314 113q191 0 302 -139.5t111 -331.5zM861 490q0 148 -78 253.5t-219 105.5q-180 0 -258 -109q16 -336 16 -577 q81 -68 211 -68q165 0 246.5 116t81.5 279z"/>
<glyph glyph-name="q" unicode="q" horiz-adv-x="1139" d="M1006 -455h-178q9 274 9 542h-11q-103 -114 -314 -114q-189 0 -301 139.5t-112 331.5q0 216 122 378.5t345 162.5q182 0 267 -66h8l41 31l124 11q-14 -336 -14 -674q0 -404 14 -742zM837 219q0 330 -9 576q-93 69 -223 69q-165 0 -246.5 -116t-81.5 -279q0 -148 78 -254 t219 -106q180 0 263 110z"/>
<glyph glyph-name="r" unicode="r" horiz-adv-x="726" d="M736 950l-45 -159q-78 31 -145 31q-188 0 -244 -179q0 -460 6 -643h-177q16 317 16 492q0 237 -47 454l175 25q19 -110 19 -147h8q108 159 252 159q76 0 182 -33z"/>
<glyph glyph-name="s" unicode="s" horiz-adv-x="858" d="M767 271q0 -292 -373 -292q-165 0 -308 33l31 147q130 -50 282 -50q218 0 218 124q0 60 -48.5 95.5t-160.5 79.5q-142 56 -206 108q-94 77 -94 186q0 114 86 195.5t262 81.5q172 0 276 -29l-31 -144q-108 43 -250 43q-192 0 -192 -111q0 -56 43 -90.5t168 -83.5 q135 -53 200 -104q97 -79 97 -189z"/>
<glyph glyph-name="t" unicode="t" horiz-adv-x="735" d="M680 138l-12 -130q-79 -29 -149 -29q-180 0 -246 91.5t-66 327.5q0 153 2 399q-56 0 -165 -6l6 145q95 -6 170 -6q0 60 10 285l157 16q-17 -210 -17 -301q98 0 288 10l-7 -149q-180 6 -289 6q-2 -151 -2 -340q0 -206 43.5 -272.5t161.5 -66.5q39 0 115 20z"/>
<glyph glyph-name="u" unicode="u" horiz-adv-x="1097" d="M975 1l-155 -6q-14 56 -14 92h-10q-133 -112 -323 -112q-173 0 -251.5 83.5t-78.5 336.5q0 36 2 107t2 97q0 147 -17 346l186 7q-12 -193 -12 -330q0 -315 40.5 -410.5t182.5 -95.5q160 0 264 80q0 556 -10 749l180 7q-8 -188 -8 -520q0 -213 22 -431z"/>
<glyph glyph-name="v" unicode="v" horiz-adv-x="984" d="M940 950q0 -49 -202.5 -472.5t-202.5 -477.5h-134q0 70 -178.5 489.5t-178.5 460.5h194q0 -48 130 -381t130 -381h9q0 46 123.5 367t123.5 395h186z"/>
<glyph glyph-name="w" unicode="w" horiz-adv-x="1569" d="M1525 950q0 -60 -171.5 -470.5t-171.5 -479.5h-136q0 38 -101 291q-124 311 -176 486h-8q-48 -169 -164 -487q-92 -252 -92 -290h-137q0 58 -162 480.5t-162 469.5h178q0 -52 116.5 -380t116.5 -382h11q0 82 120.5 395.5t120.5 366.5h170q0 -46 125 -383t125 -379h10 q0 61 108.5 372.5t108.5 389.5h171z"/>
<glyph glyph-name="x" unicode="x" horiz-adv-x="1032" d="M977 0h-217q0 25 -96 170t-169 243h-8q-51 -70 -141 -226.5t-90 -186.5h-201q0 29 143 220t231 284v8q-66 73 -198 246.5t-132 191.5h214q0 -24 80.5 -154t134.5 -199h9q49 59 127.5 193t78.5 160h190q0 -17 -135.5 -194.5t-194.5 -236.5v-11q85 -99 229.5 -292 t144.5 -216z"/>
<glyph glyph-name="y" unicode="y" horiz-adv-x="952" d="M908 950q0 -64 -151 -408q-173 -393 -215 -554q-69 -261 -128 -332q-80 -98 -285 -98l-8 140q125 0 208 85t83 213q0 111 -184 528t-184 426h207q0 -27 126 -364t126 -415h10q0 65 106.5 377t106.5 402h182z"/>
<glyph glyph-name="z" unicode="z" horiz-adv-x="933" d="M834 161l-6 -161h-729l8 155q53 51 271 316q237 289 237 324l-1 11q-321 0 -509 -13l6 157h694l-10 -157q-83 -91 -263 -318q-224 -283 -224 -322v-8q302 0 526 16z"/>
<glyph glyph-name="agrave" unicode="à" horiz-adv-x="1005" d="M883 0l-157 -6q-12 49 -12 93h-10q-123 -112 -335 -112q-115 0 -198 67.5t-83 192.5q0 154 130 247.5t483 98.5q3 24 3 55q0 123 -65.5 164t-198.5 41q-157 0 -309 -39l17 138q150 43 345 43q178 0 275 -73.5t97 -250.5q0 -47 -4.5 -170.5t-4.5 -164.5q0 -182 27 -324z M706 194q-5 152 -5 273q-188 0 -286 -28q-164 -50 -164 -191q0 -136 192 -136q165 0 263 82zM585 1086h-120q0 16 -138 164t-138 160h216q0 -11 90 -159.5t90 -164.5z"/>
<glyph glyph-name="aacute" unicode="á" horiz-adv-x="1005" d="M883 0l-157 -6q-12 49 -12 93h-10q-123 -112 -335 -112q-115 0 -198 67.5t-83 192.5q0 154 130 247.5t483 98.5q3 24 3 55q0 123 -65.5 164t-198.5 41q-157 0 -309 -39l17 138q150 43 345 43q178 0 275 -73.5t97 -250.5q0 -47 -4.5 -170.5t-4.5 -164.5q0 -182 27 -324z M706 194q-5 152 -5 273q-188 0 -286 -28q-164 -50 -164 -191q0 -136 192 -136q165 0 263 82zM820 1410q0 -12 -138 -160t-138 -164h-120q0 16 90 164.5t90 159.5h216z"/>
<glyph glyph-name="acircumflex" unicode="â" horiz-adv-x="1005" d="M883 0l-157 -6q-12 49 -12 93h-10q-123 -112 -335 -112q-115 0 -198 67.5t-83 192.5q0 154 130 247.5t483 98.5q3 24 3 55q0 123 -65.5 164t-198.5 41q-157 0 -309 -39l17 138q150 43 345 43q178 0 275 -73.5t97 -250.5q0 -47 -4.5 -170.5t-4.5 -164.5q0 -182 27 -324z M706 194q-5 152 -5 273q-188 0 -286 -28q-164 -50 -164 -191q0 -136 192 -136q165 0 263 82zM771 1086h-104q0 13 -187 208q-187 -195 -187 -208h-104q0 13 94.5 160.5t99.5 163.5h194q5 -16 99.5 -163.5t94.5 -160.5z"/>
<glyph glyph-name="atilde" unicode="ã" horiz-adv-x="1005" d="M883 0l-157 -6q-12 49 -12 93h-10q-123 -112 -335 -112q-115 0 -198 67.5t-83 192.5q0 154 130 247.5t483 98.5q3 24 3 55q0 123 -65.5 164t-198.5 41q-157 0 -309 -39l17 138q150 43 345 43q178 0 275 -73.5t97 -250.5q0 -47 -4.5 -170.5t-4.5 -164.5q0 -182 27 -324z M706 194q-5 152 -5 273q-188 0 -286 -28q-164 -50 -164 -191q0 -136 192 -136q165 0 263 82zM889 1366q-110 -221 -250 -221q-51 0 -128.5 24t-125.5 24q-88 0 -172 -120l-62 50q110 221 250 221q51 0 128.5 -24t125.5 -24q88 0 172 120z"/>
<glyph glyph-name="adieresis" unicode="ä" horiz-adv-x="1005" d="M883 0l-157 -6q-12 49 -12 93h-10q-123 -112 -335 -112q-115 0 -198 67.5t-83 192.5q0 154 130 247.5t483 98.5q3 24 3 55q0 123 -65.5 164t-198.5 41q-157 0 -309 -39l17 138q150 43 345 43q178 0 275 -73.5t97 -250.5q0 -47 -4.5 -170.5t-4.5 -164.5q0 -182 27 -324z M706 194q-5 152 -5 273q-188 0 -286 -28q-164 -50 -164 -191q0 -136 192 -136q165 0 263 82zM414 1251q0 -46 -30.5 -80.5t-84.5 -34.5q-45 0 -70 30t-25 72q0 44 30.5 77.5t85.5 33.5q45 0 69.5 -28.5t24.5 -69.5zM792 1251q0 -46 -30.5 -80.5t-84.5 -34.5q-45 0 -70 30 t-25 72q0 44 30.5 77.5t85.5 33.5q45 0 69.5 -28.5t24.5 -69.5z"/>
<glyph glyph-name="amacron" unicode="ā" horiz-adv-x="1005" d="M883 0l-157 -6q-12 49 -12 93h-10q-123 -112 -335 -112q-115 0 -198 67.5t-83 192.5q0 154 130 247.5t483 98.5q3 24 3 55q0 123 -65.5 164t-198.5 41q-157 0 -309 -39l17 138q150 43 345 43q178 0 275 -73.5t97 -250.5q0 -47 -4.5 -170.5t-4.5 -164.5q0 -182 27 -324z M706 194q-5 152 -5 273q-188 0 -286 -28q-164 -50 -164 -191q0 -136 192 -136q165 0 263 82zM727 1310l-12 -124h-434l11 124h435z"/>
<glyph glyph-name="abreve" unicode="ă" horiz-adv-x="1005" d="M883 0l-157 -6q-12 49 -12 93h-10q-123 -112 -335 -112q-115 0 -198 67.5t-83 192.5q0 154 130 247.5t483 98.5q3 24 3 55q0 123 -65.5 164t-198.5 41q-157 0 -309 -39l17 138q150 43 345 43q178 0 275 -73.5t97 -250.5q0 -47 -4.5 -170.5t-4.5 -164.5q0 -182 27 -324z M706 194q-5 152 -5 273q-188 0 -286 -28q-164 -50 -164 -191q0 -136 192 -136q165 0 263 82zM820 1340q-95 -228 -306 -228q-221 0 -308 228l100 50q72 -154 206 -154q124 0 208 154z"/>
<glyph glyph-name="aring" unicode="å" horiz-adv-x="1005" d="M883 0l-157 -6q-12 49 -12 93h-10q-123 -112 -335 -112q-115 0 -198 67.5t-83 192.5q0 154 130 247.5t483 98.5q3 24 3 55q0 123 -65.5 164t-198.5 41q-157 0 -309 -39l17 138q150 43 345 43q178 0 275 -73.5t97 -250.5q0 -47 -4.5 -170.5t-4.5 -164.5q0 -182 27 -324z M706 194q-5 152 -5 273q-188 0 -286 -28q-164 -50 -164 -191q0 -136 192 -136q165 0 263 82zM716 1287q0 -104 -69 -165t-159 -61q-82 0 -139 51.5t-57 147.5q0 103 69 163t159 60q82 0 139 -51t57 -145zM622 1279q0 57 -32 87.5t-78 30.5q-50 0 -88 -35.5t-38 -96.5 q0 -57 32 -87.5t78 -30.5q50 0 88 35.5t38 96.5z"/>
<glyph glyph-name="aringacute" unicode="ǻ" horiz-adv-x="1005" d="M883 0l-157 -6q-12 49 -12 93h-10q-123 -112 -335 -112q-115 0 -198 67.5t-83 192.5q0 154 130 247.5t483 98.5q3 24 3 55q0 123 -65.5 164t-198.5 41q-157 0 -309 -39l17 138q150 43 345 43q178 0 275 -73.5t97 -250.5q0 -47 -4.5 -170.5t-4.5 -164.5q0 -182 27 -324z M706 194q-5 152 -5 273q-188 0 -286 -28q-164 -50 -164 -191q0 -136 192 -136q165 0 263 82zM716 1268q0 -104 -69 -165t-159 -61q-82 0 -139 51.5t-57 147.5q0 103 69 163t159 60q82 0 139 -51t57 -145zM622 1260q0 57 -32 87.5t-78 30.5q-50 0 -88 -35.5t-38 -96.5 q0 -57 32 -87.5t78 -30.5q50 0 88 35.5t38 96.5zM866 1790q0 -12 -133 -135t-143 -139h-120q0 16 90 139.5t90 134.5h216z"/>
<glyph glyph-name="aogonek" unicode="ą" horiz-adv-x="1005" d="M726 -2q-12 45 -12 89h-10q-123 -112 -335 -112q-113 0 -197 68.5t-84 181.5q0 178 142.5 265.5t470.5 90.5q3 24 3 45q0 136 -64.5 175.5t-233.5 39.5q-123 0 -275 -39l17 138q150 43 334 43q183 0 283 -71t100 -253q0 -47 -4.5 -170.5t-4.5 -164.5q0 -182 27 -324 q-193 -125 -193 -234q0 -116 102 -116q40 0 86 16l28 -137q-53 -15 -136 -15q-91 0 -154.5 59t-63.5 157q0 144 174 268zM706 194q-5 152 -5 273q-188 0 -284 -28q-166 -50 -166 -191q0 -136 192 -136q165 0 263 82z"/>
<glyph glyph-name="ae" unicode="æ" horiz-adv-x="1612" d="M739 227q-46 107 -46 240q-187 0 -280 -28q-162 -50 -162 -191q0 -136 192 -136q165 0 296 115zM1346 585q0 281 -238 281q-121 0 -190.5 -78.5t-78.5 -213.5zM1513 587q0 -42 -4 -116l-676 -12q10 -143 106.5 -243t266.5 -100q152 0 287 37l-17 -141q-100 -39 -289 -39 q-265 0 -395 174h-10q-106 -97 -188 -134.5t-225 -37.5q-113 0 -197 68.5t-84 181.5q0 356 616 356v55q0 123 -65.5 164t-198.5 41q-157 0 -309 -39l17 138q150 43 334 43q241 0 323 -126h10q117 137 302 137q195 0 295.5 -114.5t100.5 -292.5z"/>
<glyph glyph-name="aeacute" unicode="ǽ" horiz-adv-x="1612" d="M739 227q-46 107 -46 240q-187 0 -280 -28q-162 -50 -162 -191q0 -136 192 -136q165 0 296 115zM1346 585q0 281 -238 281q-121 0 -190.5 -78.5t-78.5 -213.5zM1513 587q0 -42 -4 -116l-676 -12q10 -143 106.5 -243t266.5 -100q152 0 287 37l-17 -141q-100 -39 -289 -39 q-265 0 -395 174h-10q-106 -97 -188 -134.5t-225 -37.5q-113 0 -197 68.5t-84 181.5q0 356 616 356v55q0 123 -65.5 164t-198.5 41q-157 0 -309 -39l17 138q150 43 334 43q241 0 323 -126h10q117 137 302 137q195 0 295.5 -114.5t100.5 -292.5zM1156 1410q0 -12 -138 -160 t-138 -164h-120q0 16 90 164.5t90 159.5h216z"/>
<glyph glyph-name="cacute" unicode="ć" horiz-adv-x="925" d="M859 153l-10 -134q-81 -46 -217 -46q-259 0 -396 143t-137 345q0 214 144 368t381 154q119 0 194 -24l-27 -157q-105 39 -213 39q-142 0 -226 -99t-84 -248q0 -162 100 -270t283 -108q75 0 208 37zM869 1410q0 -12 -138 -160t-138 -164h-120q0 16 90 164.5t90 159.5h216z "/>
<glyph glyph-name="ccircumflex" unicode="ĉ" horiz-adv-x="925" d="M859 153l-10 -134q-81 -46 -217 -46q-259 0 -396 143t-137 345q0 214 144 368t381 154q119 0 194 -24l-27 -157q-105 39 -213 39q-142 0 -226 -99t-84 -248q0 -162 100 -270t283 -108q75 0 208 37zM834 1086h-104q0 13 -187 208q-187 -195 -187 -208h-104 q0 13 94.5 160.5t99.5 163.5h194q5 -16 99.5 -163.5t94.5 -160.5z"/>
<glyph glyph-name="ccaron" unicode="č" horiz-adv-x="925" d="M859 153l-10 -134q-81 -46 -217 -46q-259 0 -396 143t-137 345q0 214 144 368t381 154q119 0 194 -24l-27 -157q-105 39 -213 39q-142 0 -226 -99t-84 -248q0 -162 100 -270t283 -108q75 0 208 37zM873 1410q0 -13 -94.5 -160.5t-99.5 -163.5h-194q-5 16 -99.5 163.5 t-94.5 160.5h104q0 -13 187 -208q187 195 187 208h104z"/>
<glyph glyph-name="cdotaccent" unicode="ċ" horiz-adv-x="925" d="M859 153l-10 -134q-81 -46 -217 -46q-259 0 -396 143t-137 345q0 214 144 368t381 154q119 0 194 -24l-27 -157q-105 39 -213 39q-142 0 -226 -99t-84 -248q0 -162 100 -270t283 -108q75 0 208 37zM710 1250q0 -51 -33 -88.5t-93 -37.5q-51 0 -79.5 32.5t-28.5 78.5 q0 50 34 87t94 37q49 0 77.5 -32.5t28.5 -76.5z"/>
<glyph glyph-name="ccedilla" unicode="ç" horiz-adv-x="925" d="M859 153l-10 -134q-81 -46 -217 -46q-39 0 -75 4l-10 -77q196 -47 196 -192q0 -222 -240 -222l-14 92q47 0 76.5 32t29.5 76q0 113 -152 142l33 161q-150 33 -263.5 151.5t-113.5 320.5q0 209 141.5 365.5t383.5 156.5q119 0 194 -24l-27 -157q-105 39 -213 39 q-143 0 -226.5 -100t-83.5 -247q0 -162 100 -270t283 -108q75 0 208 37z"/>
<glyph glyph-name="dcaron" unicode="ď" horiz-adv-x="1278" d="M994 1l-149 -5q-8 43 -8 91h-11q-105 -114 -312 -114q-190 0 -302.5 138t-112.5 333q0 221 125 381t352 160q162 0 232 -66h8q0 248 -14 487l190 7q-19 -254 -19 -665q0 -418 21 -747zM833 198q0 311 -17 599q-81 67 -202 67q-169 0 -253 -112.5t-84 -282.5 q0 -152 79.5 -256t220.5 -104q177 0 256 89zM1312 1174q0 -85 -58.5 -175.5t-122.5 -130.5l-43 44q82 102 82 177q-112 30 -112 108q0 54 30.5 93t90.5 39q65 0 99 -43t34 -112z"/>
<glyph glyph-name="dcroat" unicode="đ" horiz-adv-x="1136" d="M994 1l-149 -5q-8 43 -8 91h-11q-105 -114 -314 -114q-189 0 -301 134.5t-112 321.5q0 211 123.5 368.5t343.5 157.5q172 0 242 -66h8q0 114 -2 207h-268l6 102h259q-3 100 -7 205l188 10q-8 -100 -13 -215h151l-6 -102h-148q-3 -163 -3 -348q0 -418 21 -747zM833 198 q0 311 -17 569q-81 67 -211 67q-165 0 -246.5 -111t-81.5 -269q0 -143 78 -244t219 -101q180 0 259 89z"/>
<glyph glyph-name="egrave" unicode="è" horiz-adv-x="1051" d="M952 587q0 -42 -4 -116l-687 -12q10 -146 113 -244.5t273 -98.5q152 0 285 37l-17 -141q-98 -39 -283 -39q-260 0 -396.5 142t-136.5 346q0 218 124.5 375.5t334.5 157.5q193 0 293.5 -114t100.5 -293zM785 585q0 281 -235 281q-240 0 -283 -292zM646 1086h-120 q0 16 -138 164t-138 160h216q0 -11 90 -159.5t90 -164.5z"/>
<glyph glyph-name="eacute" unicode="é" horiz-adv-x="1051" d="M952 587q0 -42 -4 -116l-687 -12q10 -146 113 -244.5t273 -98.5q152 0 285 37l-17 -141q-98 -39 -283 -39q-260 0 -396.5 142t-136.5 346q0 218 124.5 375.5t334.5 157.5q193 0 293.5 -114t100.5 -293zM785 585q0 281 -235 281q-240 0 -283 -292zM909 1410 q0 -12 -138 -160t-138 -164h-120q0 16 90 164.5t90 159.5h216z"/>
<glyph glyph-name="ecircumflex" unicode="ê" horiz-adv-x="1051" d="M952 587q0 -42 -4 -116l-687 -12q10 -146 113 -244.5t273 -98.5q152 0 285 37l-17 -141q-98 -39 -283 -39q-260 0 -396.5 142t-136.5 346q0 218 124.5 375.5t334.5 157.5q193 0 293.5 -114t100.5 -293zM785 585q0 281 -235 281q-240 0 -283 -292zM847 1086h-104 q0 13 -187 208q-187 -195 -187 -208h-104q0 13 94.5 160.5t99.5 163.5h194q5 -16 99.5 -163.5t94.5 -160.5z"/>
<glyph glyph-name="ecaron" unicode="ě" horiz-adv-x="1051" d="M952 587q0 -42 -4 -116l-687 -12q10 -146 113 -244.5t273 -98.5q152 0 285 37l-17 -141q-98 -39 -283 -39q-260 0 -396.5 142t-136.5 346q0 218 124.5 375.5t334.5 157.5q193 0 293.5 -114t100.5 -293zM785 585q0 281 -235 281q-240 0 -283 -292zM877 1410 q0 -13 -94.5 -160.5t-99.5 -163.5h-194q-5 16 -99.5 163.5t-94.5 160.5h104q0 -13 187 -208q187 195 187 208h104z"/>
<glyph glyph-name="edieresis" unicode="ë" horiz-adv-x="1051" d="M952 587q0 -42 -4 -116l-687 -12q10 -146 113 -244.5t273 -98.5q152 0 285 37l-17 -141q-98 -39 -283 -39q-260 0 -396.5 142t-136.5 346q0 218 124.5 375.5t334.5 157.5q193 0 293.5 -114t100.5 -293zM785 585q0 281 -235 281q-240 0 -283 -292zM475 1251 q0 -46 -30.5 -80.5t-84.5 -34.5q-45 0 -70 30t-25 72q0 44 30.5 77.5t85.5 33.5q45 0 69.5 -28.5t24.5 -69.5zM853 1251q0 -46 -30.5 -80.5t-84.5 -34.5q-45 0 -70 30t-25 72q0 44 30.5 77.5t85.5 33.5q45 0 69.5 -28.5t24.5 -69.5z"/>
<glyph glyph-name="emacron" unicode="ē" horiz-adv-x="1051" d="M952 587q0 -42 -4 -116l-687 -12q10 -146 113 -244.5t273 -98.5q152 0 285 37l-17 -141q-98 -39 -283 -39q-260 0 -396.5 142t-136.5 346q0 218 124.5 375.5t334.5 157.5q193 0 293.5 -114t100.5 -293zM785 585q0 281 -235 281q-240 0 -283 -292zM800 1310l-12 -124h-434 l11 124h435z"/>
<glyph glyph-name="ebreve" unicode="ĕ" horiz-adv-x="1051" d="M952 587q0 -42 -4 -116l-687 -12q10 -146 113 -244.5t273 -98.5q152 0 285 37l-17 -141q-98 -39 -283 -39q-260 0 -396.5 142t-136.5 346q0 218 124.5 375.5t334.5 157.5q193 0 293.5 -114t100.5 -293zM785 585q0 281 -235 281q-240 0 -283 -292zM883 1340 q-95 -228 -306 -228q-221 0 -308 228l100 50q72 -154 206 -154q124 0 208 154z"/>
<glyph glyph-name="edotaccent" unicode="ė" horiz-adv-x="1051" d="M952 587q0 -42 -4 -116l-687 -12q10 -146 113 -244.5t273 -98.5q152 0 285 37l-17 -141q-98 -39 -283 -39q-260 0 -396.5 142t-136.5 346q0 218 124.5 375.5t334.5 157.5q193 0 293.5 -114t100.5 -293zM785 585q0 281 -235 281q-240 0 -283 -292zM691 1250 q0 -51 -33 -88.5t-93 -37.5q-51 0 -79.5 32.5t-28.5 78.5q0 50 34 87t94 37q49 0 77.5 -32.5t28.5 -76.5z"/>
<glyph glyph-name="eogonek" unicode="ę" horiz-adv-x="1051" d="M952 -471q-53 -15 -136 -15q-91 0 -154.5 59t-63.5 157q0 141 154 241v10q-68 -8 -124 -8q-258 0 -393.5 143t-135.5 345q0 215 122.5 374t336.5 159q194 0 294 -114t100 -293q0 -42 -4 -116l-681 -12q10 -142 109.5 -242.5t270.5 -100.5q152 0 285 37l-17 -131 q-179 -137 -179 -256q0 -116 102 -116q40 0 86 16zM785 585q0 281 -235 281q-234 0 -277 -292z"/>
<glyph glyph-name="gcircumflex" unicode="ĝ" horiz-adv-x="1105" d="M1072 1076l-16 -138q-186 0 -205 -60v-10q64 -78 64 -178q0 -156 -102.5 -257.5t-316.5 -101.5q-95 0 -151 20q-49 -35 -49 -87q0 -64 58 -85q74 -28 309 -28q380 0 380 -252q0 -180 -148 -298t-383 -118q-241 0 -343.5 87.5t-102.5 210.5q0 112 50.5 180t125.5 84v9 q-79 38 -79 146q0 98 100 172v8q-53 26 -101 88t-48 154q0 159 105 259t304 100q163 0 256 -59h11q32 169 168 169q74 0 114 -15zM893 -169q0 94 -68.5 132.5t-257.5 38.5q-128 0 -234 12q-122 -59 -122 -173q0 -244 320 -244q167 0 264.5 65t97.5 169zM754 649 q0 110 -69.5 168.5t-176.5 58.5q-101 0 -169 -56.5t-68 -160.5q0 -109 69.5 -166t178.5 -57q100 0 167.5 55.5t67.5 157.5zM800 1086h-104q0 13 -187 208q-187 -195 -187 -208h-104q0 13 94.5 160.5t99.5 163.5h194q5 -16 99.5 -163.5t94.5 -160.5z"/>
<glyph glyph-name="gbreve" unicode="ğ" horiz-adv-x="1105" d="M1072 1076l-16 -138q-186 0 -205 -60v-10q64 -78 64 -178q0 -156 -102.5 -257.5t-316.5 -101.5q-95 0 -151 20q-49 -35 -49 -87q0 -64 58 -85q74 -28 309 -28q380 0 380 -252q0 -180 -148 -298t-383 -118q-241 0 -343.5 87.5t-102.5 210.5q0 112 50.5 180t125.5 84v9 q-79 38 -79 146q0 98 100 172v8q-53 26 -101 88t-48 154q0 159 105 259t304 100q163 0 256 -59h11q32 169 168 169q74 0 114 -15zM893 -169q0 94 -68.5 132.5t-257.5 38.5q-128 0 -234 12q-122 -59 -122 -173q0 -244 320 -244q167 0 264.5 65t97.5 169zM754 649 q0 110 -69.5 168.5t-176.5 58.5q-101 0 -169 -56.5t-68 -160.5q0 -109 69.5 -166t178.5 -57q100 0 167.5 55.5t67.5 157.5zM842 1340q-95 -228 -306 -228q-221 0 -308 228l100 50q72 -154 206 -154q124 0 208 154z"/>
<glyph glyph-name="gdotaccent" unicode="ġ" horiz-adv-x="1105" d="M1072 1076l-16 -138q-186 0 -205 -60v-10q64 -78 64 -178q0 -156 -102.5 -257.5t-316.5 -101.5q-95 0 -151 20q-49 -35 -49 -87q0 -64 58 -85q74 -28 309 -28q380 0 380 -252q0 -180 -148 -298t-383 -118q-241 0 -343.5 87.5t-102.5 210.5q0 112 50.5 180t125.5 84v9 q-79 38 -79 146q0 98 100 172v8q-53 26 -101 88t-48 154q0 159 105 259t304 100q163 0 256 -59h11q32 169 168 169q74 0 114 -15zM893 -169q0 94 -68.5 132.5t-257.5 38.5q-128 0 -234 12q-122 -59 -122 -173q0 -244 320 -244q167 0 264.5 65t97.5 169zM754 649 q0 110 -69.5 168.5t-176.5 58.5q-101 0 -169 -56.5t-68 -160.5q0 -109 69.5 -166t178.5 -57q100 0 167.5 55.5t67.5 157.5zM653 1250q0 -51 -33 -88.5t-93 -37.5q-51 0 -79.5 32.5t-28.5 78.5q0 50 34 87t94 37q49 0 77.5 -32.5t28.5 -76.5z"/>
<glyph glyph-name="gcommaaccent" unicode="ģ" horiz-adv-x="1105" d="M1072 1076l-16 -138q-186 0 -205 -60v-10q64 -78 64 -178q0 -156 -102.5 -257.5t-316.5 -101.5q-95 0 -151 20q-49 -35 -49 -87q0 -64 58 -85q74 -28 309 -28q380 0 380 -252q0 -180 -148 -298t-383 -118q-241 0 -343.5 87.5t-102.5 210.5q0 112 50.5 180t125.5 84v9 q-79 38 -79 146q0 98 100 172v8q-53 26 -101 88t-48 154q0 159 105 259t304 100q163 0 256 -59h11q32 169 168 169q74 0 114 -15zM893 -169q0 94 -68.5 132.5t-257.5 38.5q-128 0 -234 12q-122 -59 -122 -173q0 -244 320 -244q167 0 264.5 65t97.5 169zM754 649 q0 110 -69.5 168.5t-176.5 58.5q-101 0 -169 -56.5t-68 -160.5q0 -109 69.5 -166t178.5 -57q100 0 167.5 55.5t67.5 157.5zM663 1254q0 -59 -32.5 -94.5t-87.5 -35.5q-61 0 -90.5 38.5t-29.5 112.5q0 77 53 159.5t111 118.5l39 -40q-64 -93 -64 -151q101 -29 101 -108z"/>
<glyph glyph-name="hcircumflex" unicode="ĥ" horiz-adv-x="1109" d="M979 0h-182q22 263 22 566q0 162 -60.5 218.5t-167.5 56.5q-150 0 -281 -103q0 -546 8 -738h-176q9 264 9 746q0 422 -29 661l190 10q-8 -305 -8 -566h6q150 132 329 132q160 0 250 -74.5t90 -261.5q0 -19 -2 -74.5t-2 -97.5q0 -144 4 -475zM509 1416h-114 q-10 13 -177 158q-167 -145 -177 -158h-114q0 13 94.5 135.5t99.5 138.5h194q5 -16 99.5 -138.5t94.5 -135.5z"/>
<glyph glyph-name="hbar" unicode="ħ" horiz-adv-x="1109" d="M977 623q0 -19 -2 -62.5t-2 -127.5q0 -102 4 -433h-177q22 263 22 544q0 154 -62.5 210.5t-178.5 56.5q-142 0 -273 -103q0 -516 8 -708h-176q9 264 9 746q0 125 -9 350h-140l6 102h130q-7 102 -16 209l190 10q-7 -97 -7 -219h331l-6 -102h-327q-2 -165 0 -275h6 q157 132 317 132q169 0 261 -72.5t92 -257.5z"/>
<glyph glyph-name="igrave" unicode="ì" horiz-adv-x="446" d="M313 0h-181q14 200 14 457q0 289 -35 485l200 27q-12 -209 -12 -512q0 -240 14 -457zM308 1086h-120q0 16 -138 164t-138 160h216q0 -11 90 -159.5t90 -164.5z"/>
<glyph glyph-name="iacute" unicode="í" horiz-adv-x="446" d="M313 0h-181q14 200 14 457q0 289 -35 485l200 27q-12 -209 -12 -512q0 -240 14 -457zM527 1410q0 -12 -138 -160t-138 -164h-120q0 16 90 164.5t90 159.5h216z"/>
<glyph glyph-name="icircumflex" unicode="î" horiz-adv-x="446" d="M313 0h-181q14 200 14 457q0 289 -35 485l200 27q-12 -209 -12 -512q0 -240 14 -457zM515 1086h-104q0 13 -187 208q-187 -195 -187 -208h-104q0 13 94.5 160.5t99.5 163.5h194q5 -16 99.5 -163.5t94.5 -160.5z"/>
<glyph glyph-name="itilde" unicode="ĩ" horiz-adv-x="446" d="M313 0h-181q14 200 14 457q0 289 -35 485l200 27q-12 -209 -12 -512q0 -240 14 -457zM591 1366q-110 -221 -250 -221q-51 0 -128.5 24t-125.5 24q-88 0 -172 -120l-62 50q110 221 250 221q51 0 128.5 -24t125.5 -24q88 0 172 120z"/>
<glyph glyph-name="idieresis" unicode="ï" horiz-adv-x="446" d="M313 0h-181q14 200 14 457q0 289 -35 485l200 27q-12 -209 -12 -512q0 -240 14 -457zM135 1251q0 -46 -30.5 -80.5t-84.5 -34.5q-45 0 -70 30t-25 72q0 44 30.5 77.5t85.5 33.5q45 0 69.5 -28.5t24.5 -69.5zM513 1251q0 -46 -30.5 -80.5t-84.5 -34.5q-45 0 -70 30t-25 72 q0 44 30.5 77.5t85.5 33.5q45 0 69.5 -28.5t24.5 -69.5z"/>
<glyph glyph-name="imacron" unicode="ī" horiz-adv-x="446" d="M313 0h-181q14 200 14 457q0 289 -35 485l200 27q-12 -209 -12 -512q0 -240 14 -457zM444 1310l-12 -124h-434l11 124h435z"/>
<glyph glyph-name="ibreve" unicode="ĭ" horiz-adv-x="446" d="M313 0h-181q14 200 14 457q0 289 -35 485l200 27q-12 -209 -12 -512q0 -240 14 -457zM532 1340q-95 -228 -306 -228q-221 0 -308 228l100 50q72 -154 206 -154q124 0 208 154z"/>
<glyph glyph-name="iogonek" unicode="į" horiz-adv-x="446" d="M335 -471q-53 -15 -136 -15q-91 0 -153 57q-65 61 -65 159q0 134 150 270q14 200 14 457q0 289 -35 485l200 27q-12 -209 -12 -512q0 -240 14 -457q-193 -115 -193 -244q0 -106 102 -106q40 0 86 16zM354 1250q0 -51 -33 -88.5t-93 -37.5q-51 0 -79.5 32.5t-28.5 78.5 q0 50 34 87t94 37q106 0 106 -109z"/>
<glyph glyph-name="dotlessi" unicode="ı" horiz-adv-x="446" d="M313 0h-181q14 200 14 457q0 289 -35 485l200 27q-12 -209 -12 -512q0 -240 14 -457z"/>
<glyph glyph-name="ij" unicode="ĳ" horiz-adv-x="892" d="M313 0h-181q14 200 14 457q0 289 -35 485l200 27q-12 -209 -12 -512q0 -240 14 -457zM355 1250q0 -51 -33 -88.5t-93 -37.5q-51 0 -79.5 32.5t-28.5 78.5q0 50 34 87t94 37q49 0 77.5 -32.5t28.5 -76.5zM758 971q-17 -310 -17 -622q0 -83 5.5 -219.5t5.5 -185.5 q0 -323 -246 -392l-50 76q89 75 110 160q31 122 31 520q0 427 -40 638zM801 1250q0 -51 -33 -88.5t-93 -37.5q-51 0 -79.5 32.5t-28.5 78.5q0 50 34 87t94 37q49 0 77.5 -32.5t28.5 -76.5z"/>
<glyph glyph-name="jcircumflex" unicode="ĵ" horiz-adv-x="446" d="M312 971q-17 -310 -17 -622q0 -83 5.5 -219.5t5.5 -185.5q0 -323 -246 -392l-50 76q89 75 110 160q31 122 31 520q0 427 -40 638zM510 1086h-104q0 13 -187 208q-187 -195 -187 -208h-104q0 13 94.5 160.5t99.5 163.5h194q5 -16 99.5 -163.5t94.5 -160.5z"/>
<glyph glyph-name="kcommaaccent" unicode="ķ" horiz-adv-x="1000" d="M989 0h-235q0 35 -194 267q-199 239 -250 239h-7q0 -214 11 -506h-176q13 366 13 746q0 387 -29 661l192 10q-11 -216 -11 -839h7q33 0 207.5 168.5t174.5 203.5h221q0 -32 -157 -166q-147 -125 -269 -206v-8q124 -94 319 -322q183 -215 183 -248zM630 -248 q0 -77 -53 -159.5t-111 -118.5l-39 40q74 93 74 161q-101 27 -101 98q0 49 27.5 84.5t82.5 35.5q59 0 89.5 -39t30.5 -102z"/>
<glyph glyph-name="kgreenlandic" unicode="ĸ" horiz-adv-x="1000" d="M978 0h-235q0 35 -194 267q-199 239 -250 239h-7q0 -214 11 -506h-176q13 246 13 528q0 174 -29 423l192 10q-11 -216 -11 -383h7q33 0 207.5 168.5t174.5 203.5h221q0 -32 -157 -166q-147 -125 -269 -206v-8q124 -94 319 -322q183 -215 183 -248z"/>
<glyph glyph-name="lacute" unicode="ĺ" horiz-adv-x="469" d="M325 0h-192q18 330 18 746q0 404 -29 661l203 10q-19 -272 -19 -671q0 -411 19 -746zM520 1790q0 -12 -133 -135t-143 -139h-120q0 16 90 139.5t90 134.5h216z"/>
<glyph glyph-name="lcaron" unicode="ľ" horiz-adv-x="616" d="M325 0h-192q18 330 18 746q0 404 -29 661l203 10q-19 -272 -19 -671q0 -411 19 -746zM650 1174q0 -85 -58.5 -175.5t-122.5 -130.5l-43 44q82 102 82 177q-112 30 -112 108q0 54 30.5 93t90.5 39q65 0 99 -43t34 -112z"/>
<glyph glyph-name="lcommaaccent" unicode="ļ" horiz-adv-x="496" d="M341 0h-192q18 330 18 746q0 404 -29 661l203 10q-19 -272 -19 -671q0 -411 19 -746zM352 -248q0 -77 -53 -159.5t-111 -118.5l-39 40q74 93 74 161q-101 27 -101 98q0 49 27.5 84.5t82.5 35.5q59 0 89.5 -39t30.5 -102z"/>
<glyph glyph-name="lslash" unicode="ł" horiz-adv-x="580" d="M646 893l-281 -201q0 -313 16 -692h-192q7 139 19 568l-172 -155l-80 95l254 201q0 494 -31 698l202 10q-7 -139 -18 -580l178 159z"/>
<glyph glyph-name="ldot" unicode="ŀ" horiz-adv-x="682" d="M325 0h-192q18 330 18 746q0 404 -29 661l203 10q-19 -272 -19 -671q0 -411 19 -746zM682 610q0 -51 -33 -88.5t-93 -37.5q-51 0 -79.5 32.5t-28.5 78.5q0 50 34 87t94 37q49 0 77.5 -32.5t28.5 -76.5z"/>
<glyph glyph-name="nacute" unicode="ń" horiz-adv-x="1109" d="M979 0h-182q22 263 22 574q0 154 -62.5 210.5t-178.5 56.5q-142 0 -262 -103q0 -341 4 -738h-182q17 340 17 492q0 234 -44 454l176 25l19 -122h8q148 134 317 134q166 0 257 -73.5t91 -261.5q0 -19 -2 -75t-2 -75q0 -167 4 -498zM916 1410q0 -12 -138 -160t-138 -164 h-120q0 16 90 164.5t90 159.5h216z"/>
<glyph glyph-name="ncaron" unicode="ň" horiz-adv-x="1109" d="M979 0h-182q22 263 22 574q0 154 -62.5 210.5t-178.5 56.5q-142 0 -262 -103q0 -341 4 -738h-182q17 340 17 492q0 234 -44 454l176 25l19 -122h8q148 134 317 134q166 0 257 -73.5t91 -261.5q0 -19 -2 -75t-2 -75q0 -167 4 -498zM903 1410q0 -13 -94.5 -160.5 t-99.5 -163.5h-194q-5 16 -99.5 163.5t-94.5 160.5h104q0 -13 187 -208q187 195 187 208h104z"/>
<glyph glyph-name="ntilde" unicode="ñ" horiz-adv-x="1109" d="M979 0h-182q22 263 22 574q0 154 -62.5 210.5t-178.5 56.5q-142 0 -262 -103q0 -341 4 -738h-182q17 340 17 492q0 234 -44 454l176 25l19 -122h8q148 134 317 134q166 0 257 -73.5t91 -261.5q0 -19 -2 -75t-2 -75q0 -167 4 -498zM952 1366q-110 -221 -250 -221 q-51 0 -128.5 24t-125.5 24q-88 0 -172 -120l-62 50q110 221 250 221q51 0 128.5 -24t125.5 -24q88 0 172 120z"/>
<glyph glyph-name="ncommaaccent" unicode="ņ" horiz-adv-x="1109" d="M979 0h-182q22 263 22 574q0 154 -62.5 210.5t-178.5 56.5q-142 0 -262 -103q0 -341 4 -738h-182q17 340 17 492q0 234 -44 454l176 25l19 -122h8q148 134 317 134q166 0 257 -73.5t91 -261.5q0 -19 -2 -75t-2 -75q0 -167 4 -498zM672 -248q0 -77 -53 -159.5t-111 -118.5 l-39 40q74 93 74 161q-101 27 -101 98q0 49 27.5 84.5t82.5 35.5q59 0 89.5 -39t30.5 -102z"/>
<glyph glyph-name="napostrophe" unicode="ŉ" horiz-adv-x="1291" d="M1161 0h-182q22 263 22 574q0 154 -62.5 210.5t-178.5 56.5q-142 0 -262 -103q0 -341 4 -738h-182q17 340 17 492q0 234 -44 454l176 25l19 -122h8q148 134 317 134q166 0 257 -73.5t91 -261.5q0 -19 -2 -75t-2 -75q0 -167 4 -498zM332 1275q0 -133 -69 -249.5 t-211 -240.5l-60 66q152 170 152 314q-86 34 -86 126q0 58 36 101.5t107 43.5q58 0 94.5 -47t36.5 -114zM201 1159z"/>
<glyph glyph-name="ograve" unicode="ò" horiz-adv-x="1144" d="M1045 504q0 -256 -147 -399.5t-346 -143.5q-186 0 -319.5 127t-133.5 358q0 258 147.5 403t346.5 145q186 0 319 -128.5t133 -361.5zM872 469q0 156 -78.5 277.5t-223.5 121.5q-144 0 -221.5 -115t-77.5 -267q0 -157 78.5 -278t224.5 -121q144 0 221 115.5t77 266.5z M676 1086h-120q0 16 -138 164t-138 160h216q0 -11 90 -159.5t90 -164.5z"/>
<glyph glyph-name="oacute" unicode="ó" horiz-adv-x="1144" d="M1045 504q0 -256 -147 -399.5t-346 -143.5q-186 0 -319.5 127t-133.5 358q0 258 147.5 403t346.5 145q186 0 319 -128.5t133 -361.5zM872 469q0 156 -78.5 277.5t-223.5 121.5q-144 0 -221.5 -115t-77.5 -267q0 -157 78.5 -278t224.5 -121q144 0 221 115.5t77 266.5z M940 1410q0 -12 -138 -160t-138 -164h-120q0 16 90 164.5t90 159.5h216z"/>
<glyph glyph-name="ocircumflex" unicode="ô" horiz-adv-x="1144" d="M1045 504q0 -256 -147 -399.5t-346 -143.5q-186 0 -319.5 127t-133.5 358q0 258 147.5 403t346.5 145q186 0 319 -128.5t133 -361.5zM872 469q0 156 -78.5 277.5t-223.5 121.5q-144 0 -221.5 -115t-77.5 -267q0 -157 78.5 -278t224.5 -121q144 0 221 115.5t77 266.5z M882 1086h-104q0 13 -187 208q-187 -195 -187 -208h-104q0 13 94.5 160.5t99.5 163.5h194q5 -16 99.5 -163.5t94.5 -160.5z"/>
<glyph glyph-name="otilde" unicode="õ" horiz-adv-x="1144" d="M1045 504q0 -256 -147 -399.5t-346 -143.5q-186 0 -319.5 127t-133.5 358q0 258 147.5 403t346.5 145q186 0 319 -128.5t133 -361.5zM872 469q0 156 -78.5 277.5t-223.5 121.5q-144 0 -221.5 -115t-77.5 -267q0 -157 78.5 -278t224.5 -121q144 0 221 115.5t77 266.5z M990 1366q-110 -221 -250 -221q-51 0 -128.5 24t-125.5 24q-88 0 -172 -120l-62 50q110 221 250 221q51 0 128.5 -24t125.5 -24q88 0 172 120z"/>
<glyph glyph-name="odieresis" unicode="ö" horiz-adv-x="1144" d="M1045 504q0 -256 -147 -399.5t-346 -143.5q-186 0 -319.5 127t-133.5 358q0 258 147.5 403t346.5 145q186 0 319 -128.5t133 -361.5zM872 469q0 156 -78.5 277.5t-223.5 121.5q-144 0 -221.5 -115t-77.5 -267q0 -157 78.5 -278t224.5 -121q144 0 221 115.5t77 266.5z M515 1251q0 -46 -30.5 -80.5t-84.5 -34.5q-45 0 -70 30t-25 72q0 44 30.5 77.5t85.5 33.5q45 0 69.5 -28.5t24.5 -69.5zM893 1251q0 -46 -30.5 -80.5t-84.5 -34.5q-45 0 -70 30t-25 72q0 44 30.5 77.5t85.5 33.5q45 0 69.5 -28.5t24.5 -69.5z"/>
<glyph glyph-name="omacron" unicode="ō" horiz-adv-x="1144" d="M1045 504q0 -256 -147 -399.5t-346 -143.5q-186 0 -319.5 127t-133.5 358q0 258 147.5 403t346.5 145q186 0 319 -128.5t133 -361.5zM872 469q0 156 -78.5 277.5t-223.5 121.5q-144 0 -221.5 -115t-77.5 -267q0 -157 78.5 -278t224.5 -121q144 0 221 115.5t77 266.5z M824 1310l-12 -124h-434l11 124h435z"/>
<glyph glyph-name="obreve" unicode="ŏ" horiz-adv-x="1144" d="M1045 504q0 -256 -147 -399.5t-346 -143.5q-186 0 -319.5 127t-133.5 358q0 258 147.5 403t346.5 145q186 0 319 -128.5t133 -361.5zM872 469q0 156 -78.5 277.5t-223.5 121.5q-144 0 -221.5 -115t-77.5 -267q0 -157 78.5 -278t224.5 -121q144 0 221 115.5t77 266.5z M898 1340q-95 -228 -306 -228q-221 0 -308 228l100 50q72 -154 206 -154q124 0 208 154z"/>
<glyph glyph-name="ohungarumlaut" unicode="ő" horiz-adv-x="1144" d="M1045 504q0 -256 -147 -399.5t-346 -143.5q-186 0 -319.5 127t-133.5 358q0 258 147.5 403t346.5 145q186 0 319 -128.5t133 -361.5zM872 469q0 156 -78.5 277.5t-223.5 121.5q-144 0 -221.5 -115t-77.5 -267q0 -157 78.5 -278t224.5 -121q144 0 221 115.5t77 266.5z M630 1410q0 -22 -92 -165t-92 -159h-94q0 16 35 159.5t35 164.5h208zM990 1410q0 -22 -92 -165t-92 -159h-94q0 16 35 159.5t35 164.5h208z"/>
<glyph glyph-name="oslash" unicode="ø" horiz-adv-x="1144" d="M1093 981q0 -32 -129 -179q81 -122 81 -298q0 -256 -147 -399.5t-346 -143.5q-163 0 -283 95q-131 -147 -131 -170l-88 31q0 38 149 208q-100 127 -100 321q0 258 147.5 403t346.5 145q184 0 309 -118q100 112 100 136zM788 751q-84 117 -218 117q-142 0 -221 -113.5 t-79 -268.5q0 -126 50 -228zM872 469q0 101 -35 191l-461 -486q79 -87 198 -87q139 0 218.5 115.5t79.5 266.5z"/>
<glyph glyph-name="oslashacute" unicode="ǿ" horiz-adv-x="1144" d="M1093 981q0 -32 -129 -179q81 -122 81 -298q0 -256 -147 -399.5t-346 -143.5q-163 0 -283 95q-131 -147 -131 -170l-88 31q0 38 149 208q-100 127 -100 321q0 258 147.5 403t346.5 145q184 0 309 -118q100 112 100 136zM788 751q-84 117 -218 117q-142 0 -221 -113.5 t-79 -268.5q0 -126 50 -228zM872 469q0 101 -35 191l-461 -486q79 -87 198 -87q139 0 218.5 115.5t79.5 266.5zM931 1410q0 -12 -138 -160t-138 -164h-120q0 16 90 164.5t90 159.5h216z"/>
<glyph glyph-name="oe" unicode="œ" horiz-adv-x="1766" d="M1667 587q0 -21 -1 -50t-3 -66l-656 -12q6 -78 34 -141.5t75 -108t111.5 -69t142.5 -24.5q154 0 277 37l-17 -141q-90 -39 -279 -39q-275 0 -419 194h-11q-119 -206 -380 -206q-97 0 -178 34.5t-139.5 98t-91.5 153t-33 199.5q0 123 36.5 224t101 173t153.5 111.5 t193 39.5q252 0 349 -186h10q116 186 339 186q92 0 163.5 -28t121 -80.5t75.5 -128t26 -170.5zM864 469q0 83 -22.5 155.5t-63 126.5t-96.5 85.5t-122 31.5t-119 -29.5t-91 -81t-58.5 -121t-20.5 -150.5q0 -84 21 -156.5t59.5 -126.5t92.5 -85t120 -31t121 29.5t95 81.5 t62 121.5t22 149.5zM1500 585q0 281 -227 281q-241 0 -260 -292z"/>
<glyph glyph-name="racute" unicode="ŕ" horiz-adv-x="726" d="M736 950l-45 -159q-78 31 -145 31q-188 0 -244 -179q0 -460 6 -643h-177q16 317 16 492q0 237 -47 454l175 25q19 -110 19 -147h8q108 159 252 159q76 0 182 -33zM682 1410q0 -12 -138 -160t-138 -164h-120q0 16 90 164.5t90 159.5h216z"/>
<glyph glyph-name="rcaron" unicode="ř" horiz-adv-x="726" d="M736 950l-45 -159q-78 31 -145 31q-188 0 -244 -179q0 -460 6 -643h-177q16 317 16 492q0 237 -47 454l175 25q19 -110 19 -147h8q108 159 252 159q76 0 182 -33zM739 1410q0 -13 -94.5 -160.5t-99.5 -163.5h-194q-5 16 -99.5 163.5t-94.5 160.5h104q0 -13 187 -208 q187 195 187 208h104z"/>
<glyph glyph-name="rcommaaccent" unicode="ŗ" horiz-adv-x="726" d="M736 950l-45 -159q-78 31 -145 31q-188 0 -244 -179q0 -460 6 -643h-177q16 317 16 492q0 237 -47 454l175 25q19 -110 19 -147h8q108 159 252 159q76 0 182 -33zM330 -248q0 -77 -53 -159.5t-111 -118.5l-39 40q74 93 74 161q-101 27 -101 98q0 49 27.5 84.5t82.5 35.5 q59 0 89.5 -39t30.5 -102z"/>
<glyph glyph-name="sacute" unicode="ś" horiz-adv-x="858" d="M767 271q0 -292 -373 -292q-165 0 -308 33l31 147q130 -50 282 -50q218 0 218 124q0 60 -48.5 95.5t-160.5 79.5q-142 56 -206 108q-94 77 -94 186q0 114 86 195.5t262 81.5q172 0 276 -29l-31 -144q-108 43 -250 43q-192 0 -192 -111q0 -56 43 -90.5t168 -83.5 q135 -53 200 -104q97 -79 97 -189zM806 1410q0 -12 -138 -160t-138 -164h-120q0 16 90 164.5t90 159.5h216z"/>
<glyph glyph-name="scircumflex" unicode="ŝ" horiz-adv-x="858" d="M767 271q0 -292 -373 -292q-165 0 -308 33l31 147q130 -50 282 -50q218 0 218 124q0 60 -48.5 95.5t-160.5 79.5q-142 56 -206 108q-94 77 -94 186q0 114 86 195.5t262 81.5q172 0 276 -29l-31 -144q-108 43 -250 43q-192 0 -192 -111q0 -56 43 -90.5t168 -83.5 q135 -53 200 -104q97 -79 97 -189zM732 1086h-104q0 13 -187 208q-187 -195 -187 -208h-104q0 13 94.5 160.5t99.5 163.5h194q5 -16 99.5 -163.5t94.5 -160.5z"/>
<glyph glyph-name="scaron" unicode="š" horiz-adv-x="858" d="M767 271q0 -292 -373 -292q-165 0 -308 33l31 147q130 -50 282 -50q218 0 218 124q0 60 -48.5 95.5t-160.5 79.5q-142 56 -206 108q-94 77 -94 186q0 114 86 195.5t262 81.5q172 0 276 -29l-31 -144q-108 43 -250 43q-192 0 -192 -111q0 -56 43 -90.5t168 -83.5 q135 -53 200 -104q97 -79 97 -189zM743 1410q0 -13 -94.5 -160.5t-99.5 -163.5h-194q-5 16 -99.5 163.5t-94.5 160.5h104q0 -13 187 -208q187 195 187 208h104z"/>
<glyph glyph-name="scedilla" unicode="ş" horiz-adv-x="858" d="M767 271q0 -278 -338 -291l-9 -80q196 -47 196 -192q0 -222 -240 -222l-14 92q47 0 76.5 32t29.5 76q0 113 -152 142l31 152q-139 4 -261 32l31 147q130 -50 282 -50q218 0 218 124q0 60 -48.5 95.5t-160.5 79.5q-142 56 -206 108q-94 77 -94 186q0 114 86 195.5 t262 81.5q172 0 276 -29l-31 -144q-108 43 -250 43q-192 0 -192 -111q0 -56 43 -90.5t168 -83.5q135 -53 200 -104q97 -79 97 -189z"/>
<glyph glyph-name="scommaaccent" unicode="ș" horiz-adv-x="858" d="M767 271q0 -292 -373 -292q-165 0 -308 33l31 147q130 -50 282 -50q218 0 218 124q0 60 -48.5 95.5t-160.5 79.5q-142 56 -206 108q-94 77 -94 186q0 114 86 195.5t262 81.5q172 0 276 -29l-31 -144q-108 43 -250 43q-192 0 -192 -111q0 -56 43 -90.5t168 -83.5 q135 -53 200 -104q97 -79 97 -189zM506 -248q0 -77 -53 -159.5t-111 -118.5l-39 40q74 93 74 161q-101 27 -101 98q0 49 27.5 84.5t82.5 35.5q59 0 89.5 -39t30.5 -102z"/>
<glyph glyph-name="germandbls" unicode="ß" horiz-adv-x="1103" d="M1023 244q0 -132 -112 -204q-96 -61 -239 -61q-125 0 -209 23l27 128q89 -31 194 -31q188 0 188 116q0 81 -159 211q-95 78 -133 126q-55 70 -55 144q0 96 68 185l126 137q68 76 68 141q0 145 -208 145q-283 0 -283 -385q0 -439 10 -919h-173q6 423 6 897 q0 270 133.5 404.5t337.5 134.5q144 0 233 -68t89 -180q0 -86 -65 -168l-122 -130q-65 -74 -65 -138q0 -54 44 -104q26 -30 114 -98.5t126 -121.5q59 -82 59 -184z"/>
<glyph glyph-name="longs" unicode="ſ" horiz-adv-x="566" d="M606 1419l-29 -132q-60 15 -120 15q-93 0 -125 -73.5t-32 -298.5q0 -588 12 -930h-179q14 333 14 930q0 263 73 384.5t247 121.5q61 0 139 -17z"/>
<glyph glyph-name="tcaron" unicode="ť" horiz-adv-x="913" d="M680 138l-12 -130q-79 -29 -149 -29q-180 0 -246 91.5t-66 327.5q0 153 2 399q-56 0 -165 -6l6 145q95 -6 170 -6q0 60 10 285l157 16q-17 -210 -17 -301q98 0 288 10l-7 -149q-180 6 -289 6q-2 -151 -2 -340q0 -206 43.5 -272.5t161.5 -66.5q39 0 115 20zM947 1174 q0 -85 -58.5 -175.5t-122.5 -130.5l-43 44q82 102 82 177q-112 30 -112 108q0 54 30.5 93t90.5 39q65 0 99 -43t34 -112z"/>
<glyph glyph-name="tcommaaccent" unicode="ţ" horiz-adv-x="735" d="M680 138l-12 -130q-79 -29 -149 -29q-180 0 -246 91.5t-66 327.5q0 153 2 399q-56 0 -165 -6l6 145q95 -6 170 -6q0 60 10 285l157 16q-17 -210 -17 -301q98 0 288 10l-7 -149q-180 6 -289 6q-2 -151 -2 -340q0 -206 43.5 -272.5t161.5 -66.5q39 0 115 20zM536 -248 q0 -77 -53 -159.5t-111 -118.5l-39 40q74 93 74 161q-101 27 -101 98q0 49 27.5 84.5t82.5 35.5q59 0 89.5 -39t30.5 -102z"/>
<glyph glyph-name="tcommaaccent" unicode="ț" horiz-adv-x="735" d="M680 138l-12 -130q-79 -29 -149 -29q-180 0 -246 91.5t-66 327.5q0 153 2 399q-56 0 -165 -6l6 145q95 -6 170 -6q0 60 10 285l157 16q-17 -210 -17 -301q98 0 288 10l-7 -149q-180 6 -289 6q-2 -151 -2 -340q0 -206 43.5 -272.5t161.5 -66.5q39 0 115 20zM536 -248 q0 -77 -53 -159.5t-111 -118.5l-39 40q74 93 74 161q-101 27 -101 98q0 49 27.5 84.5t82.5 35.5q59 0 89.5 -39t30.5 -102z"/>
<glyph glyph-name="tbar" unicode="ŧ" horiz-adv-x="735" d="M680 138l-12 -130q-79 -29 -145 -29q-163 0 -239.5 78t-76.5 331v74h-159l6 102h153q1 104 2 233q-56 0 -165 -6l6 145q95 -6 170 -6q0 60 10 285l157 16q-17 -210 -17 -301q98 0 288 10l-7 -149q-180 6 -289 6q-2 -107 -2 -233h272l-6 -102h-266v-5q0 -206 43.5 -272.5 t161.5 -66.5q39 0 115 20z"/>
<glyph glyph-name="ugrave" unicode="ù" horiz-adv-x="1097" d="M975 1l-155 -6q-14 56 -14 92h-10q-133 -112 -323 -112q-173 0 -251.5 83.5t-78.5 336.5q0 36 2 107t2 97q0 147 -17 346l186 7q-12 -193 -12 -330q0 -315 40.5 -410.5t182.5 -95.5q160 0 264 80q0 556 -10 749l180 7q-8 -188 -8 -520q0 -213 22 -431zM642 1086h-120 q0 16 -138 164t-138 160h216q0 -11 90 -159.5t90 -164.5z"/>
<glyph glyph-name="uacute" unicode="ú" horiz-adv-x="1097" d="M975 1l-155 -6q-14 56 -14 92h-10q-133 -112 -323 -112q-173 0 -251.5 83.5t-78.5 336.5q0 36 2 107t2 97q0 147 -17 346l186 7q-12 -193 -12 -330q0 -315 40.5 -410.5t182.5 -95.5q160 0 264 80q0 556 -10 749l180 7q-8 -188 -8 -520q0 -213 22 -431zM874 1410 q0 -12 -138 -160t-138 -164h-120q0 16 90 164.5t90 159.5h216z"/>
<glyph glyph-name="ucircumflex" unicode="û" horiz-adv-x="1097" d="M975 1l-155 -6q-14 56 -14 92h-10q-133 -112 -323 -112q-173 0 -251.5 83.5t-78.5 336.5q0 36 2 107t2 97q0 147 -17 346l186 7q-12 -193 -12 -330q0 -315 40.5 -410.5t182.5 -95.5q160 0 264 80q0 556 -10 749l180 7q-8 -188 -8 -520q0 -213 22 -431zM853 1086h-104 q0 13 -187 208q-187 -195 -187 -208h-104q0 13 94.5 160.5t99.5 163.5h194q5 -16 99.5 -163.5t94.5 -160.5z"/>
<glyph glyph-name="utilde" unicode="ũ" horiz-adv-x="1097" d="M975 1l-155 -6q-14 56 -14 92h-10q-133 -112 -323 -112q-173 0 -251.5 83.5t-78.5 336.5q0 36 2 107t2 97q0 147 -17 346l186 7q-12 -193 -12 -330q0 -315 40.5 -410.5t182.5 -95.5q160 0 264 80q0 556 -10 749l180 7q-8 -188 -8 -520q0 -213 22 -431zM963 1366 q-110 -221 -250 -221q-51 0 -128.5 24t-125.5 24q-88 0 -172 -120l-62 50q110 221 250 221q51 0 128.5 -24t125.5 -24q88 0 172 120z"/>
<glyph glyph-name="udieresis" unicode="ü" horiz-adv-x="1097" d="M975 1l-155 -6q-14 56 -14 92h-10q-133 -112 -323 -112q-173 0 -251.5 83.5t-78.5 336.5q0 36 2 107t2 97q0 147 -17 346l186 7q-12 -193 -12 -330q0 -315 40.5 -410.5t182.5 -95.5q160 0 264 80q0 556 -10 749l180 7q-8 -188 -8 -520q0 -213 22 -431zM471 1251 q0 -46 -30.5 -80.5t-84.5 -34.5q-45 0 -70 30t-25 72q0 44 30.5 77.5t85.5 33.5q45 0 69.5 -28.5t24.5 -69.5zM849 1251q0 -46 -30.5 -80.5t-84.5 -34.5q-45 0 -70 30t-25 72q0 44 30.5 77.5t85.5 33.5q45 0 69.5 -28.5t24.5 -69.5z"/>
<glyph glyph-name="umacron" unicode="ū" horiz-adv-x="1097" d="M975 1l-155 -6q-14 56 -14 92h-10q-133 -112 -323 -112q-173 0 -251.5 83.5t-78.5 336.5q0 36 2 107t2 97q0 147 -17 346l186 7q-12 -193 -12 -330q0 -315 40.5 -410.5t182.5 -95.5q160 0 264 80q0 556 -10 749l180 7q-8 -188 -8 -520q0 -213 22 -431zM792 1310l-12 -124 h-434l11 124h435z"/>
<glyph glyph-name="ubreve" unicode="ŭ" horiz-adv-x="1097" d="M975 1l-155 -6q-14 56 -14 92h-10q-133 -112 -323 -112q-173 0 -251.5 83.5t-78.5 336.5q0 36 2 107t2 97q0 147 -17 346l186 7q-12 -193 -12 -330q0 -315 40.5 -410.5t182.5 -95.5q160 0 264 80q0 556 -10 749l180 7q-8 -188 -8 -520q0 -213 22 -431zM860 1340 q-95 -228 -306 -228q-221 0 -308 228l100 50q72 -154 206 -154q124 0 208 154z"/>
<glyph glyph-name="uring" unicode="ů" horiz-adv-x="1097" d="M975 1l-155 -6q-14 56 -14 92h-10q-133 -112 -323 -112q-173 0 -251.5 83.5t-78.5 336.5q0 36 2 107t2 97q0 147 -17 346l186 7q-12 -193 -12 -330q0 -315 40.5 -410.5t182.5 -95.5q160 0 264 80q0 556 -10 749l180 7q-8 -188 -8 -520q0 -213 22 -431zM771 1287 q0 -104 -69 -165t-159 -61q-82 0 -139 51.5t-57 147.5q0 103 69 163t159 60q82 0 139 -51t57 -145zM677 1279q0 57 -32 87.5t-78 30.5q-50 0 -88 -35.5t-38 -96.5q0 -57 32 -87.5t78 -30.5q50 0 88 35.5t38 96.5z"/>
<glyph glyph-name="uhungarumlaut" unicode="ű" horiz-adv-x="1097" d="M975 1l-155 -6q-14 56 -14 92h-10q-133 -112 -323 -112q-173 0 -251.5 83.5t-78.5 336.5q0 36 2 107t2 97q0 147 -17 346l186 7q-12 -193 -12 -330q0 -315 40.5 -410.5t182.5 -95.5q160 0 264 80q0 556 -10 749l180 7q-8 -188 -8 -520q0 -213 22 -431zM605 1410 q0 -22 -92 -165t-92 -159h-94q0 16 35 159.5t35 164.5h208zM965 1410q0 -22 -92 -165t-92 -159h-94q0 16 35 159.5t35 164.5h208z"/>
<glyph glyph-name="uogonek" unicode="ų" horiz-adv-x="1097" d="M973 -471q-53 -15 -136 -15q-91 0 -154.5 54t-63.5 162q0 144 199 268h2q-14 53 -14 89h-10q-133 -112 -323 -112q-168 0 -249 82t-81 329q0 39 2 113t2 100q0 147 -17 346l186 7q-12 -193 -12 -330q0 -307 38.5 -406.5t176.5 -99.5q168 0 272 80q0 556 -10 750l180 6 q-8 -188 -8 -520q0 -213 22 -432q-218 -125 -218 -234q0 -116 102 -116q40 0 86 16z"/>
<glyph glyph-name="wgrave" unicode="ẁ" horiz-adv-x="1569" d="M1525 950q0 -60 -171.5 -470.5t-171.5 -479.5h-136q0 38 -101 291q-124 311 -176 486h-8q-48 -169 -164 -487q-92 -252 -92 -290h-137q0 58 -162 480.5t-162 469.5h178q0 -52 116.5 -380t116.5 -382h11q0 82 120.5 395.5t120.5 366.5h170q0 -46 125 -383t125 -379h10 q0 61 108.5 372.5t108.5 389.5h171zM850 1086h-120q0 16 -138 164t-138 160h216q0 -11 90 -159.5t90 -164.5z"/>
<glyph glyph-name="wacute" unicode="ẃ" horiz-adv-x="1569" d="M1525 950q0 -60 -171.5 -470.5t-171.5 -479.5h-136q0 38 -101 291q-124 311 -176 486h-8q-48 -169 -164 -487q-92 -252 -92 -290h-137q0 58 -162 480.5t-162 469.5h178q0 -52 116.5 -380t116.5 -382h11q0 82 120.5 395.5t120.5 366.5h170q0 -46 125 -383t125 -379h10 q0 61 108.5 372.5t108.5 389.5h171zM1131 1410q0 -12 -138 -160t-138 -164h-120q0 16 90 164.5t90 159.5h216z"/>
<glyph glyph-name="wcircumflex" unicode="ŵ" horiz-adv-x="1569" d="M1525 950q0 -60 -171.5 -470.5t-171.5 -479.5h-136q0 38 -101 291q-124 311 -176 486h-8q-48 -169 -164 -487q-92 -252 -92 -290h-137q0 58 -162 480.5t-162 469.5h178q0 -52 116.5 -380t116.5 -382h11q0 82 120.5 395.5t120.5 366.5h170q0 -46 125 -383t125 -379h10 q0 61 108.5 372.5t108.5 389.5h171zM1069 1086h-104q0 13 -187 208q-187 -195 -187 -208h-104q0 13 94.5 160.5t99.5 163.5h194q5 -16 99.5 -163.5t94.5 -160.5z"/>
<glyph glyph-name="wdieresis" unicode="ẅ" horiz-adv-x="1569" d="M1525 950q0 -60 -171.5 -470.5t-171.5 -479.5h-136q0 38 -101 291q-124 311 -176 486h-8q-48 -169 -164 -487q-92 -252 -92 -290h-137q0 58 -162 480.5t-162 469.5h178q0 -52 116.5 -380t116.5 -382h11q0 82 120.5 395.5t120.5 366.5h170q0 -46 125 -383t125 -379h10 q0 61 108.5 372.5t108.5 389.5h171zM723 1251q0 -46 -30.5 -80.5t-84.5 -34.5q-45 0 -70 30t-25 72q0 44 30.5 77.5t85.5 33.5q45 0 69.5 -28.5t24.5 -69.5zM1101 1251q0 -46 -30.5 -80.5t-84.5 -34.5q-45 0 -70 30t-25 72q0 44 30.5 77.5t85.5 33.5q45 0 69.5 -28.5 t24.5 -69.5z"/>
<glyph glyph-name="ygrave" unicode="ỳ" horiz-adv-x="952" d="M908 950q0 -64 -151 -408q-173 -393 -215 -554q-69 -261 -128 -332q-80 -98 -285 -98l-8 140q125 0 208 85t83 213q0 111 -184 528t-184 426h207q0 -27 126 -364t126 -415h10q0 65 106.5 377t106.5 402h182zM597 1086h-120q0 16 -138 164t-138 160h216q0 -11 90 -159.5 t90 -164.5z"/>
<glyph glyph-name="yacute" unicode="ý" horiz-adv-x="952" d="M908 950q0 -64 -151 -408q-173 -393 -215 -554q-69 -261 -128 -332q-80 -98 -285 -98l-8 140q125 0 208 85t83 213q0 111 -184 528t-184 426h207q0 -27 126 -364t126 -415h10q0 65 106.5 377t106.5 402h182zM837 1410q0 -12 -138 -160t-138 -164h-120q0 16 90 164.5 t90 159.5h216z"/>
<glyph glyph-name="ycircumflex" unicode="ŷ" horiz-adv-x="952" d="M908 950q0 -64 -151 -408q-173 -393 -215 -554q-69 -261 -128 -332q-80 -98 -285 -98l-8 140q125 0 208 85t83 213q0 111 -184 528t-184 426h207q0 -27 126 -364t126 -415h10q0 65 106.5 377t106.5 402h182zM783 1086h-104q0 13 -187 208q-187 -195 -187 -208h-104 q0 13 94.5 160.5t99.5 163.5h194q5 -16 99.5 -163.5t94.5 -160.5z"/>
<glyph glyph-name="ydieresis" unicode="ÿ" horiz-adv-x="952" d="M908 950q0 -64 -151 -408q-173 -393 -215 -554q-69 -261 -128 -332q-80 -98 -285 -98l-8 140q125 0 208 85t83 213q0 111 -184 528t-184 426h207q0 -27 126 -364t126 -415h10q0 65 106.5 377t106.5 402h182zM429 1251q0 -46 -30.5 -80.5t-84.5 -34.5q-45 0 -70 30t-25 72 q0 44 30.5 77.5t85.5 33.5q45 0 69.5 -28.5t24.5 -69.5zM807 1251q0 -46 -30.5 -80.5t-84.5 -34.5q-45 0 -70 30t-25 72q0 44 30.5 77.5t85.5 33.5q45 0 69.5 -28.5t24.5 -69.5z"/>
<glyph glyph-name="zacute" unicode="ź" horiz-adv-x="933" d="M834 161l-6 -161h-729l8 155q53 51 271 316q237 289 237 324l-1 11q-321 0 -509 -13l6 157h694l-10 -157q-83 -91 -263 -318q-224 -283 -224 -322v-8q302 0 526 16zM794 1410q0 -12 -138 -160t-138 -164h-120q0 16 90 164.5t90 159.5h216z"/>
<glyph glyph-name="zcaron" unicode="ž" horiz-adv-x="933" d="M834 161l-6 -161h-729l8 155q53 51 271 316q237 289 237 324l-1 11q-321 0 -509 -13l6 157h694l-10 -157q-83 -91 -263 -318q-224 -283 -224 -322v-8q302 0 526 16zM772 1410q0 -13 -94.5 -160.5t-99.5 -163.5h-194q-5 16 -99.5 163.5t-94.5 160.5h104q0 -13 187 -208 q187 195 187 208h104z"/>
<glyph glyph-name="zdotaccent" unicode="ż" horiz-adv-x="933" d="M834 161l-6 -161h-729l8 155q53 51 271 316q237 289 237 324l-1 11q-321 0 -509 -13l6 157h694l-10 -157q-83 -91 -263 -318q-224 -283 -224 -322v-8q302 0 526 16zM594 1250q0 -51 -33 -88.5t-93 -37.5q-51 0 -79.5 32.5t-28.5 78.5q0 50 34 87t94 37q49 0 77.5 -32.5 t28.5 -76.5z"/>
<glyph glyph-name="eng" unicode="ŋ" horiz-adv-x="1115" d="M985 -56q0 -159 -87 -256q-134 -130 -356 -130l-8 140q151 0 222 63.5t72 234.5q-4 156 -4 578q0 154 -63 210.5t-178 56.5q-143 0 -267 -103q0 -429 4 -738h-182q17 340 17 492q0 234 -44 454l176 25l19 -122h8q149 134 312 134q169 0 261 -72.5t92 -257.5 q0 -59 -2 -127t-2 -177q0 -145 5 -240t5 -165z"/>
<glyph glyph-name="eth" unicode="ð" horiz-adv-x="1122" d="M1023 532q0 -255 -121.5 -413t-347.5 -158q-219 0 -337 137.5t-118 331.5q0 200 119.5 355t318.5 155q151 0 256 -70h11q-53 174 -158 278l-168 -119l-78 124q46 19 173 81q-65 68 -128 119l93 85q34 -18 170 -131q77 43 183 119l79 -124l-184 -78q237 -286 237 -692z M847 523q0 122 -16 223q-105 62 -277 62q-123 0 -200 -103.5t-77 -266.5q0 -137 74 -237t203 -100q150 0 221.5 127.5t71.5 294.5z"/>
<glyph glyph-name="thorn" unicode="þ" horiz-adv-x="1142" d="M1043 514q0 -114 -34 -213t-96 -171.5t-148.5 -114.5t-190.5 -42q-184 0 -256 66h-10q0 -279 6 -496h-192q17 253 26 552t9 651q0 363 -33 661l198 10q-5 -87 -7.5 -222t-2.5 -323h8q107 113 329 113q89 0 161.5 -35t124.5 -97.5t80 -149t28 -189.5zM865 490 q0 77 -21.5 143t-61 114t-94.5 75t-122 27q-180 0 -258 -109q0 -179 1 -322.5t3 -254.5q73 -68 202 -68q78 0 142.5 30t111 83.5t72 125.5t25.5 156z"/>
<glyph glyph-name="A.c2sc" horiz-adv-x="1119" d="M1108 0h-207q0 55 -105 336h-485q-104 -277 -104 -336h-196q0 31 222.5 525t222.5 543h232q0 -48 210 -535.5t210 -532.5zM755 455q-194 468 -194 499h-11q0 -27 -201 -499h406z"/>
<glyph glyph-name="B.c2sc" horiz-adv-x="1032" d="M955 325q0 -162 -147 -246t-396 -84q-75 0 -279 5q13 253 13 560q0 291 -13 508h114q33 0 127 2.5t139 2.5q371 0 371 -236q0 -183 -179 -243v-9q250 -41 250 -260zM786 312q0 193 -367 193q-68 0 -120 -5q0 -208 10 -375q33 -6 112 -6q201 0 283 46t82 147zM717 791 q0 165 -236 165q-116 0 -190 -12q7 -65 7 -324q41 -2 90 -2q167 0 248 38.5t81 134.5z"/>
<glyph glyph-name="C.c2sc" horiz-adv-x="982" d="M938 144l-13 -137q-131 -29 -239 -29q-303 0 -456 154.5t-153 377.5q0 229 168 400.5t459 171.5q86 0 175 -22l-26 -143q-101 29 -184 29q-207 0 -311.5 -120t-104.5 -290q0 -173 120.5 -300t338.5 -127q91 0 226 35z"/>
<glyph glyph-name="D.c2sc" horiz-adv-x="1130" d="M1053 572q0 -233 -159.5 -408t-440.5 -175q-102 0 -320 11q13 253 13 560q0 291 -13 508h110q35 0 108 2.5t113 2.5q295 0 442 -144t147 -357zM881 535q0 173 -118 294t-353 121q-53 0 -117 -8q8 -185 8 -382q0 -216 9 -435q68 -14 134 -14q220 0 328.5 123.5 t108.5 300.5z"/>
<glyph glyph-name="E.c2sc" horiz-adv-x="901" d="M857 136l-5 -136h-719q13 253 13 560q0 291 -13 508h675l-5 -136q-248 11 -506 11q6 -124 6 -327q223 0 417 10l-5 -133q-197 8 -412 8q0 -201 8 -377q281 0 546 12z"/>
<glyph glyph-name="F.c2sc" horiz-adv-x="842" d="M820 1068l-5 -136q-243 11 -523 11q11 -137 11 -361q199 0 403 7l-5 -130q-194 7 -398 7q0 -301 9 -466h-179q13 253 13 560q0 291 -13 508h687z"/>
<glyph glyph-name="G.c2sc" horiz-adv-x="1090" d="M1002 23q-158 -45 -311 -45q-303 0 -458.5 155.5t-155.5 377.5q0 228 171 399.5t463 171.5q126 0 226 -23l-23 -149q-151 33 -240 33q-207 0 -314 -118.5t-107 -288.5q0 -175 124 -305t341 -130q52 0 133 12q-14 86 -14 194q0 93 -14 189h179q-7 -113 -7 -235 q0 -61 7 -238z"/>
<glyph glyph-name="H.c2sc" horiz-adv-x="1128" d="M995 0h-185q9 281 9 500h-509q0 -181 9 -500h-186q13 293 13 560q0 278 -13 508h186q-11 -234 -11 -450h513q0 177 -11 450h185q-13 -224 -13 -508q0 -307 13 -560z"/>
<glyph glyph-name="I.c2sc" horiz-adv-x="451" d="M318 0h-185q13 263 13 560q0 292 -13 508h185q-12 -221 -12 -508q0 -299 12 -560z"/>
<glyph glyph-name="J.c2sc" horiz-adv-x="720" d="M598 1068q-11 -248 -11 -609q0 -276 -123 -390q-99 -91 -300 -91q-84 0 -153 17l14 132q61 -26 120 -26q131 0 190 48q93 76 93 292q0 372 -13 627h183z"/>
<glyph glyph-name="K.c2sc" horiz-adv-x="1037" d="M1025 0h-214q0 29 -189 268q-204 259 -287 259h-27q0 -191 8 -527h-183q13 253 13 560q0 291 -13 508h183q-8 -220 -8 -439h20q40 0 236 209q193 205 193 230h187q0 -25 -183 -204t-271 -238v-9q99 -38 326 -325q209 -266 209 -292z"/>
<glyph glyph-name="L.c2sc" horiz-adv-x="862" d="M840 134l-5 -134h-702q11 206 11 560q0 308 -11 508h183q-10 -171 -10 -508q0 -273 -11 -436q259 0 545 10z"/>
<glyph glyph-name="M.c2sc" horiz-adv-x="1509" d="M1398 0h-185q0 173 -24 501q-26 358 -28 430h-10q-8 -29 -37 -124q-51 -155 -194 -491q-113 -263 -113 -316h-136q0 56 -104 319q-136 342 -181 488q-20 66 -34 124h-10q-2 -110 -33 -459q-29 -332 -29 -472h-169q0 12 61 491.5t61 576.5h255q0 -91 133.5 -441 t133.5 -429h10q0 79 150.5 430.5t150.5 439.5h250q0 -97 41 -574t41 -494z"/>
<glyph glyph-name="N.c2sc" horiz-adv-x="1164" d="M1031 0h-144q0 18 -279 385q-291 384 -332 493h-10q18 -194 18 -336q0 -259 12 -542h-163q15 263 15 560q0 291 -15 508h190q0 -27 255 -368q268 -359 306 -471h10q-17 196 -17 337q0 286 -13 502h167q-13 -215 -13 -508q0 -298 13 -560z"/>
<glyph glyph-name="O.c2sc" horiz-adv-x="1240" d="M1163 551q0 -267 -168 -424.5t-388 -157.5q-211 0 -370.5 145.5t-159.5 393.5q0 268 168 425t388 157q211 0 370.5 -145t159.5 -394zM988 533q0 204 -115.5 317t-264.5 113q-139 0 -247.5 -119t-108.5 -314q0 -203 115.5 -317t264.5 -114q139 0 247.5 119.5t108.5 314.5z "/>
<glyph glyph-name="P.c2sc" horiz-adv-x="953" d="M920 799q0 -192 -154 -283t-407 -91q-31 0 -53 1q0 -173 13 -426h-186q13 233 13 560q0 285 -13 508h132q23 0 118 2.5t162 2.5q169 0 272 -71.5t103 -202.5zM755 752q0 204 -296 204q-72 0 -161 -12q6 -139 6 -403q30 -2 71 -2q380 0 380 213z"/>
<glyph glyph-name="Q.c2sc" horiz-adv-x="1240" d="M1195 -356l-186 -7q-54 223 -122.5 277t-251.5 55q-239 0 -398.5 145.5t-159.5 393.5q0 268 168 425t388 157q211 0 370.5 -145t159.5 -394q0 -183 -82.5 -316t-217.5 -203v-9q147 -14 215 -89.5t117 -289.5zM988 533q0 204 -115.5 317t-264.5 113q-139 0 -247.5 -119 t-108.5 -314q0 -203 115.5 -317t264.5 -114q139 0 247.5 119.5t108.5 314.5z"/>
<glyph glyph-name="R.c2sc" horiz-adv-x="1036" d="M1014 0h-190q-82 229 -125.5 315t-97 111t-171.5 25q-70 0 -126 -2q0 -253 11 -449h-182q13 253 13 560q0 291 -13 508h130q45 0 106.5 2.5t138.5 2.5q390 0 390 -250q0 -205 -220 -289v-9q95 -26 153 -120t183 -405zM731 766q0 188 -271 188q-97 0 -164 -10 q6 -140 6 -376q53 -2 98 -2q331 0 331 200z"/>
<glyph glyph-name="S.c2sc" horiz-adv-x="936" d="M853 279q0 -307 -463 -307q-166 0 -298 36l34 141q132 -48 264 -48q300 0 300 142q0 77 -69 131q-54 42 -201 102q-155 64 -222 124q-88 79 -88 197q0 126 98.5 206t291.5 80q201 0 287 -26l-23 -141q-116 39 -264 39q-231 0 -231 -129q0 -66 59 -109q44 -33 181 -87 q164 -65 238 -128q106 -90 106 -223z"/>
<glyph glyph-name="T.c2sc" horiz-adv-x="907" d="M896 1068l-5 -129q-175 9 -352 9q-3 -118 -3 -388q0 -274 8 -560h-179q11 275 11 560q0 227 -5 388q-129 0 -360 -11l5 131h880z"/>
<glyph glyph-name="U.c2sc" horiz-adv-x="1190" d="M1068 1068q-8 -302 -8 -543q0 -548 -467 -548q-227 0 -345 119.5t-118 446.5q0 225 -8 525h186q-11 -305 -11 -500q0 -263 69.5 -366.5t229.5 -103.5q162 0 233 96.5t71 375.5q0 190 -12 498h180z"/>
<glyph glyph-name="V.c2sc" horiz-adv-x="1031" d="M1009 1068q0 -68 -218 -533.5t-218 -534.5h-142q0 64 -204.5 532.5t-204.5 535.5h192q0 -63 151 -449t151 -441h10q0 60 152 436.5t152 453.5h179z"/>
<glyph glyph-name="W.c2sc" horiz-adv-x="1634" d="M1612 1068q0 -63 -187.5 -537t-187.5 -531h-140q0 70 -131 406q-142 363 -161 470h-12q-17 -113 -145 -478q-119 -342 -119 -398h-141q0 82 -183 558t-183 510h192q0 -38 126 -422.5t126 -467.5h10q0 87 129.5 464t129.5 426h175q0 -55 133.5 -449t133.5 -441h11 q0 76 121.5 443.5t121.5 446.5h181z"/>
<glyph glyph-name="X.c2sc" horiz-adv-x="1071" d="M1035 0h-214q0 31 -123 227.5t-180 262.5h-11q-50 -63 -158.5 -258t-108.5 -232h-204q0 25 182.5 280.5t227.5 296.5v9q-48 50 -196.5 255t-148.5 227h210q0 -25 100 -186t143 -208h9q42 48 135.5 208.5t93.5 185.5h202q0 -23 -157 -219.5t-210 -246.5v-9 q65 -67 236.5 -313.5t171.5 -279.5z"/>
<glyph glyph-name="Y.c2sc" horiz-adv-x="979" d="M968 1068q0 -31 -129.5 -210t-204.5 -299t-75 -208q0 -171 11 -351h-187q12 172 12 352q0 95 -77 229t-192 299.5t-115 187.5h202q0 -23 142.5 -258.5t142.5 -309.5h10q0 74 136.5 302t136.5 266h187z"/>
<glyph glyph-name="Z.c2sc" horiz-adv-x="900" d="M834 145l-6 -145h-762l9 113q112 144 320 453q228 338 228 377v10q-197 0 -542 -21l5 136h723l-8 -117q-102 -134 -305 -447q-217 -335 -217 -370v-10q183 0 555 21z"/>
<glyph glyph-name="Agrave.c2sc" horiz-adv-x="1119" d="M1108 0h-207q0 55 -105 336h-485q-104 -277 -104 -336h-196q0 31 222.5 525t222.5 543h232q0 -48 210 -535.5t210 -532.5zM755 455q-194 468 -194 499h-11q0 -27 -201 -499h406zM669 1136h-120q0 16 -138 164t-138 160h216q0 -11 90 -159.5t90 -164.5z"/>
<glyph glyph-name="Aacute.c2sc" horiz-adv-x="1119" d="M1108 0h-207q0 55 -105 336h-485q-104 -277 -104 -336h-196q0 31 222.5 525t222.5 543h232q0 -48 210 -535.5t210 -532.5zM755 455q-194 468 -194 499h-11q0 -27 -201 -499h406zM875 1490q0 -12 -138 -160t-138 -164h-120q0 16 90 164.5t90 159.5h216z"/>
<glyph glyph-name="Acircumflex.c2sc" horiz-adv-x="1119" d="M1108 0h-207q0 55 -105 336h-485q-104 -277 -104 -336h-196q0 31 222.5 525t222.5 543h232q0 -48 210 -535.5t210 -532.5zM755 455q-194 468 -194 499h-11q0 -27 -201 -499h406zM858 1136h-104q0 13 -187 208q-187 -195 -187 -208h-104q0 13 94.5 160.5t99.5 163.5h194 q5 -16 99.5 -163.5t94.5 -160.5z"/>
<glyph glyph-name="Atilde.c2sc" horiz-adv-x="1119" d="M1108 0h-207q0 55 -105 336h-485q-104 -277 -104 -336h-196q0 31 222.5 525t222.5 543h232q0 -48 210 -535.5t210 -532.5zM755 455q-194 468 -194 499h-11q0 -27 -201 -499h406zM967 1416q-110 -221 -250 -221q-51 0 -128.5 24t-125.5 24q-88 0 -172 -120l-62 50 q110 221 250 221q51 0 128.5 -24t125.5 -24q88 0 172 120z"/>
<glyph glyph-name="Adieresis.c2sc" horiz-adv-x="1119" d="M1108 0h-207q0 55 -105 336h-485q-104 -277 -104 -336h-196q0 31 222.5 525t222.5 543h232q0 -48 210 -535.5t210 -532.5zM755 455q-194 468 -194 499h-11q0 -27 -201 -499h406zM480 1301q0 -46 -30.5 -80.5t-84.5 -34.5q-45 0 -70 30t-25 72q0 44 30.5 77.5t85.5 33.5 q45 0 69.5 -28.5t24.5 -69.5zM858 1301q0 -46 -30.5 -80.5t-84.5 -34.5q-45 0 -70 30t-25 72q0 44 30.5 77.5t85.5 33.5q45 0 69.5 -28.5t24.5 -69.5z"/>
<glyph glyph-name="Amacron.c2sc" horiz-adv-x="1119" d="M1108 0h-207q0 55 -105 336h-485q-104 -277 -104 -336h-196q0 31 222.5 525t222.5 543h232q0 -48 210 -535.5t210 -532.5zM755 455q-194 468 -194 499h-11q0 -27 -201 -499h406zM802 1360l-12 -124h-434l11 124h435z"/>
<glyph glyph-name="Abreve.c2sc" horiz-adv-x="1119" d="M1108 0h-207q0 55 -105 336h-485q-104 -277 -104 -336h-196q0 31 222.5 525t222.5 543h232q0 -48 210 -535.5t210 -532.5zM755 455q-194 468 -194 499h-11q0 -27 -201 -499h406zM879 1390q-95 -228 -306 -228q-221 0 -308 228l100 50q72 -154 206 -154q124 0 208 154z "/>
<glyph glyph-name="Aring.c2sc" horiz-adv-x="1119" d="M1108 0h-207q0 55 -105 336h-485q-104 -277 -104 -336h-196q0 31 222.5 525t222.5 543h232q0 -48 210 -535.5t210 -532.5zM755 455q-194 468 -194 499h-11q0 -27 -201 -499h406zM797 1337q0 -104 -69 -165t-159 -61q-82 0 -139 51.5t-57 147.5q0 103 69 163t159 60 q82 0 139 -51t57 -145zM703 1329q0 57 -32 87.5t-78 30.5q-50 0 -88 -35.5t-38 -96.5q0 -57 32 -87.5t78 -30.5q50 0 88 35.5t38 96.5z"/>
<glyph glyph-name="Aringacute.c2sc" horiz-adv-x="1119" d="M947 1720q0 -12 -128 -90t-138 -94h-140q0 16 85 94.5t85 89.5h236zM1108 0h-207q0 55 -105 336h-485q-104 -277 -104 -336h-196q0 31 222.5 525t222.5 543h232q0 -48 210 -535.5t210 -532.5zM755 455q-194 468 -194 499h-11q0 -27 -201 -499h406zM795 1317 q0 -104 -69 -165t-159 -61q-82 0 -139 51.5t-57 147.5q0 103 69 163t159 60q82 0 139 -51t57 -145zM701 1309q0 57 -32 87.5t-78 30.5q-50 0 -88 -35.5t-38 -96.5q0 -57 32 -87.5t78 -30.5q50 0 88 35.5t38 96.5z"/>
<glyph glyph-name="Aogonek.c2sc" horiz-adv-x="1119" d="M1108 0q-40 -9 -95 -41q-152 -84 -152 -193q0 -116 102 -116q40 0 86 16l28 -137q-53 -15 -136 -15q-98 0 -158 46.5t-60 169.5q0 144 174 270h4q0 55 -105 336h-485q-104 -277 -104 -336h-196q0 31 222.5 525t222.5 543h232q0 -48 210 -535.5t210 -532.5zM755 455 q-194 468 -194 499h-11q0 -27 -201 -499h406z"/>
<glyph glyph-name="AE.c2sc" horiz-adv-x="1458" d="M1414 136l-6 -136h-731q11 175 11 336h-388q-99 -275 -99 -336h-190q0 30 224.5 522t224.5 546h906l-6 -136q-269 11 -527 11q9 -123 9 -327q199 0 437 6l-5 -129q-219 8 -432 8q0 -199 7 -377q287 0 565 12zM689 455q0 287 -12 488h-133q0 -31 -205 -488h350z"/>
<glyph glyph-name="AEacute.c2sc" horiz-adv-x="1458" d="M1414 136l-6 -136h-731q11 175 11 336h-388q-99 -275 -99 -336h-190q0 30 224.5 522t224.5 546h906l-6 -136q-269 11 -527 11q9 -123 9 -327q199 0 437 6l-5 -129q-219 8 -432 8q0 -199 7 -377q287 0 565 12zM689 455q0 287 -12 488h-133q0 -31 -205 -488h350zM1150 1490 q0 -12 -138 -160t-138 -164h-120q0 16 90 164.5t90 159.5h216z"/>
<glyph glyph-name="Cacute.c2sc" horiz-adv-x="982" d="M938 144l-13 -137q-131 -29 -239 -29q-303 0 -456 154.5t-153 377.5q0 229 168 400.5t459 171.5q86 0 175 -22l-26 -143q-101 29 -184 29q-207 0 -311.5 -120t-104.5 -290q0 -173 120.5 -300t338.5 -127q91 0 226 35zM947 1490q0 -12 -138 -160t-138 -164h-120 q0 16 90 164.5t90 159.5h216z"/>
<glyph glyph-name="Ccircumflex.c2sc" horiz-adv-x="982" d="M938 144l-13 -137q-131 -29 -239 -29q-303 0 -456 154.5t-153 377.5q0 229 168 400.5t459 171.5q86 0 175 -22l-26 -143q-101 29 -184 29q-207 0 -311.5 -120t-104.5 -290q0 -173 120.5 -300t338.5 -127q91 0 226 35zM911 1166h-104q0 13 -187 208q-187 -195 -187 -208 h-104q0 13 94.5 160.5t99.5 163.5h194q5 -16 99.5 -163.5t94.5 -160.5z"/>
<glyph glyph-name="Ccaron.c2sc" horiz-adv-x="982" d="M938 144l-13 -137q-131 -29 -239 -29q-303 0 -456 154.5t-153 377.5q0 229 168 400.5t459 171.5q86 0 175 -22l-26 -143q-101 29 -184 29q-207 0 -311.5 -120t-104.5 -290q0 -173 120.5 -300t338.5 -127q91 0 226 35zM925 1490q0 -13 -94.5 -160.5t-99.5 -163.5h-194 q-5 16 -99.5 163.5t-94.5 160.5h104q0 -13 187 -208q187 195 187 208h104z"/>
<glyph glyph-name="Cdotaccent.c2sc" horiz-adv-x="982" d="M938 144l-13 -137q-131 -29 -239 -29q-303 0 -456 154.5t-153 377.5q0 229 168 400.5t459 171.5q86 0 175 -22l-26 -143q-101 29 -184 29q-207 0 -311.5 -120t-104.5 -290q0 -173 120.5 -300t338.5 -127q91 0 226 35zM754 1330q0 -51 -33 -88.5t-93 -37.5 q-51 0 -79.5 32.5t-28.5 78.5q0 50 34 87t94 37q49 0 77.5 -32.5t28.5 -76.5z"/>
<glyph glyph-name="Ccedilla.c2sc" horiz-adv-x="982" d="M938 144l-13 -137q-151 -29 -239 -29q-40 0 -74 3l-12 -81q196 -47 196 -192q0 -222 -240 -222l-14 92q47 0 76.5 32t29.5 76q0 113 -152 142l33 163q-191 32 -321.5 164t-130.5 355q0 229 168 400.5t459 171.5q86 0 175 -22l-26 -143q-101 29 -184 29 q-207 0 -311.5 -120t-104.5 -290q0 -173 120.5 -300t338.5 -127q91 0 226 35z"/>
<glyph glyph-name="Dcaron.c2sc" horiz-adv-x="1130" d="M1053 572q0 -233 -159.5 -408t-440.5 -175q-102 0 -320 11q13 253 13 560q0 291 -13 508h110q35 0 108 2.5t113 2.5q295 0 442 -144t147 -357zM881 535q0 173 -118 294t-353 121q-53 0 -117 -8q8 -185 8 -382q0 -216 9 -435q68 -14 134 -14q220 0 328.5 123.5 t108.5 300.5zM862 1490q0 -13 -94.5 -160.5t-99.5 -163.5h-194q-5 16 -99.5 163.5t-94.5 160.5h104q0 -13 187 -208q187 195 187 208h104z"/>
<glyph glyph-name="Dcroat.c2sc" horiz-adv-x="1130" d="M1053 572q0 -233 -159.5 -408t-440.5 -175q-102 0 -320 11q13 204 13 479l-138 -13l8 139q73 -3 130 -3q0 236 -13 466h110q36 0 111 2.5t110 2.5q295 0 442 -144t147 -357zM881 535q0 173 -117.5 294t-352.5 121q-53 0 -118 -7q9 -128 8 -340q120 8 332 26l-6 -135 q-202 -1 -326 -6q0 -217 9 -363q68 -14 134 -14q220 0 328.5 123.5t108.5 300.5z"/>
<glyph glyph-name="Egrave.c2sc" horiz-adv-x="901" d="M857 136l-5 -136h-719q13 253 13 560q0 291 -13 508h675l-5 -136q-248 11 -506 11q6 -124 6 -327q223 0 417 10l-5 -133q-197 8 -412 8q0 -201 8 -377q281 0 546 12zM600 1166h-120q0 16 -138 164t-138 160h216q0 -11 90 -159.5t90 -164.5z"/>
<glyph glyph-name="Eacute.c2sc" horiz-adv-x="901" d="M857 136l-5 -136h-719q13 253 13 560q0 291 -13 508h675l-5 -136q-248 11 -506 11q6 -124 6 -327q223 0 417 10l-5 -133q-197 8 -412 8q0 -201 8 -377q281 0 546 12zM826 1490q0 -12 -138 -160t-138 -164h-120q0 16 90 164.5t90 159.5h216z"/>
<glyph glyph-name="Ecircumflex.c2sc" horiz-adv-x="901" d="M857 136l-5 -136h-719q13 253 13 560q0 291 -13 508h675l-5 -136q-248 11 -506 11q6 -124 6 -327q223 0 417 10l-5 -133q-197 8 -412 8q0 -201 8 -377q281 0 546 12zM751 1166h-104q0 13 -187 208q-187 -195 -187 -208h-104q0 13 94.5 160.5t99.5 163.5h194 q5 -16 99.5 -163.5t94.5 -160.5z"/>
<glyph glyph-name="Ecaron.c2sc" horiz-adv-x="901" d="M857 136l-5 -136h-719q13 253 13 560q0 291 -13 508h675l-5 -136q-248 11 -506 11q6 -124 6 -327q223 0 417 10l-5 -133q-197 8 -412 8q0 -201 8 -377q281 0 546 12zM779 1490q0 -13 -94.5 -160.5t-99.5 -163.5h-194q-5 16 -99.5 163.5t-94.5 160.5h104q0 -13 187 -208 q187 195 187 208h104z"/>
<glyph glyph-name="Edieresis.c2sc" horiz-adv-x="901" d="M857 136l-5 -136h-719q13 253 13 560q0 291 -13 508h675l-5 -136q-248 11 -506 11q6 -124 6 -327q223 0 417 10l-5 -133q-197 8 -412 8q0 -201 8 -377q281 0 546 12zM397 1331q0 -46 -30.5 -80.5t-84.5 -34.5q-45 0 -70 30t-25 72q0 44 30.5 77.5t85.5 33.5 q45 0 69.5 -28.5t24.5 -69.5zM775 1331q0 -46 -30.5 -80.5t-84.5 -34.5q-45 0 -70 30t-25 72q0 44 30.5 77.5t85.5 33.5q45 0 69.5 -28.5t24.5 -69.5z"/>
<glyph glyph-name="Emacron.c2sc" horiz-adv-x="901" d="M857 136l-5 -136h-719q13 253 13 560q0 291 -13 508h675l-5 -136q-248 11 -506 11q6 -124 6 -327q223 0 417 10l-5 -133q-197 8 -412 8q0 -201 8 -377q281 0 546 12zM725 1390l-12 -124h-434l11 124h435z"/>
<glyph glyph-name="Ebreve.c2sc" horiz-adv-x="901" d="M857 136l-5 -136h-719q13 253 13 560q0 291 -13 508h675l-5 -136q-248 11 -506 11q6 -124 6 -327q223 0 417 10l-5 -133q-197 8 -412 8q0 -201 8 -377q281 0 546 12zM794 1420q-95 -228 -306 -228q-221 0 -308 228l100 50q72 -154 206 -154q124 0 208 154z"/>
<glyph glyph-name="Edotaccent.c2sc" horiz-adv-x="901" d="M857 136l-5 -136h-719q13 253 13 560q0 291 -13 508h675l-5 -136q-248 11 -506 11q6 -124 6 -327q223 0 417 10l-5 -133q-197 8 -412 8q0 -201 8 -377q281 0 546 12zM639 1330q0 -51 -33 -88.5t-93 -37.5q-51 0 -79.5 32.5t-28.5 78.5q0 50 34 87t94 37q49 0 77.5 -32.5 t28.5 -76.5z"/>
<glyph glyph-name="Eogonek.c2sc" horiz-adv-x="901" d="M852 0q-210 -115 -210 -239q0 -111 102 -111q40 0 86 16l28 -137q-53 -15 -136 -15q-98 0 -158 46.5t-60 144.5q0 169 178 285v10h-549q13 253 13 560q0 291 -13 508h675l-5 -136q-248 11 -506 11q6 -124 6 -327q223 0 417 10l-5 -133q-197 8 -412 8q0 -201 8 -377 q281 0 546 12z"/>
<glyph glyph-name="Gcircumflex.c2sc" horiz-adv-x="1090" d="M1002 23q-158 -45 -311 -45q-303 0 -458.5 155.5t-155.5 377.5q0 228 171 399.5t463 171.5q126 0 226 -23l-23 -149q-151 33 -240 33q-207 0 -314 -118.5t-107 -288.5q0 -175 124 -305t341 -130q52 0 133 12q-14 86 -14 194q0 93 -14 189h179q-7 -113 -7 -235 q0 -61 7 -238zM935 1166h-104q0 13 -187 208q-187 -195 -187 -208h-104q0 13 94.5 160.5t99.5 163.5h194q5 -16 99.5 -163.5t94.5 -160.5z"/>
<glyph glyph-name="Gbreve.c2sc" horiz-adv-x="1090" d="M1002 23q-158 -45 -311 -45q-303 0 -458.5 155.5t-155.5 377.5q0 228 171 399.5t463 171.5q126 0 226 -23l-23 -149q-151 33 -240 33q-207 0 -314 -118.5t-107 -288.5q0 -175 124 -305t341 -130q52 0 133 12q-14 86 -14 194q0 93 -14 189h179q-7 -113 -7 -235 q0 -61 7 -238zM941 1420q-95 -228 -306 -228q-221 0 -308 228l100 50q72 -154 206 -154q124 0 208 154z"/>
<glyph glyph-name="Gdotaccent.c2sc" horiz-adv-x="1090" d="M1002 23q-158 -45 -311 -45q-303 0 -458.5 155.5t-155.5 377.5q0 228 171 399.5t463 171.5q126 0 226 -23l-23 -149q-151 33 -240 33q-207 0 -314 -118.5t-107 -288.5q0 -175 124 -305t341 -130q52 0 133 12q-14 86 -14 194q0 93 -14 189h179q-7 -113 -7 -235 q0 -61 7 -238zM781 1330q0 -51 -33 -88.5t-93 -37.5q-51 0 -79.5 32.5t-28.5 78.5q0 50 34 87t94 37q49 0 77.5 -32.5t28.5 -76.5z"/>
<glyph glyph-name="Gcommaaccent.c2sc" horiz-adv-x="1090" d="M1002 23q-158 -45 -311 -45q-303 0 -458.5 155.5t-155.5 377.5q0 228 171 399.5t463 171.5q126 0 226 -23l-23 -149q-151 33 -240 33q-207 0 -314 -118.5t-107 -288.5q0 -175 124 -305t341 -130q52 0 133 12q-14 86 -14 194q0 93 -14 189h179q-7 -113 -7 -235 q0 -61 7 -238zM728 -248q0 -77 -53 -159.5t-111 -118.5l-39 40q74 93 74 161q-101 27 -101 98q0 49 27.5 84.5t82.5 35.5q59 0 89.5 -39t30.5 -102z"/>
<glyph glyph-name="Hcircumflex.c2sc" horiz-adv-x="1128" d="M995 0h-185q9 281 9 500h-509q0 -181 9 -500h-186q13 293 13 560q0 278 -13 508h186q-11 -234 -11 -450h513q0 177 -11 450h185q-13 -224 -13 -508q0 -307 13 -560zM859 1166h-104q0 13 -187 208q-187 -195 -187 -208h-104q0 13 94.5 160.5t99.5 163.5h194 q5 -16 99.5 -163.5t94.5 -160.5z"/>
<glyph glyph-name="Hbar.c2sc" horiz-adv-x="1128" d="M1103 884l-10 -108h-110q-1 -103 -1 -216q0 -307 13 -560h-185q9 281 9 500h-509q0 -181 9 -500h-186q13 293 13 560q0 112 -2 216h-107l10 108h94q-3 95 -8 184h186q-5 -94 -7 -184h504q-2 85 -6 184h185q-5 -87 -9 -184h117zM821 618q0 71 -2 158h-510q-1 -80 -1 -158 h513z"/>
<glyph glyph-name="Igrave.c2sc" horiz-adv-x="451" d="M318 0h-185q13 263 13 560q0 292 -13 508h185q-12 -221 -12 -508q0 -299 12 -560zM311 1166h-120q0 16 -138 164t-138 160h216q0 -11 90 -159.5t90 -164.5z"/>
<glyph glyph-name="Iacute.c2sc" horiz-adv-x="451" d="M318 0h-185q13 263 13 560q0 292 -13 508h185q-12 -221 -12 -508q0 -299 12 -560zM535 1490q0 -12 -138 -160t-138 -164h-120q0 16 90 164.5t90 159.5h216z"/>
<glyph glyph-name="Icircumflex.c2sc" horiz-adv-x="451" d="M318 0h-185q13 263 13 560q0 292 -13 508h185q-12 -221 -12 -508q0 -299 12 -560zM514 1166h-104q0 13 -187 208q-187 -195 -187 -208h-104q0 13 94.5 160.5t99.5 163.5h194q5 -16 99.5 -163.5t94.5 -160.5z"/>
<glyph glyph-name="Itilde.c2sc" horiz-adv-x="451" d="M318 0h-185q13 263 13 560q0 292 -13 508h185q-12 -221 -12 -508q0 -299 12 -560zM585 1446q-110 -221 -250 -221q-51 0 -128.5 24t-125.5 24q-88 0 -172 -120l-62 50q110 221 250 221q51 0 128.5 -24t125.5 -24q88 0 172 120z"/>
<glyph glyph-name="Idieresis.c2sc" horiz-adv-x="451" d="M318 0h-185q13 263 13 560q0 292 -13 508h185q-12 -221 -12 -508q0 -299 12 -560zM145 1331q0 -46 -30.5 -80.5t-84.5 -34.5q-45 0 -70 30t-25 72q0 44 30.5 77.5t85.5 33.5q45 0 69.5 -28.5t24.5 -69.5zM523 1331q0 -46 -30.5 -80.5t-84.5 -34.5q-45 0 -70 30t-25 72 q0 44 30.5 77.5t85.5 33.5q45 0 69.5 -28.5t24.5 -69.5z"/>
<glyph glyph-name="Imacron.c2sc" horiz-adv-x="451" d="M318 0h-185q13 263 13 560q0 292 -13 508h185q-12 -221 -12 -508q0 -299 12 -560zM450 1363l-12 -124h-434l11 124h435z"/>
<glyph glyph-name="Ibreve.c2sc" horiz-adv-x="451" d="M318 0h-185q13 263 13 560q0 292 -13 508h185q-12 -221 -12 -508q0 -299 12 -560zM533 1420q-95 -228 -306 -228q-221 0 -308 228l100 50q72 -154 206 -154q124 0 208 154z"/>
<glyph glyph-name="Idotaccent.c2sc" horiz-adv-x="451" d="M318 0h-185q13 263 13 560q0 292 -13 508h185q-12 -221 -12 -508q0 -299 12 -560zM352 1330q0 -51 -33 -88.5t-93 -37.5q-51 0 -79.5 32.5t-28.5 78.5q0 50 34 87t94 37q49 0 77.5 -32.5t28.5 -76.5z"/>
<glyph glyph-name="Iogonek.c2sc" horiz-adv-x="451" d="M318 0q-193 -115 -193 -244q0 -106 102 -106q40 0 86 16l28 -137q-53 -15 -136 -15q-91 0 -153 57q-65 61 -65 159q0 134 146 270q13 263 13 560q0 292 -13 508h185q-12 -221 -12 -508q0 -299 12 -560z"/>
<glyph glyph-name="IJ.c2sc" horiz-adv-x="1171" d="M318 0h-185q13 263 13 560q0 292 -13 508h185q-12 -221 -12 -508q0 -299 12 -560zM1049 1068q-11 -248 -11 -609q0 -276 -123 -390q-99 -91 -300 -91q-84 0 -153 17l14 132q61 -26 120 -26q131 0 190 48q93 76 93 292q0 372 -13 627h183z"/>
<glyph glyph-name="Jcircumflex.c2sc" horiz-adv-x="720" d="M598 1068q-11 -248 -11 -609q0 -276 -123 -390q-99 -91 -300 -91q-84 0 -153 17l14 132q61 -26 120 -26q131 0 190 48q93 76 93 292q0 372 -13 627h183zM785 1166h-104q0 13 -187 208q-187 -195 -187 -208h-104q0 13 94.5 160.5t99.5 163.5h194q5 -16 99.5 -163.5 t94.5 -160.5z"/>
<glyph glyph-name="Kcommaaccent.c2sc" horiz-adv-x="1037" d="M1025 0h-214q0 29 -189 268q-204 259 -287 259h-27q0 -191 8 -527h-183q13 253 13 560q0 291 -13 508h183q-8 -220 -8 -439h20q40 0 236 209q193 205 193 230h187q0 -25 -183 -204t-271 -238v-9q99 -38 326 -325q209 -266 209 -292zM675 -248q0 -77 -53 -159.5 t-111 -118.5l-39 40q74 93 74 161q-101 27 -101 98q0 49 27.5 84.5t82.5 35.5q59 0 89.5 -39t30.5 -102z"/>
<glyph glyph-name="Lacute.c2sc" horiz-adv-x="862" d="M840 134l-5 -134h-702q11 206 11 560q0 308 -11 508h183q-10 -171 -10 -508q0 -273 -11 -436q259 0 545 10zM545 1490q0 -12 -138 -160t-138 -164h-120q0 16 90 164.5t90 159.5h216z"/>
<glyph glyph-name="Lcaron.c2sc" horiz-adv-x="862" d="M840 134l-5 -134h-702q11 206 11 560q0 308 -11 508h183q-10 -171 -10 -508q0 -273 -11 -436q259 0 545 10zM864 935q0 -85 -58.5 -175.5t-122.5 -130.5l-43 44q82 102 82 177q-112 30 -112 108q0 54 30.5 93t90.5 39q65 0 99 -43t34 -112z"/>
<glyph glyph-name="Lcommaaccent.c2sc" horiz-adv-x="862" d="M840 134l-5 -134h-702q11 206 11 560q0 308 -11 508h183q-10 -171 -10 -508q0 -273 -11 -436q259 0 545 10zM587 -248q0 -77 -53 -159.5t-111 -118.5l-39 40q74 93 74 161q-101 27 -101 98q0 49 27.5 84.5t82.5 35.5q59 0 89.5 -39t30.5 -102z"/>
<glyph glyph-name="Lslash.c2sc" horiz-adv-x="883" d="M863 134l-5 -134h-702q11 293 11 437l-137 -83l-57 109l194 103q-1 301 -11 502h184q-8 -163 -11 -412l330 217l66 -116l-396 -225q0 -220 -9 -408q216 0 543 10z"/>
<glyph glyph-name="Ldot.c2sc" horiz-adv-x="862" d="M840 134l-5 -134h-702q11 206 11 560q0 308 -11 508h183q-10 -171 -10 -508q0 -273 -11 -436q259 0 545 10zM801 595q0 -51 -33 -88.5t-93 -37.5q-51 0 -79.5 32.5t-28.5 78.5q0 50 34 87t94 37q49 0 77.5 -32.5t28.5 -76.5z"/>
<glyph glyph-name="Nacute.c2sc" horiz-adv-x="1164" d="M1031 0h-144q0 18 -279 385q-291 384 -332 493h-10q18 -194 18 -336q0 -259 12 -542h-163q15 263 15 560q0 291 -15 508h190q0 -27 255 -368q268 -359 306 -471h10q-17 196 -17 337q0 286 -13 502h167q-13 -215 -13 -508q0 -298 13 -560zM902 1490q0 -12 -138 -160 t-138 -164h-120q0 16 90 164.5t90 159.5h216z"/>
<glyph glyph-name="Ncaron.c2sc" horiz-adv-x="1164" d="M1031 0h-144q0 18 -279 385q-291 384 -332 493h-10q18 -194 18 -336q0 -259 12 -542h-163q15 263 15 560q0 291 -15 508h190q0 -27 255 -368q268 -359 306 -471h10q-17 196 -17 337q0 286 -13 502h167q-13 -215 -13 -508q0 -298 13 -560zM878 1490q0 -13 -94.5 -160.5 t-99.5 -163.5h-194q-5 16 -99.5 163.5t-94.5 160.5h104q0 -13 187 -208q187 195 187 208h104z"/>
<glyph glyph-name="Ntilde.c2sc" horiz-adv-x="1164" d="M1031 0h-144q0 18 -279 385q-291 384 -332 493h-10q18 -194 18 -336q0 -259 12 -542h-163q15 263 15 560q0 291 -15 508h190q0 -27 255 -368q268 -359 306 -471h10q-17 196 -17 337q0 286 -13 502h167q-13 -215 -13 -508q0 -298 13 -560zM986 1446q-110 -221 -250 -221 q-51 0 -128.5 24t-125.5 24q-88 0 -172 -120l-62 50q110 221 250 221q51 0 128.5 -24t125.5 -24q88 0 172 120z"/>
<glyph glyph-name="Ncommaaccent.c2sc" horiz-adv-x="1164" d="M1031 0h-144q0 18 -279 385q-291 384 -332 493h-10q18 -194 18 -336q0 -259 12 -542h-163q15 263 15 560q0 291 -15 508h190q0 -27 255 -368q268 -359 306 -471h10q-17 196 -17 337q0 286 -13 502h167q-13 -215 -13 -508q0 -298 13 -560zM702 -248q0 -77 -53 -159.5 t-111 -118.5l-39 40q74 93 74 161q-101 27 -101 98q0 49 27.5 84.5t82.5 35.5q59 0 89.5 -39t30.5 -102z"/>
<glyph glyph-name="Ograve.c2sc" horiz-adv-x="1240" d="M1163 551q0 -267 -168 -424.5t-388 -157.5q-211 0 -370.5 145.5t-159.5 393.5q0 268 168 425t388 157q211 0 370.5 -145t159.5 -394zM988 533q0 204 -115.5 317t-264.5 113q-139 0 -247.5 -119t-108.5 -314q0 -203 115.5 -317t264.5 -114q139 0 247.5 119.5t108.5 314.5z M728 1166h-120q0 16 -138 164t-138 160h216q0 -11 90 -159.5t90 -164.5z"/>
<glyph glyph-name="Oacute.c2sc" horiz-adv-x="1240" d="M1163 551q0 -267 -168 -424.5t-388 -157.5q-211 0 -370.5 145.5t-159.5 393.5q0 268 168 425t388 157q211 0 370.5 -145t159.5 -394zM988 533q0 204 -115.5 317t-264.5 113q-139 0 -247.5 -119t-108.5 -314q0 -203 115.5 -317t264.5 -114q139 0 247.5 119.5t108.5 314.5z M997 1490q0 -12 -138 -160t-138 -164h-120q0 16 90 164.5t90 159.5h216z"/>
<glyph glyph-name="Ocircumflex.c2sc" horiz-adv-x="1240" d="M1163 551q0 -267 -168 -424.5t-388 -157.5q-211 0 -370.5 145.5t-159.5 393.5q0 268 168 425t388 157q211 0 370.5 -145t159.5 -394zM988 533q0 204 -115.5 317t-264.5 113q-139 0 -247.5 -119t-108.5 -314q0 -203 115.5 -317t264.5 -114q139 0 247.5 119.5t108.5 314.5z M925 1166h-104q0 13 -187 208q-187 -195 -187 -208h-104q0 13 94.5 160.5t99.5 163.5h194q5 -16 99.5 -163.5t94.5 -160.5z"/>
<glyph glyph-name="Otilde.c2sc" horiz-adv-x="1240" d="M1163 551q0 -267 -168 -424.5t-388 -157.5q-211 0 -370.5 145.5t-159.5 393.5q0 268 168 425t388 157q211 0 370.5 -145t159.5 -394zM988 533q0 204 -115.5 317t-264.5 113q-139 0 -247.5 -119t-108.5 -314q0 -203 115.5 -317t264.5 -114q139 0 247.5 119.5t108.5 314.5z M1024 1446q-110 -221 -250 -221q-51 0 -128.5 24t-125.5 24q-88 0 -172 -120l-62 50q110 221 250 221q51 0 128.5 -24t125.5 -24q88 0 172 120z"/>
<glyph glyph-name="Odieresis.c2sc" horiz-adv-x="1240" d="M1163 551q0 -267 -168 -424.5t-388 -157.5q-211 0 -370.5 145.5t-159.5 393.5q0 268 168 425t388 157q211 0 370.5 -145t159.5 -394zM988 533q0 204 -115.5 317t-264.5 113q-139 0 -247.5 -119t-108.5 -314q0 -203 115.5 -317t264.5 -114q139 0 247.5 119.5t108.5 314.5z M548 1331q0 -46 -30.5 -80.5t-84.5 -34.5q-45 0 -70 30t-25 72q0 44 30.5 77.5t85.5 33.5q45 0 69.5 -28.5t24.5 -69.5zM926 1331q0 -46 -30.5 -80.5t-84.5 -34.5q-45 0 -70 30t-25 72q0 44 30.5 77.5t85.5 33.5q45 0 69.5 -28.5t24.5 -69.5z"/>
<glyph glyph-name="Omacron.c2sc" horiz-adv-x="1240" d="M1163 551q0 -267 -168 -424.5t-388 -157.5q-211 0 -370.5 145.5t-159.5 393.5q0 268 168 425t388 157q211 0 370.5 -145t159.5 -394zM988 533q0 204 -115.5 317t-264.5 113q-139 0 -247.5 -119t-108.5 -314q0 -203 115.5 -317t264.5 -114q139 0 247.5 119.5t108.5 314.5z M869 1390l-12 -124h-434l11 124h435z"/>
<glyph glyph-name="Obreve.c2sc" horiz-adv-x="1240" d="M1163 551q0 -267 -168 -424.5t-388 -157.5q-211 0 -370.5 145.5t-159.5 393.5q0 268 168 425t388 157q211 0 370.5 -145t159.5 -394zM988 533q0 204 -115.5 317t-264.5 113q-139 0 -247.5 -119t-108.5 -314q0 -203 115.5 -317t264.5 -114q139 0 247.5 119.5t108.5 314.5z M948 1420q-95 -228 -306 -228q-221 0 -308 228l100 50q72 -154 206 -154q124 0 208 154z"/>
<glyph glyph-name="Ohungarumlaut.c2sc" horiz-adv-x="1240" d="M1163 551q0 -267 -168 -424.5t-388 -157.5q-211 0 -370.5 145.5t-159.5 393.5q0 268 168 425t388 157q211 0 370.5 -145t159.5 -394zM988 533q0 204 -115.5 317t-264.5 113q-139 0 -247.5 -119t-108.5 -314q0 -203 115.5 -317t264.5 -114q139 0 247.5 119.5t108.5 314.5z M698 1490q0 -22 -92 -165t-92 -159h-94q0 16 35 159.5t35 164.5h208zM1058 1490q0 -22 -92 -165t-92 -159h-94q0 16 35 159.5t35 164.5h208z"/>
<glyph glyph-name="Oslash.c2sc" horiz-adv-x="1240" d="M1188 1084q0 -38 -135 -193q111 -141 111 -340q0 -267 -168 -424.5t-388 -157.5q-181 0 -323 106q-123 -138 -123 -169l-111 27q0 41 154 214q-127 145 -127 361q0 268 168 425t388 157q197 0 343 -121q99 115 99 141zM873 851q-108 112 -264 112q-139 0 -247.5 -119 t-108.5 -314q0 -148 68 -256zM989 533q0 128 -53 228l-545 -570q105 -92 242 -92q139 0 247.5 119.5t108.5 314.5z"/>
<glyph glyph-name="Oslashacute.c2sc" horiz-adv-x="1240" d="M1188 1084q0 -38 -135 -193q111 -141 111 -340q0 -267 -168 -424.5t-388 -157.5q-181 0 -323 106q-123 -138 -123 -169l-111 27q0 41 154 214q-127 145 -127 361q0 268 168 425t388 157q197 0 343 -121q99 115 99 141zM873 851q-108 112 -264 112q-139 0 -247.5 -119 t-108.5 -314q0 -148 68 -256zM989 533q0 128 -53 228l-545 -570q105 -92 242 -92q139 0 247.5 119.5t108.5 314.5zM970 1490q0 -12 -138 -160t-138 -164h-120q0 16 90 164.5t90 159.5h216z"/>
<glyph glyph-name="OE.c2sc" horiz-adv-x="1606" d="M1562 136l-6 -136h-722q-124 -30 -237 -30q-256 0 -388 161t-132 382q0 224 144 400.5t393 176.5q103 0 238 -22h663l-7 -136q-305 11 -523 11q7 -123 7 -327q175 0 436 6l-6 -129q-217 8 -430 8q0 -199 10 -377q206 0 560 12zM834 560q0 221 -6 378q-105 25 -232 25 q-166 0 -251.5 -125t-85.5 -300q0 -174 95.5 -306t259.5 -132q133 0 213 32q7 177 7 428z"/>
<glyph glyph-name="Racute.c2sc" horiz-adv-x="1036" d="M1014 0h-190q-82 229 -125.5 315t-97 111t-171.5 25q-70 0 -126 -2q0 -253 11 -449h-182q13 253 13 560q0 291 -13 508h130q45 0 106.5 2.5t138.5 2.5q390 0 390 -250q0 -205 -220 -289v-9q95 -26 153 -120t183 -405zM731 766q0 188 -271 188q-97 0 -164 -10 q6 -140 6 -376q53 -2 98 -2q331 0 331 200zM835 1490q0 -12 -138 -160t-138 -164h-120q0 16 90 164.5t90 159.5h216z"/>
<glyph glyph-name="Rcaron.c2sc" horiz-adv-x="1036" d="M1014 0h-190q-82 229 -125.5 315t-97 111t-171.5 25q-70 0 -126 -2q0 -253 11 -449h-182q13 253 13 560q0 291 -13 508h130q45 0 106.5 2.5t138.5 2.5q390 0 390 -250q0 -205 -220 -289v-9q95 -26 153 -120t183 -405zM731 766q0 188 -271 188q-97 0 -164 -10 q6 -140 6 -376q53 -2 98 -2q331 0 331 200zM799 1490q0 -13 -94.5 -160.5t-99.5 -163.5h-194q-5 16 -99.5 163.5t-94.5 160.5h104q0 -13 187 -208q187 195 187 208h104z"/>
<glyph glyph-name="Rcommaaccent.c2sc" horiz-adv-x="1036" d="M1014 0h-190q-82 229 -125.5 315t-97 111t-171.5 25q-70 0 -126 -2q0 -253 11 -449h-182q13 253 13 560q0 291 -13 508h130q45 0 106.5 2.5t138.5 2.5q390 0 390 -250q0 -205 -220 -289v-9q95 -26 153 -120t183 -405zM731 766q0 188 -271 188q-97 0 -164 -10 q6 -140 6 -376q53 -2 98 -2q331 0 331 200zM658 -248q0 -77 -53 -159.5t-111 -118.5l-39 40q74 93 74 161q-101 27 -101 98q0 49 27.5 84.5t82.5 35.5q59 0 89.5 -39t30.5 -102z"/>
<glyph glyph-name="Sacute.c2sc" horiz-adv-x="936" d="M853 279q0 -307 -463 -307q-166 0 -298 36l34 141q132 -48 264 -48q300 0 300 142q0 77 -69 131q-54 42 -201 102q-155 64 -222 124q-88 79 -88 197q0 126 98.5 206t291.5 80q201 0 287 -26l-23 -141q-116 39 -264 39q-231 0 -231 -129q0 -66 59 -109q44 -33 181 -87 q164 -65 238 -128q106 -90 106 -223zM824 1490q0 -12 -138 -160t-138 -164h-120q0 16 90 164.5t90 159.5h216z"/>
<glyph glyph-name="Scircumflex.c2sc" horiz-adv-x="936" d="M853 279q0 -307 -463 -307q-166 0 -298 36l34 141q132 -48 264 -48q300 0 300 142q0 77 -69 131q-54 42 -201 102q-155 64 -222 124q-88 79 -88 197q0 126 98.5 206t291.5 80q201 0 287 -26l-23 -141q-116 39 -264 39q-231 0 -231 -129q0 -66 59 -109q44 -33 181 -87 q164 -65 238 -128q106 -90 106 -223zM783 1166h-104q0 13 -187 208q-187 -195 -187 -208h-104q0 13 94.5 160.5t99.5 163.5h194q5 -16 99.5 -163.5t94.5 -160.5z"/>
<glyph glyph-name="Scaron.c2sc" horiz-adv-x="936" d="M853 279q0 -307 -463 -307q-166 0 -298 36l34 141q132 -48 264 -48q300 0 300 142q0 77 -69 131q-54 42 -201 102q-155 64 -222 124q-88 79 -88 197q0 126 98.5 206t291.5 80q201 0 287 -26l-23 -141q-116 39 -264 39q-231 0 -231 -129q0 -66 59 -109q44 -33 181 -87 q164 -65 238 -128q106 -90 106 -223zM790 1490q0 -13 -94.5 -160.5t-99.5 -163.5h-194q-5 16 -99.5 163.5t-94.5 160.5h104q0 -13 187 -208q187 195 187 208h104z"/>
<glyph glyph-name="Scedilla.c2sc" horiz-adv-x="936" d="M856 279q0 -283 -395 -305l-8 -74q196 -47 196 -192q0 -222 -240 -222l-14 92q47 0 76.5 32t29.5 76q0 113 -152 142l29 144q-157 2 -286 34l37 143q132 -48 264 -48q300 0 300 142q0 77 -69 131q-54 42 -201 102q-155 64 -222 124q-88 79 -88 197q0 126 98.5 206 t291.5 80q201 0 287 -26l-23 -141q-116 39 -264 39q-231 0 -231 -129q0 -66 59 -109q44 -33 181 -87q164 -65 238 -128q106 -90 106 -223z"/>
<glyph glyph-name="Scommaaccent.c2sc" horiz-adv-x="936" d="M853 279q0 -307 -463 -307q-166 0 -298 36l34 141q132 -48 264 -48q300 0 300 142q0 77 -69 131q-54 42 -201 102q-155 64 -222 124q-88 79 -88 197q0 126 98.5 206t291.5 80q201 0 287 -26l-23 -141q-116 39 -264 39q-231 0 -231 -129q0 -66 59 -109q44 -33 181 -87 q164 -65 238 -128q106 -90 106 -223zM553 -248q0 -77 -53 -159.5t-111 -118.5l-39 40q74 93 74 161q-101 27 -101 98q0 49 27.5 84.5t82.5 35.5q59 0 89.5 -39t30.5 -102z"/>
<glyph glyph-name="Tcaron.c2sc" horiz-adv-x="907" d="M896 1068l-5 -129q-175 9 -352 9q-3 -118 -3 -388q0 -274 8 -560h-179q11 275 11 560q0 227 -5 388q-129 0 -360 -11l5 131h880zM753 1490q0 -13 -94.5 -160.5t-99.5 -163.5h-194q-5 16 -99.5 163.5t-94.5 160.5h104q0 -13 187 -208q187 195 187 208h104z"/>
<glyph glyph-name="Tcommaaccent.c2sc" horiz-adv-x="907" d="M896 1068l-5 -129q-175 9 -352 9q-3 -118 -3 -388q0 -274 8 -560h-179q11 275 11 560q0 227 -5 388q-129 0 -360 -11l5 131h880zM568 -248q0 -77 -53 -159.5t-111 -118.5l-39 40q74 93 74 161q-101 27 -101 98q0 49 27.5 84.5t82.5 35.5q59 0 89.5 -39t30.5 -102z"/>
<glyph glyph-name="Tbar.c2sc" horiz-adv-x="907" d="M896 1068l-5 -129q-175 9 -352 9q-3 -105 -3 -330h294l-10 -108h-284q0 -250 8 -510h-179q10 251 11 510h-292l10 108h282q-1 190 -5 330q-129 0 -360 -11l5 131h880z"/>
<glyph glyph-name="Ugrave.c2sc" horiz-adv-x="1190" d="M1068 1068q-8 -302 -8 -543q0 -548 -467 -548q-227 0 -345 119.5t-118 446.5q0 225 -8 525h186q-11 -305 -11 -500q0 -263 69.5 -366.5t229.5 -103.5q162 0 233 96.5t71 375.5q0 190 -12 498h180zM707 1166h-120q0 16 -138 164t-138 160h216q0 -11 90 -159.5t90 -164.5z "/>
<glyph glyph-name="Uacute.c2sc" horiz-adv-x="1190" d="M1068 1068q-8 -302 -8 -543q0 -548 -467 -548q-227 0 -345 119.5t-118 446.5q0 225 -8 525h186q-11 -305 -11 -500q0 -263 69.5 -366.5t229.5 -103.5q162 0 233 96.5t71 375.5q0 190 -12 498h180zM929 1490q0 -12 -138 -160t-138 -164h-120q0 16 90 164.5t90 159.5h216z "/>
<glyph glyph-name="Ucircumflex.c2sc" horiz-adv-x="1190" d="M1068 1068q-8 -302 -8 -543q0 -548 -467 -548q-227 0 -345 119.5t-118 446.5q0 225 -8 525h186q-11 -305 -11 -500q0 -263 69.5 -366.5t229.5 -103.5q162 0 233 96.5t71 375.5q0 190 -12 498h180zM887 1166h-104q0 13 -187 208q-187 -195 -187 -208h-104q0 13 94.5 160.5 t99.5 163.5h194q5 -16 99.5 -163.5t94.5 -160.5z"/>
<glyph glyph-name="Utilde.c2sc" horiz-adv-x="1190" d="M1068 1068q-8 -302 -8 -543q0 -548 -467 -548q-227 0 -345 119.5t-118 446.5q0 225 -8 525h186q-11 -305 -11 -500q0 -263 69.5 -366.5t229.5 -103.5q162 0 233 96.5t71 375.5q0 190 -12 498h180zM980 1446q-110 -221 -250 -221q-51 0 -128.5 24t-125.5 24 q-88 0 -172 -120l-62 50q110 221 250 221q51 0 128.5 -24t125.5 -24q88 0 172 120z"/>
<glyph glyph-name="Udieresis.c2sc" horiz-adv-x="1190" d="M1068 1068q-8 -302 -8 -543q0 -548 -467 -548q-227 0 -345 119.5t-118 446.5q0 225 -8 525h186q-11 -305 -11 -500q0 -263 69.5 -366.5t229.5 -103.5q162 0 233 96.5t71 375.5q0 190 -12 498h180zM524 1331q0 -46 -30.5 -80.5t-84.5 -34.5q-45 0 -70 30t-25 72 q0 44 30.5 77.5t85.5 33.5q45 0 69.5 -28.5t24.5 -69.5zM902 1331q0 -46 -30.5 -80.5t-84.5 -34.5q-45 0 -70 30t-25 72q0 44 30.5 77.5t85.5 33.5q45 0 69.5 -28.5t24.5 -69.5z"/>
<glyph glyph-name="Umacron.c2sc" horiz-adv-x="1190" d="M1068 1068q-8 -302 -8 -543q0 -548 -467 -548q-227 0 -345 119.5t-118 446.5q0 225 -8 525h186q-11 -305 -11 -500q0 -263 69.5 -366.5t229.5 -103.5q162 0 233 96.5t71 375.5q0 190 -12 498h180zM834 1390l-12 -124h-434l11 124h435z"/>
<glyph glyph-name="Ubreve.c2sc" horiz-adv-x="1190" d="M1068 1068q-8 -302 -8 -543q0 -548 -467 -548q-227 0 -345 119.5t-118 446.5q0 225 -8 525h186q-11 -305 -11 -500q0 -263 69.5 -366.5t229.5 -103.5q162 0 233 96.5t71 375.5q0 190 -12 498h180zM918 1420q-95 -228 -306 -228q-221 0 -308 228l100 50q72 -154 206 -154 q124 0 208 154z"/>
<glyph glyph-name="Uring.c2sc" horiz-adv-x="1190" d="M1068 1068q-8 -302 -8 -543q0 -548 -467 -548q-227 0 -345 119.5t-118 446.5q0 225 -8 525h186q-11 -305 -11 -500q0 -263 69.5 -366.5t229.5 -103.5q162 0 233 96.5t71 375.5q0 190 -12 498h180zM824 1367q0 -104 -69 -165t-159 -61q-82 0 -139 51.5t-57 147.5 q0 103 69 163t159 60q82 0 139 -51t57 -145zM730 1359q0 57 -32 87.5t-78 30.5q-50 0 -88 -35.5t-38 -96.5q0 -57 32 -87.5t78 -30.5q50 0 88 35.5t38 96.5z"/>
<glyph glyph-name="Uhungarumlaut.c2sc" horiz-adv-x="1190" d="M1068 1068q-8 -302 -8 -543q0 -548 -467 -548q-227 0 -345 119.5t-118 446.5q0 225 -8 525h186q-11 -305 -11 -500q0 -263 69.5 -366.5t229.5 -103.5q162 0 233 96.5t71 375.5q0 190 -12 498h180zM643 1490q0 -22 -92 -165t-92 -159h-94q0 16 35 159.5t35 164.5h208z M1003 1490q0 -22 -92 -165t-92 -159h-94q0 16 35 159.5t35 164.5h208z"/>
<glyph glyph-name="Uogonek.c2sc" horiz-adv-x="1190" d="M1068 1068q-8 -302 -8 -543q0 -395 -241 -505q-201 -106 -201 -244q0 -126 102 -126q40 0 86 16l28 -137q-53 -15 -136 -15q-101 0 -159.5 50t-58.5 166q0 138 151 247v1q-19 -1 -38 -1q-232 0 -347.5 121.5t-115.5 442.5q0 227 -8 527h186q-11 -305 -11 -500 q0 -263 69.5 -366.5t229.5 -103.5q162 0 233 96.5t71 375.5q0 190 -12 498h180z"/>
<glyph glyph-name="Wgrave.c2sc" horiz-adv-x="1634" d="M1612 1068q0 -63 -187.5 -537t-187.5 -531h-140q0 70 -131 406q-142 363 -161 470h-12q-17 -113 -145 -478q-119 -342 -119 -398h-141q0 82 -183 558t-183 510h192q0 -38 126 -422.5t126 -467.5h10q0 87 129.5 464t129.5 426h175q0 -55 133.5 -449t133.5 -441h11 q0 76 121.5 443.5t121.5 446.5h181zM899 1166h-120q0 16 -138 164t-138 160h216q0 -11 90 -159.5t90 -164.5z"/>
<glyph glyph-name="Wacute.c2sc" horiz-adv-x="1634" d="M1612 1068q0 -63 -187.5 -537t-187.5 -531h-140q0 70 -131 406q-142 363 -161 470h-12q-17 -113 -145 -478q-119 -342 -119 -398h-141q0 82 -183 558t-183 510h192q0 -38 126 -422.5t126 -467.5h10q0 87 129.5 464t129.5 426h175q0 -55 133.5 -449t133.5 -441h11 q0 76 121.5 443.5t121.5 446.5h181zM1142 1490q0 -12 -138 -160t-138 -164h-120q0 16 90 164.5t90 159.5h216z"/>
<glyph glyph-name="Wcircumflex.c2sc" horiz-adv-x="1634" d="M1612 1068q0 -63 -187.5 -537t-187.5 -531h-140q0 70 -131 406q-142 363 -161 470h-12q-17 -113 -145 -478q-119 -342 -119 -398h-141q0 82 -183 558t-183 510h192q0 -38 126 -422.5t126 -467.5h10q0 87 129.5 464t129.5 426h175q0 -55 133.5 -449t133.5 -441h11 q0 76 121.5 443.5t121.5 446.5h181zM1099 1166h-104q0 13 -187 208q-187 -195 -187 -208h-104q0 13 94.5 160.5t99.5 163.5h194q5 -16 99.5 -163.5t94.5 -160.5z"/>
<glyph glyph-name="Wdieresis.c2sc" horiz-adv-x="1634" d="M1612 1068q0 -63 -187.5 -537t-187.5 -531h-140q0 70 -131 406q-142 363 -161 470h-12q-17 -113 -145 -478q-119 -342 -119 -398h-141q0 82 -183 558t-183 510h192q0 -38 126 -422.5t126 -467.5h10q0 87 129.5 464t129.5 426h175q0 -55 133.5 -449t133.5 -441h11 q0 76 121.5 443.5t121.5 446.5h181zM732 1331q0 -46 -30.5 -80.5t-84.5 -34.5q-45 0 -70 30t-25 72q0 44 30.5 77.5t85.5 33.5q45 0 69.5 -28.5t24.5 -69.5zM1110 1331q0 -46 -30.5 -80.5t-84.5 -34.5q-45 0 -70 30t-25 72q0 44 30.5 77.5t85.5 33.5q45 0 69.5 -28.5 t24.5 -69.5z"/>
<glyph glyph-name="Ygrave.c2sc" horiz-adv-x="979" d="M968 1068q0 -31 -129.5 -210t-204.5 -299t-75 -208q0 -171 11 -351h-187q12 172 12 352q0 95 -77 229t-192 299.5t-115 187.5h202q0 -23 142.5 -258.5t142.5 -309.5h10q0 74 136.5 302t136.5 266h187zM586 1166h-120q0 16 -138 164t-138 160h216q0 -11 90 -159.5 t90 -164.5z"/>
<glyph glyph-name="Yacute.c2sc" horiz-adv-x="979" d="M968 1068q0 -31 -129.5 -210t-204.5 -299t-75 -208q0 -171 11 -351h-187q12 172 12 352q0 95 -77 229t-192 299.5t-115 187.5h202q0 -23 142.5 -258.5t142.5 -309.5h10q0 74 136.5 302t136.5 266h187zM834 1490q0 -12 -138 -160t-138 -164h-120q0 16 90 164.5t90 159.5 h216z"/>
<glyph glyph-name="Ycircumflex.c2sc" horiz-adv-x="979" d="M968 1068q0 -31 -129.5 -210t-204.5 -299t-75 -208q0 -171 11 -351h-187q12 172 12 352q0 95 -77 229t-192 299.5t-115 187.5h202q0 -23 142.5 -258.5t142.5 -309.5h10q0 74 136.5 302t136.5 266h187zM790 1166h-104q0 13 -187 208q-187 -195 -187 -208h-104 q0 13 94.5 160.5t99.5 163.5h194q5 -16 99.5 -163.5t94.5 -160.5z"/>
<glyph glyph-name="Ydieresis.c2sc" horiz-adv-x="979" d="M968 1068q0 -31 -129.5 -210t-204.5 -299t-75 -208q0 -171 11 -351h-187q12 172 12 352q0 95 -77 229t-192 299.5t-115 187.5h202q0 -23 142.5 -258.5t142.5 -309.5h10q0 74 136.5 302t136.5 266h187zM410 1331q0 -46 -30.5 -80.5t-84.5 -34.5q-45 0 -70 30t-25 72 q0 44 30.5 77.5t85.5 33.5q45 0 69.5 -28.5t24.5 -69.5zM788 1331q0 -46 -30.5 -80.5t-84.5 -34.5q-45 0 -70 30t-25 72q0 44 30.5 77.5t85.5 33.5q45 0 69.5 -28.5t24.5 -69.5z"/>
<glyph glyph-name="Zacute.c2sc" horiz-adv-x="900" d="M834 145l-6 -145h-762l9 113q112 144 320 453q228 338 228 377v10q-197 0 -542 -21l5 136h723l-8 -117q-102 -134 -305 -447q-217 -335 -217 -370v-10q183 0 555 21zM748 1490q0 -12 -138 -160t-138 -164h-120q0 16 90 164.5t90 159.5h216z"/>
<glyph glyph-name="Zcaron.c2sc" horiz-adv-x="900" d="M834 145l-6 -145h-762l9 113q112 144 320 453q228 338 228 377v10q-197 0 -542 -21l5 136h723l-8 -117q-102 -134 -305 -447q-217 -335 -217 -370v-10q183 0 555 21zM744 1490q0 -13 -94.5 -160.5t-99.5 -163.5h-194q-5 16 -99.5 163.5t-94.5 160.5h104q0 -13 187 -208 q187 195 187 208h104z"/>
<glyph glyph-name="Zdotaccent.c2sc" horiz-adv-x="900" d="M834 145l-6 -145h-762l9 113q112 144 320 453q228 338 228 377v10q-197 0 -542 -21l5 136h723l-8 -117q-102 -134 -305 -447q-217 -335 -217 -370v-10q183 0 555 21zM567 1330q0 -51 -33 -88.5t-93 -37.5q-51 0 -79.5 32.5t-28.5 78.5q0 50 34 87t94 37q49 0 77.5 -32.5 t28.5 -76.5z"/>
<glyph glyph-name="Eng.c2sc" horiz-adv-x="1164" d="M1031 -59q0 -175 -117 -279t-308 -104l-8 130q146 4 217 67.5t72 244.5q0 18 -279 385q-291 384 -332 493h-10q18 -194 18 -336q0 -259 12 -542h-163q15 263 15 560q0 291 -15 508h190q0 -27 255 -368q268 -359 306 -471h10q-17 196 -17 337q0 286 -13 502h167 q-13 -215 -13 -508q0 -298 6.5 -420.5t6.5 -198.5z"/>
<glyph glyph-name="Eth.c2sc" horiz-adv-x="1130" d="M1053 572q0 -233 -159.5 -408t-440.5 -175q-102 0 -320 11q13 204 13 479l-138 -13l8 139q73 -3 130 -3q0 236 -13 466h110q36 0 111 2.5t110 2.5q295 0 442 -144t147 -357zM881 535q0 173 -117.5 294t-352.5 121q-53 0 -118 -7q9 -128 8 -340q120 8 332 26l-6 -135 q-202 -1 -326 -6q0 -217 9 -363q68 -14 134 -14q220 0 328.5 123.5t108.5 300.5z"/>
<glyph glyph-name="Thorn.c2sc" horiz-adv-x="953" d="M920 665q0 -192 -153.5 -285.5t-407.5 -93.5h-53q0 -117 9 -286h-182q11 275 11 565q0 281 -11 503h184q-9 -97 -9 -140q125 5 237 5q169 0 272 -71t103 -197zM755 613q0 203 -296 203q-73 0 -153 -12q-2 -118 -2 -224q0 -95 2 -180h69q380 0 380 213z"/>
<glyph glyph-name="a.superior" horiz-adv-x="544" d="M493 621l-118 -5q-2 10 -7 47h-9q-67 -55 -158 -55q-84 0 -125 40t-41 106q0 87 48.5 127.5t100.5 52.5t177 16v6q0 67 -27 88.5t-102 21.5q-74 0 -178 -27l13 104q93 27 194 27t160.5 -41t59.5 -145q0 -13 -0.5 -36t-1.5 -86q-2 -102 2 -148.5t12 -92.5zM361 743 q-2 38 -2 66v58q-71 -1 -127 -14q-76 -22 -76 -87q0 -58 84 -58q75 0 121 35z"/>
<glyph glyph-name="b.superior" horiz-adv-x="614" d="M573 906q0 -117 -68.5 -208t-196.5 -91q-89 0 -130 27h-6l-3 -14h-107q4 92 6 197.5t2 212.5q0 94 -5 184.5t-15 178.5l143 7q-2 -42 -3.5 -108.5t-7.5 -169.5h6q54 49 148 49q110 0 173.5 -78t63.5 -187zM443 895q0 73 -36.5 123.5t-103.5 50.5q-82 0 -118 -47 q0 -94 2 -166t6 -129q19 -15 42 -21t52 -6q79 0 117.5 57t38.5 138zM287 1417z"/>
<glyph glyph-name="c.superior" horiz-adv-x="482" d="M471 637q-55 -30 -122 -30q-150 0 -229.5 77.5t-79.5 194.5q0 56 20 107t59 93.5t93.5 66.5t122.5 24q67 0 123 -19l-19 -114q-78 29 -128 29q-64 0 -95 -36.5t-41 -67t-10 -66.5q0 -81 48 -133t137 -52q37 0 129 26z"/>
<glyph glyph-name="d.superior" horiz-adv-x="614" d="M550 1398q-5 -67 -8 -162.5t-3 -204.5q0 -112 3 -217.5t8 -193.5l-113 -4q-2 11 -3 44h-7q-62 -53 -156 -53q-113 0 -172 79t-59 183q0 59 17 110.5t51.5 96.5t84.5 70t113 25q73 0 103 -22h11q-1 69 -3.5 128t-4.5 116zM429 744q0 81 -2 155.5t-7 149.5q-37 28 -94 28 q-38 0 -68 -15.5t-59 -57t-29 -121.5q0 -83 37.5 -129.5t102.5 -46.5q81 0 119 37zM287 1417z"/>
<glyph glyph-name="e.superior" horiz-adv-x="566" d="M527 945q0 -35 -1 -53.5t-1 -21.5l-360 -7q3 -53 53.5 -102.5t129.5 -49.5q78 0 171 26l-13 -106q-63 -24 -168 -24q-145 0 -221.5 81t-76.5 191q0 119 70.5 207.5t191.5 88.5q111 0 168 -64t57 -166zM403 959q-4 120 -106 120t-126 -126z"/>
<glyph glyph-name="f.superior" horiz-adv-x="395" d="M403 1396l-22 -99q-48 12 -77 12q-36 0 -50 -33t-16 -135q47 1 148 7l-6 -108q-113 1 -142 1q0 -115 2 -224t6 -197h-132q4 89 6.5 193.5t2.5 227.5q-37 0 -115 -1l6 107q63 -6 109 -6q2 135 43 202t153 67q30 0 84 -14zM207 1417zM180 1152z"/>
<glyph glyph-name="g.superior" horiz-adv-x="609" d="M594 1213l-12 -96q-89 0 -105 -19q17 -21 25 -46t8 -52q0 -84 -56.5 -144t-177.5 -60q-49 0 -81 8q-12 -8 -12 -30q0 -23 28.5 -33.5t147.5 -10.5q218 0 218 -149q0 -101 -84.5 -167.5t-216.5 -66.5t-191 50.5t-59 127.5q0 91 78 131l1 8q-28 27 -28 77q0 46 46 86v5 q-24 16 -39 37t-24 45t-9 50q0 85 57 145t177 60q38 0 70.5 -6.5t56.5 -17.5q25 83 103 83q46 0 79 -15zM463 546q0 41 -37.5 58t-126.5 17q-32 0 -58 1t-53 4q-50 -25 -50 -74q0 -116 151 -116q81 0 127.5 30t46.5 80zM390 978q0 25 -9 46t-33.5 40.5t-70.5 19.5 q-45 0 -76 -27t-31 -73q0 -52 31 -77.5t83 -25.5q42 0 74 24.5t32 72.5zM254 620z"/>
<glyph glyph-name="h.superior" horiz-adv-x="598" d="M540 981q0 -60 -1 -77t-1 -61q0 -94 2 -223h-129q12 150 12 319q0 77 -29 102t-80 25q-66 0 -129 -46q0 -143 1.5 -246t3.5 -154h-127q2 70 3 175.5t1 234.5q0 111 -4.5 201t-12.5 162l137 7q-2 -73 -3 -142.5t-7 -151.5h6q65 64 167 64q89 0 139.5 -43t50.5 -146z M287 1417z"/>
<glyph glyph-name="i.superior" horiz-adv-x="286" d="M211 620h-134q4 54 6.5 121t2.5 136q0 149 -21 269l145 18q-4 -56 -6.5 -131t-2.5 -156q0 -64 3 -131.5t7 -125.5zM231 1316q0 -33 -22 -57t-61 -24q-36 0 -55.5 21.5t-19.5 51.5q0 31 22.5 56t62.5 25q35 0 54 -17.5t19 -55.5z"/>
<glyph glyph-name="j.superior" horiz-adv-x="275" d="M210 1164q-5 -78 -7.5 -169.5t-2.5 -175.5q0 -42 3 -114t3 -100q0 -180 -157 -225l-40 60q26 21 42.5 44t21.5 43q8 31 12 99t4 173q0 225 -24 347zM230 1316q0 -32 -16.5 -50t-31.5 -24.5t-36 -6.5q-36 0 -55 22.5t-19 50.5q0 30 22.5 55.5t62.5 25.5q36 0 54.5 -17.5 t18.5 -55.5zM137 620z"/>
<glyph glyph-name="k.superior" horiz-adv-x="564" d="M559 620h-160q0 28 -92.5 145t-106.5 117h-7q3 -56 5 -124t5 -138h-130q4 98 6 203.5t2 206.5q0 200 -18 363l140 7q-3 -55 -5 -167l-5 -270h10q15 0 91.5 79t76.5 110h149q0 -37 -87 -113t-120 -96v-10q33 -14 139.5 -144.5t106.5 -168.5zM287 1417z"/>
<glyph glyph-name="l.superior" horiz-adv-x="285" d="M216 620h-139q5 88 7.5 193.5t2.5 216.5q0 105 -4 195t-12 168l145 7q-5 -72 -8 -168t-3 -202q0 -109 3 -214.5t8 -195.5zM137 1417z"/>
<glyph glyph-name="m.superior" horiz-adv-x="910" d="M851 620h-129q12 150 12 319q0 77 -29 102t-80 25q-55 0 -103 -34q0 -24 -1 -84.5t-1 -104.5q0 -94 2 -223h-129q12 150 12 319q0 77 -29 102t-80 25q-56 0 -109 -46q3 -143 3 -246t2 -154h-132q5 91 7.5 163t2.5 113q0 123 -27 252l129 18l7 -60h6q55 64 152 64 q113 0 158 -64h9q55 64 157 64q89 0 139.5 -43t50.5 -146q0 -60 -1 -77t-1 -61q0 -94 2 -223z"/>
<glyph glyph-name="uni207F" unicode="ⁿ" horiz-adv-x="598" d="M542 620h-129q12 150 12 319q0 77 -29 102t-80 25q-66 0 -129 -46q3 -143 3 -246t2 -154h-132q5 91 7.5 163t2.5 113q0 123 -27 252l129 18l7 -60h6q65 64 167 64q89 0 139.5 -43t50.5 -146q0 -60 -1 -77t-1 -61q0 -94 2 -223z"/>
<glyph glyph-name="o.superior" horiz-adv-x="617" d="M576 901q0 -136 -79 -218.5t-199 -82.5q-108 0 -182.5 72t-74.5 199q0 144 81 224t198 80q108 0 182 -72t74 -202zM450 883q0 83 -40 140t-102 57q-61 0 -100.5 -56t-39.5 -131q0 -81 39.5 -139t102.5 -58t101.5 57t38.5 130z"/>
<glyph glyph-name="p.superior" horiz-adv-x="614" d="M573 906q0 -117 -68.5 -208t-196.5 -91q-81 0 -110 27h-6q0 -74 0.5 -138.5t2.5 -117.5h-135q7 77 10 167t3 196q0 126 -7.5 227.5t-21.5 179.5l129 18l9 -44h6q54 49 148 49q110 0 173.5 -78t63.5 -187zM443 895q0 73 -36.5 123.5t-103.5 50.5q-82 0 -118 -47 q0 -94 2 -166t6 -129q41 -27 94 -27q79 0 117.5 57t38.5 138z"/>
<glyph glyph-name="q.superior" horiz-adv-x="614" d="M558 379h-132q2 66 3 135t5 146h-7q-62 -53 -156 -53q-113 0 -172 79t-59 183q0 128 73 215t193 87q73 0 133 -33h11l16 14l92 8q-4 -90 -6.5 -186.5t-2.5 -186.5q0 -107 2.5 -212t6.5 -196zM429 744q0 81 -2 155.5t-7 149.5q-37 28 -94 28q-78 0 -117 -57t-39 -137 q0 -83 37.5 -129.5t102.5 -46.5q81 0 119 37z"/>
<glyph glyph-name="r.superior" horiz-adv-x="426" d="M423 1151l-32 -112q-48 16 -89 16q-42 0 -70 -19t-41 -61q-1 -98 -1 -201t2 -154h-132q5 91 7.5 163t2.5 113q0 123 -27 252l129 18l7 -60h6q52 64 121 64q52 0 117 -19z"/>
<glyph glyph-name="s.superior" horiz-adv-x="464" d="M428 779q0 -170 -216 -170q-45 0 -91 5t-92 16l24 111q84 -34 159 -34q101 0 101 46q0 25 -21 43q-23 18 -79 42q-37 14 -66 29.5t-46 29.5q-57 45 -57 109q0 67 48 112q52 49 154 49q97 0 166 -19l-23 -108q-38 15 -73.5 22t-69.5 7q-87 0 -87 -43q0 -25 15 -37 q11 -8 33 -19t52 -24q34 -13 63.5 -28t46.5 -28q29 -24 44 -52t15 -59z"/>
<glyph glyph-name="t.superior" horiz-adv-x="401" d="M390 729l-6 -99q-54 -21 -102 -21q-88 0 -132 48t-44 184v205q-30 0 -88 -6l6 106q49 -5 86 -5q0 17 8 149l115 13q-9 -137 -9 -162q75 1 156 7l-6 -108q-85 6 -151 6q-1 -124 -1 -169q0 -106 19.5 -135.5t71.5 -29.5q27 0 77 17zM170 1152z"/>
<glyph glyph-name="u.superior" horiz-adv-x="598" d="M547 620l-119 -8l-7 60h-6q-65 -64 -166 -64q-80 0 -130.5 43t-50.5 146q0 42 1 73t1 75q0 84 -12 208l139 5q-12 -150 -12 -319q0 -77 29 -102t80 -25q56 0 119 46q-3 143 -3 243q0 101 -2 152l132 5q-5 -91 -7.5 -163t-2.5 -113q0 -123 17 -262z"/>
<glyph glyph-name="v.superior" horiz-adv-x="541" d="M526 1152q0 -37 -107.5 -269t-107.5 -263h-106q0 49 -94.5 271.5t-94.5 260.5h138q0 -37 55.5 -189t55.5 -187h12q0 29 57 175.5t57 200.5h135z"/>
<glyph glyph-name="w.superior" horiz-adv-x="871" d="M844 1152q0 -25 -95.5 -266.5t-95.5 -265.5h-97q0 24 -61 169.5t-70 213.5h-6q-13 -72 -68.5 -219t-55.5 -164h-97q0 46 -85.5 267.5t-85.5 264.5h137q0 -37 45.5 -189t45.5 -187h12q0 29 54.5 175.5t54.5 200.5h126q0 -37 50.5 -189t50.5 -187h12q0 29 49.5 175.5 t49.5 200.5h130z"/>
<glyph glyph-name="x.superior" horiz-adv-x="570" d="M548 620h-160q0 23 -53 107t-53 100h-12q0 -16 -54.5 -100t-54.5 -107h-137q0 34 84.5 149.5t110.5 133.5q-23 21 -97.5 125.5t-74.5 123.5h149q0 -23 45.5 -97t45.5 -90h12q0 16 45 90t45 97h135q0 -23 -68 -121t-103 -125q30 -20 112.5 -141.5t82.5 -144.5z"/>
<glyph glyph-name="y.superior" horiz-adv-x="541" d="M522 1152q0 -50 -80 -236q-48 -106 -75.5 -178.5t-38.5 -112.5q-39 -144 -71 -181q-23 -27 -71.5 -42t-114.5 -15l-7 103q75 0 117 40q39 41 39 103q0 29 -23.5 96.5t-72.5 176.5l-74.5 173t-24.5 73h144q0 -37 55.5 -189t55.5 -187h12q0 29 49.5 175.5t49.5 200.5h131z M264 620z"/>
<glyph glyph-name="z.superior" horiz-adv-x="481" d="M456 620h-423l5 103q23 15 140 162.5t117 161.5q-112 -1 -259 -8l6 113h402l-6 -103q-22 -16 -133.5 -158.5t-111.5 -164.5q148 0 269 10z"/>
<glyph glyph-name="ampersand" unicode="&" horiz-adv-x="1396" d="M1370 0h-217q0 25 -65 123q-63 95 -105 139h-8q-197 -291 -512 -291q-168 0 -274 92t-106 253q0 169 76 279t223 169v7q-180 139 -180 276q0 131 99 204t234 73q134 0 231.5 -72t97.5 -202q0 -83 -53 -156q-55 -76 -146 -113v-10q112 -59 335 -277h6q44 77 44 268h188 q0 -40 -50 -160q-55 -131 -105 -185v-8q75 -69 179 -215q108 -151 108 -194zM913 343v10q-73 77 -144 142q-169 154 -296 216q-211 -95 -211 -325q0 -125 76.5 -199.5t202.5 -74.5q169 0 372 231zM702 1010q0 94 -49.5 142t-119.5 48q-65 0 -114 -39.5t-49 -104.5 q0 -135 204 -230q128 56 128 184z"/>
<glyph glyph-name="ampersand.c2sc" horiz-adv-x="1229" d="M1207 0h-207q0 21 -54 99q-51 74 -87 109h-9q-172 -232 -443 -232q-151 0 -244.5 76t-93.5 208q0 117 65.5 214.5t194.5 145.5v7q-157 112 -157 228q0 109 90 170t212 61q120 0 207 -59.5t87 -166.5q0 -70 -48.5 -130.5t-126.5 -90.5v-9q94 -47 280 -215h6q39 63 39 210 h177q0 -33 -47 -130q-50 -105 -94 -149v-8q67 -57 159 -178q94 -124 94 -160zM792 280v9q-62 62 -121 113q-144 124 -253 173q-177 -75 -177 -258q0 -99 64 -158t172 -59q147 0 315 180zM617 828q0 73 -42 111t-103 38q-57 0 -98.5 -31.5t-41.5 -83.5q0 -110 173 -184 q112 47 112 150z"/>
<glyph glyph-name="grave" unicode="`" horiz-adv-x="562" d="M486 1086h-120q0 16 -138 164t-138 160h216q0 -11 90 -159.5t90 -164.5z"/>
<glyph glyph-name="glyph431" horiz-adv-x="562" d="M476 1416h-120q-10 16 -143 139t-133 135h216q0 -11 90 -134.5t90 -139.5z"/>
<glyph glyph-name="gravecomb" unicode="̀" horiz-adv-x="0" d="M-410 1086h-120q0 16 -138 164t-138 160h216q0 -11 90 -159.5t90 -164.5z"/>
<glyph glyph-name="glyph433" horiz-adv-x="0" d="M-516 1416h-120q-10 16 -143 139t-133 135h216q0 -11 90 -134.5t90 -139.5z"/>
<glyph glyph-name="acute" unicode="´" horiz-adv-x="562" d="M480 1410q0 -12 -138 -160t-138 -164h-120q0 16 90 164.5t90 159.5h216z"/>
<glyph glyph-name="glyph435" horiz-adv-x="562" d="M470 1690q0 -12 -133 -135t-143 -139h-120q0 16 90 139.5t90 134.5h216z"/>
<glyph glyph-name="acutecomb" unicode="́" horiz-adv-x="0" d="M-205 1410q0 -12 -138 -160t-138 -164h-120q0 16 90 164.5t90 159.5h216z"/>
<glyph glyph-name="glyph437" horiz-adv-x="0" d="M-327 1690q0 -12 -133 -135t-143 -139h-120q0 16 90 139.5t90 134.5h216z"/>
<glyph glyph-name="circumflex" unicode="ˆ" horiz-adv-x="782" d="M682 1086h-104q0 13 -187 208q-187 -195 -187 -208h-104q0 13 94.5 160.5t99.5 163.5h194q5 -16 99.5 -163.5t94.5 -160.5z"/>
<glyph glyph-name="glyph439" horiz-adv-x="782" d="M682 1416h-114q-10 13 -177 158q-167 -145 -177 -158h-114q0 13 94.5 135.5t99.5 138.5h194q5 -16 99.5 -138.5t94.5 -135.5z"/>
<glyph glyph-name="uni0302" unicode="̂" horiz-adv-x="0" d="M-195 1086h-104q0 13 -187 208q-187 -195 -187 -208h-104q0 13 94.5 160.5t99.5 163.5h194q5 -16 99.5 -163.5t94.5 -160.5z"/>
<glyph glyph-name="glyph441" horiz-adv-x="0" d="M-316 1416h-114q-10 13 -177 158q-167 -145 -177 -158h-114q0 13 94.5 135.5t99.5 138.5h194q5 -16 99.5 -138.5t94.5 -135.5z"/>
<glyph glyph-name="caron" unicode="ˇ" horiz-adv-x="782" d="M682 1410q0 -13 -94.5 -160.5t-99.5 -163.5h-194q-5 16 -99.5 163.5t-94.5 160.5h104q0 -13 187 -208q187 195 187 208h104z"/>
<glyph glyph-name="glyph443" horiz-adv-x="782" d="M682 1690q0 -13 -94.5 -135.5t-99.5 -138.5h-194q-5 16 -99.5 138.5t-94.5 135.5h114q10 -13 177 -158q167 145 177 158h114z"/>
<glyph glyph-name="uni030C" unicode="̌" horiz-adv-x="0" d="M-261 1410q0 -13 -94.5 -160.5t-99.5 -163.5h-194q-5 16 -99.5 163.5t-94.5 160.5h104q0 -13 187 -208q187 195 187 208h104z"/>
<glyph glyph-name="glyph445" horiz-adv-x="0" d="M-346 1690q0 -13 -94.5 -135.5t-99.5 -138.5h-194q-5 16 -99.5 138.5t-94.5 135.5h114q10 -13 177 -158q167 145 177 158h114z"/>
<glyph glyph-name="uni0315" unicode="̕" horiz-adv-x="166" d="M202 1174q0 -85 -58.5 -175.5t-122.5 -130.5l-43 44q82 102 82 177q-112 30 -112 108q0 54 30.5 93t90.5 39q65 0 99 -43t34 -112z"/>
<glyph glyph-name="tilde" unicode="˜" horiz-adv-x="884" d="M810 1366q-110 -221 -250 -221q-51 0 -128.5 24t-125.5 24q-88 0 -172 -120l-62 50q110 221 250 221q51 0 128.5 -24t125.5 -24q88 0 172 120z"/>
<glyph glyph-name="glyph448" horiz-adv-x="884" d="M810 1640q-110 -185 -250 -185q-51 0 -128.5 24t-125.5 24q-88 0 -172 -84l-62 50q110 185 250 185q51 0 128.5 -24t125.5 -24q88 0 172 84z"/>
<glyph glyph-name="tildecomb" unicode="̃" horiz-adv-x="0" d="M-114 1366q-110 -221 -250 -221q-51 0 -128.5 24t-125.5 24q-88 0 -172 -120l-62 50q110 221 250 221q51 0 128.5 -24t125.5 -24q88 0 172 120z"/>
<glyph glyph-name="glyph450" horiz-adv-x="0" d="M-221 1640q-110 -185 -250 -185q-51 0 -128.5 24t-125.5 24q-88 0 -172 -84l-62 50q110 185 250 185q51 0 128.5 -24t125.5 -24q88 0 172 84z"/>
<glyph glyph-name="dieresis" unicode="¨" horiz-adv-x="836" d="M335 1251q0 -46 -30.5 -80.5t-84.5 -34.5q-45 0 -70 30t-25 72q0 44 30.5 77.5t85.5 33.5q45 0 69.5 -28.5t24.5 -69.5zM713 1251q0 -46 -30.5 -80.5t-84.5 -34.5q-45 0 -70 30t-25 72q0 44 30.5 77.5t85.5 33.5q45 0 69.5 -28.5t24.5 -69.5z"/>
<glyph glyph-name="glyph452" horiz-adv-x="836" d="M335 1559q0 -46 -30.5 -80.5t-84.5 -34.5q-45 0 -70 30t-25 72q0 44 30.5 77.5t85.5 33.5q45 0 69.5 -28.5t24.5 -69.5zM713 1559q0 -46 -30.5 -80.5t-84.5 -34.5q-45 0 -70 30t-25 72q0 44 30.5 77.5t85.5 33.5q45 0 69.5 -28.5t24.5 -69.5z"/>
<glyph glyph-name="uni0308" unicode="̈" horiz-adv-x="0" d="M-617 1251q0 -46 -30.5 -80.5t-84.5 -34.5q-45 0 -70 30t-25 72q0 44 30.5 77.5t85.5 33.5q45 0 69.5 -28.5t24.5 -69.5zM-239 1251q0 -46 -30.5 -80.5t-84.5 -34.5q-45 0 -70 30t-25 72q0 44 30.5 77.5t85.5 33.5q45 0 69.5 -28.5t24.5 -69.5z"/>
<glyph glyph-name="glyph454" horiz-adv-x="0" d="M-702 1559q0 -46 -30.5 -80.5t-84.5 -34.5q-45 0 -70 30t-25 72q0 44 30.5 77.5t85.5 33.5q45 0 69.5 -28.5t24.5 -69.5zM-324 1559q0 -46 -30.5 -80.5t-84.5 -34.5q-45 0 -70 30t-25 72q0 44 30.5 77.5t85.5 33.5q45 0 69.5 -28.5t24.5 -69.5z"/>
<glyph glyph-name="macron" unicode="¯" horiz-adv-x="500" d="M474 1310l-12 -124h-434l11 124h435z"/>
<glyph glyph-name="macron" unicode="ˉ" horiz-adv-x="500" d="M474 1310l-12 -124h-434l11 124h435z"/>
<glyph glyph-name="glyph456" horiz-adv-x="500" d="M494 1600l-12 -124h-474l12 124h474z"/>
<glyph glyph-name="uni0304" unicode="̄" horiz-adv-x="0" d="M-250 1310l-12 -124h-434l11 124h435z"/>
<glyph glyph-name="glyph458" horiz-adv-x="0" d="M-366 1600l-12 -124h-474l12 124h474z"/>
<glyph glyph-name="breve" unicode="˘" horiz-adv-x="782" d="M698 1340q-95 -228 -306 -228q-221 0 -308 228l100 50q72 -154 206 -154q124 0 208 154z"/>
<glyph glyph-name="glyph460" horiz-adv-x="782" d="M698 1640q-95 -218 -306 -218q-221 0 -308 218l100 50q72 -144 206 -144q124 0 208 144z"/>
<glyph glyph-name="uni0306" unicode="̆" horiz-adv-x="0" d="M-225 1340q-95 -228 -306 -228q-221 0 -308 228l100 50q72 -154 206 -154q124 0 208 154z"/>
<glyph glyph-name="glyph462" horiz-adv-x="0" d="M-315 1640q-95 -218 -306 -218q-221 0 -308 218l100 50q72 -144 206 -144q124 0 208 144z"/>
<glyph glyph-name="ring" unicode="˚" horiz-adv-x="610" d="M517 1287q0 -104 -69 -165t-159 -61q-82 0 -139 51.5t-57 147.5q0 103 69 163t159 60q82 0 139 -51t57 -145zM423 1279q0 57 -32 87.5t-78 30.5q-50 0 -88 -35.5t-38 -96.5q0 -57 32 -87.5t78 -30.5q50 0 88 35.5t38 96.5z"/>
<glyph glyph-name="glyph464" horiz-adv-x="610" d="M517 1584q0 -104 -69 -165t-159 -61q-82 0 -139 51.5t-57 147.5q0 103 69 163t159 60q82 0 139 -51t57 -145zM423 1576q0 57 -32 87.5t-78 30.5q-50 0 -88 -35.5t-38 -96.5q0 -57 32 -87.5t78 -30.5q50 0 88 35.5t38 96.5z"/>
<glyph glyph-name="uni030A" unicode="̊" horiz-adv-x="0" d="M-290 1287q0 -104 -69 -165t-159 -61q-82 0 -139 51.5t-57 147.5q0 103 69 163t159 60q82 0 139 -51t57 -145zM-384 1279q0 57 -32 87.5t-78 30.5q-50 0 -88 -35.5t-38 -96.5q0 -57 32 -87.5t78 -30.5q50 0 88 35.5t38 96.5z"/>
<glyph glyph-name="glyph466" horiz-adv-x="0" d="M-418 1584q0 -104 -69 -165t-159 -61q-82 0 -139 51.5t-57 147.5q0 103 69 163t159 60q82 0 139 -51t57 -145zM-512 1576q0 57 -32 87.5t-78 30.5q-50 0 -88 -35.5t-38 -96.5q0 -57 32 -87.5t78 -30.5q50 0 88 35.5t38 96.5z"/>
<glyph glyph-name="hungarumlaut" unicode="˝" horiz-adv-x="882" d="M400 1410q0 -22 -92 -165t-92 -159h-94q0 16 35 159.5t35 164.5h208zM760 1410q0 -22 -92 -165t-92 -159h-94q0 16 35 159.5t35 164.5h208z"/>
<glyph glyph-name="glyph468" horiz-adv-x="882" d="M390 1690q0 -22 -83.5 -140t-90.5 -134h-94q0 16 35 134.5t35 139.5h198zM750 1690q0 -22 -83.5 -140t-90.5 -134h-94q7 16 38.5 134.5t31.5 139.5h198z"/>
<glyph glyph-name="uni030B" unicode="̋" horiz-adv-x="0" d="M-480 1410q0 -22 -92 -165t-92 -159h-94q0 16 35 159.5t35 164.5h208zM-120 1410q0 -22 -92 -165t-92 -159h-94q0 16 35 159.5t35 164.5h208z"/>
<glyph glyph-name="glyph470" horiz-adv-x="0" d="M-597 1690q0 -22 -83.5 -140t-90.5 -134h-94q0 16 35 134.5t35 139.5h198zM-237 1690q0 -22 -83.5 -140t-90.5 -134h-94q7 16 38.5 134.5t31.5 139.5h198z"/>
<glyph glyph-name="dotaccent" unicode="˙" horiz-adv-x="526" d="M399 1250q0 -51 -33 -88.5t-93 -37.5q-51 0 -79.5 32.5t-28.5 78.5q0 50 34 87t94 37q49 0 77.5 -32.5t28.5 -76.5z"/>
<glyph glyph-name="glyph472" horiz-adv-x="526" d="M394 1565q0 -51 -33 -88.5t-93 -37.5q-51 0 -79.5 32.5t-28.5 78.5q0 50 34 87t94 37q49 0 77.5 -32.5t28.5 -76.5z"/>
<glyph glyph-name="uni0307" unicode="̇" horiz-adv-x="0" d="M-411 1250q0 -51 -33 -88.5t-93 -37.5q-51 0 -79.5 32.5t-28.5 78.5q0 50 34 87t94 37q49 0 77.5 -32.5t28.5 -76.5z"/>
<glyph glyph-name="glyph474" horiz-adv-x="0" d="M-508 1565q0 -51 -33 -88.5t-93 -37.5q-51 0 -79.5 32.5t-28.5 78.5q0 50 34 87t94 37q49 0 77.5 -32.5t28.5 -76.5z"/>
<glyph glyph-name="cedilla" unicode="¸" horiz-adv-x="470" d="M416 -292q0 -222 -240 -222l-14 92q47 0 76.5 32t29.5 76q0 113 -152 142l46 224l74 -14l-16 -138q196 -47 196 -192z"/>
<glyph glyph-name="uni0327" unicode="̧" horiz-adv-x="0" d="M-16 -292q0 -222 -240 -222l-14 92q47 0 76.5 32t29.5 76q0 113 -152 142l46 224l74 -14l-16 -138q196 -47 196 -192z"/>
<glyph glyph-name="ogonek" unicode="˛" horiz-adv-x="470" d="M380 -471q-53 -15 -136 -15q-91 0 -154.5 59t-63.5 157q0 134 150 270h151q-163 -115 -163 -244q0 -106 102 -106q40 0 86 16z"/>
<glyph glyph-name="uni0328" unicode="̨" horiz-adv-x="0" d="M-67 -471q-53 -15 -136 -15q-91 0 -154.5 59t-63.5 157q0 134 150 270h151q-163 -115 -163 -244q0 -106 102 -106q40 0 86 16z"/>
<glyph glyph-name="uni0326" unicode="̦" horiz-adv-x="0" d="M-415 -248q0 -77 -53 -159.5t-111 -118.5l-39 40q74 93 74 161q-101 27 -101 98q0 49 27.5 84.5t82.5 35.5q59 0 89.5 -39t30.5 -102z"/>
<glyph glyph-name="uni0312" unicode="̒" horiz-adv-x="0" d="M-404 1254q0 -59 -32.5 -94.5t-87.5 -35.5q-61 0 -90.5 38.5t-29.5 112.5q0 77 53 159.5t111 118.5l39 -40q-64 -93 -64 -151q101 -29 101 -108z"/>
<glyph glyph-name="comma" unicode="," horiz-adv-x="516" d="M390 114q0 -133 -69 -249.5t-211 -240.5l-60 66q152 170 152 314q-86 34 -86 126q0 58 36 101.5t107 43.5q58 0 94.5 -47t36.5 -114zM264 -2z"/>
<glyph glyph-name="semicolon" unicode=";" horiz-adv-x="516" d="M390 114q0 -133 -69 -249.5t-211 -240.5l-60 66q152 170 152 314q-86 34 -86 126q0 58 36 101.5t107 43.5q58 0 94.5 -47t36.5 -114zM264 -2zM393 829q0 -59 -39.5 -104t-109.5 -45q-59 0 -91.5 39t-32.5 93q0 58 40 101.5t111 43.5q59 0 90.5 -37t31.5 -91z"/>
<glyph glyph-name="colon" unicode=":" horiz-adv-x="516" d="M393 829q0 -59 -39.5 -104t-109.5 -45q-59 0 -91.5 39t-32.5 93q0 58 40 101.5t111 43.5q59 0 90.5 -37t31.5 -91zM393 147q0 -59 -39.5 -104t-109.5 -45q-59 0 -91.5 39t-32.5 93q0 58 40 101.5t111 43.5q59 0 90.5 -37t31.5 -91z"/>
<glyph glyph-name="period" unicode="." horiz-adv-x="516" d="M393 147q0 -59 -39.5 -104t-109.5 -45q-59 0 -91.5 39t-32.5 93q0 58 40 101.5t111 43.5q59 0 90.5 -37t31.5 -91z"/>
<glyph glyph-name="ellipsis" unicode="…" horiz-adv-x="2048" d="M1627 147q0 -59 -39.5 -104t-109.5 -45q-59 0 -91.5 39t-32.5 93q0 58 40 101.5t111 43.5q59 0 90.5 -37t31.5 -91zM1010 147q0 -59 -39.5 -104t-109.5 -45q-59 0 -91.5 39t-32.5 93q0 58 40 101.5t111 43.5q59 0 90.5 -37t31.5 -91zM393 147q0 -59 -39.5 -104 t-109.5 -45q-59 0 -91.5 39t-32.5 93q0 58 40 101.5t111 43.5q59 0 90.5 -37t31.5 -91z"/>
<glyph glyph-name="hyphen" unicode="-" horiz-adv-x="516" d="M479 581l-12 -129l-428 -14l9 128z"/>
<glyph glyph-name="hyphen" unicode="‐" horiz-adv-x="516" d="M479 581l-12 -129l-428 -14l9 128z"/>
<glyph glyph-name="hyphen" unicode="­" horiz-adv-x="516" d="M479 581l-12 -129l-428 -14l9 128z"/>
<glyph glyph-name="hyphen.case" horiz-adv-x="516" d="M479 791l-12 -129l-428 -14l9 128z"/>
<glyph glyph-name="exclam" unicode="!" horiz-adv-x="516" d="M378 1167q0 -215 -83 -630h-74q-52 422 -52 618q0 171 118 171q91 0 91 -159zM393 147q0 -59 -39.5 -104t-109.5 -45q-59 0 -91.5 39t-32.5 93q0 58 40 101.5t111 43.5q59 0 90.5 -37t31.5 -91z"/>
<glyph glyph-name="exclamdown" unicode="¡" horiz-adv-x="516" d="M347 -188q0 -171 -118 -171q-91 0 -91 159q0 215 83 630h74q52 -422 52 -618zM396 837q0 -59 -40 -102t-111 -43q-59 0 -90.5 37t-31.5 91q0 59 39.5 104t109.5 45q59 0 91.5 -39t32.5 -93z"/>
<glyph glyph-name="exclamdown.case" horiz-adv-x="516" d="M347 156q0 -171 -118 -171q-91 0 -91 159q0 215 83 630h74q52 -422 52 -618zM396 1181q0 -59 -40 -102t-111 -43q-59 0 -90.5 37t-31.5 91q0 59 39.5 104t109.5 45q59 0 91.5 -39t32.5 -93z"/>
<glyph glyph-name="question" unicode="?" horiz-adv-x="723" d="M653 1023q0 -216 -277 -335l-21 -151h-78l-37 213q243 49 243 242q0 217 -423 217l25 126q568 0 568 -312zM436 147q0 -59 -39.5 -104t-109.5 -45q-59 0 -91.5 39t-32.5 93q0 58 40 101.5t111 43.5q59 0 90.5 -37t31.5 -91z"/>
<glyph glyph-name="questiondown" unicode="¿" horiz-adv-x="723" d="M663 -234l-25 -126q-568 0 -568 312q0 215 277 335l21 151h78l37 -213q-243 -50 -243 -242q0 -217 423 -217zM560 845q0 -59 -38 -100q-43 -45 -113 -45q-59 0 -93 39q-29 35 -29 89q0 59 37 101q42 48 112 48q58 0 93 -41q31 -37 31 -91z"/>
<glyph glyph-name="questiondown.case" horiz-adv-x="723" d="M663 97l-25 -126q-568 0 -568 312q0 215 277 335l21 151h78l37 -213q-243 -50 -243 -242q0 -217 423 -217zM560 1176q0 -59 -38 -100q-43 -45 -113 -45q-59 0 -93 39q-29 35 -29 89q0 59 37 101q42 48 112 48q58 0 93 -41q31 -37 31 -91z"/>
<glyph glyph-name="quoteleft" unicode="‘" horiz-adv-x="516" d="M432 1380q-152 -170 -152 -314q86 -34 86 -126q0 -58 -36 -101.5t-107 -43.5q-58 0 -94.5 47t-36.5 114q0 133 69 249.5t211 240.5zM236 1072z"/>
<glyph glyph-name="quoteright" unicode="’" horiz-adv-x="516" d="M437 1275q0 -133 -69 -249.5t-211 -240.5l-60 66q152 170 152 314q-86 34 -86 126q0 58 36 101.5t107 43.5q58 0 94.5 -47t36.5 -114zM306 1159z"/>
<glyph glyph-name="quoteleft.c2sc" horiz-adv-x="516" d="M432 1281q-152 -170 -152 -314q86 -34 86 -126q0 -58 -36 -101.5t-107 -43.5q-58 0 -94.5 47t-36.5 114q0 133 69 249.5t211 240.5zM236 973z"/>
<glyph glyph-name="quoteright.c2sc" horiz-adv-x="516" d="M437 1176q0 -133 -69 -249.5t-211 -240.5l-60 66q152 170 152 314q-86 34 -86 126q0 58 36 101.5t107 43.5q58 0 94.5 -47t36.5 -114zM306 1060z"/>
<glyph glyph-name="quotedblleft" unicode="“" d="M932 1380q-152 -170 -152 -314q86 -34 86 -126q0 -58 -36 -101.5t-107 -43.5q-58 0 -94.5 47t-36.5 114q0 133 69 249.5t211 240.5zM736 1072zM432 1380q-152 -170 -152 -314q86 -34 86 -126q0 -58 -36 -101.5t-107 -43.5q-58 0 -94.5 47t-36.5 114q0 133 69 249.5 t211 240.5zM236 1072z"/>
<glyph glyph-name="quotedblright" unicode="”" d="M937 1275q0 -133 -69 -249.5t-211 -240.5l-60 66q152 170 152 314q-86 34 -86 126q0 58 36 101.5t107 43.5q58 0 94.5 -47t36.5 -114zM806 1159zM437 1275q0 -133 -69 -249.5t-211 -240.5l-60 66q152 170 152 314q-86 34 -86 126q0 58 36 101.5t107 43.5q58 0 94.5 -47 t36.5 -114zM306 1159z"/>
<glyph glyph-name="quotedblleft.c2sc" d="M932 1281q-152 -170 -152 -314q86 -34 86 -126q0 -58 -36 -101.5t-107 -43.5q-58 0 -94.5 47t-36.5 114q0 133 69 249.5t211 240.5zM736 973zM432 1281q-152 -170 -152 -314q86 -34 86 -126q0 -58 -36 -101.5t-107 -43.5q-58 0 -94.5 47t-36.5 114q0 133 69 249.5 t211 240.5zM236 973z"/>
<glyph glyph-name="quotedblright.c2sc" d="M937 1176q0 -133 -69 -249.5t-211 -240.5l-60 66q152 170 152 314q-86 34 -86 126q0 58 36 101.5t107 43.5q58 0 94.5 -47t36.5 -114zM806 1060zM437 1176q0 -133 -69 -249.5t-211 -240.5l-60 66q152 170 152 314q-86 34 -86 126q0 58 36 101.5t107 43.5q58 0 94.5 -47 t36.5 -114zM306 1060z"/>
<glyph glyph-name="quotesinglbase" unicode="‚" horiz-adv-x="516" d="M390 114q0 -133 -69 -249.5t-211 -240.5l-60 66q152 170 152 314q-86 34 -86 126q0 58 36 101.5t107 43.5q58 0 94.5 -47t36.5 -114zM264 -2z"/>
<glyph glyph-name="quotedblbase" unicode="„" d="M906 114q0 -133 -69 -249.5t-211 -240.5l-60 66q152 170 152 314q-86 34 -86 126q0 58 36 101.5t107 43.5q58 0 94.5 -47t36.5 -114zM780 -2zM390 114q0 -133 -69 -249.5t-211 -240.5l-60 66q152 170 152 314q-86 34 -86 126q0 58 36 101.5t107 43.5q58 0 94.5 -47 t36.5 -114zM264 -2z"/>
<glyph glyph-name="guilsinglleft" unicode="‹" horiz-adv-x="516" d="M446 192l-82 -66l-294 300v124l294 297l82 -66l-227 -293z"/>
<glyph glyph-name="guilsinglright" unicode="›" horiz-adv-x="516" d="M446 426l-293 -300l-83 66l228 294l-228 295l83 66l293 -297v-124z"/>
<glyph glyph-name="guilsinglleft.case" horiz-adv-x="516" d="M446 332l-82 -66l-294 300v124l294 297l82 -66l-227 -293z"/>
<glyph glyph-name="guilsinglright.case" horiz-adv-x="516" d="M446 566l-293 -300l-83 66l228 294l-228 295l83 66l293 -297v-124z"/>
<glyph glyph-name="guillemotleft" unicode="«" horiz-adv-x="929" d="M859 192l-82 -66l-294 300v124l294 297l82 -66l-227 -293zM446 192l-82 -66l-294 300v124l294 297l82 -66l-227 -293z"/>
<glyph glyph-name="guillemotright" unicode="»" horiz-adv-x="929" d="M859 426l-293 -300l-83 66l228 294l-228 295l83 66l293 -297v-124zM446 426l-293 -300l-83 66l228 294l-228 295l83 66l293 -297v-124z"/>
<glyph glyph-name="guillemotleft.case" horiz-adv-x="929" d="M859 332l-82 -66l-294 300v124l294 297l82 -66l-227 -293zM446 332l-82 -66l-294 300v124l294 297l82 -66l-227 -293z"/>
<glyph glyph-name="guillemotright.case" horiz-adv-x="929" d="M859 566l-293 -300l-83 66l228 294l-228 295l83 66l293 -297v-124zM446 566l-293 -300l-83 66l228 294l-228 295l83 66l293 -297v-124z"/>
<glyph glyph-name="slash" unicode="/" horiz-adv-x="547" d="M532 1455q0 -69 -183 -828.5t-183 -928.5h-151q0 65 184 816.5t184 940.5h149z"/>
<glyph glyph-name="bar" unicode="|" horiz-adv-x="516" d="M345 -517h-174q13 351 13 988q0 626 -13 1079h174q-12 -425 -12 -1079t12 -988z"/>
<glyph glyph-name="endash" unicode="–" horiz-adv-x="1024" d="M971 440h-919v128h919v-128z"/>
<glyph glyph-name="endash.case" horiz-adv-x="1024" d="M971 640h-919v128h919v-128z"/>
<glyph glyph-name="emdash" unicode="—" horiz-adv-x="2048" d="M2048 440h-2048v128h2048v-128z"/>
<glyph glyph-name="emdash.case" horiz-adv-x="2048" d="M2048 640h-2048v128h2048v-128z"/>
<glyph glyph-name="afii00208" unicode="―" horiz-adv-x="2048" d="M2005 430h-1962v148h1962v-148z"/>
<glyph glyph-name="afii00208.case" horiz-adv-x="2048" d="M2005 630h-1962v148h1962v-148z"/>
<glyph glyph-name="bullet" unicode="•" horiz-adv-x="1351" d="M979 640q0 -154 -89.5 -240t-213.5 -86q-123 0 -213.5 85.5t-90.5 238.5q0 155 90.5 242t213.5 87t213 -86.5t90 -240.5z"/>
<glyph glyph-name="periodcentered" unicode="·" horiz-adv-x="516" d="M393 620q0 -59 -39.5 -104t-109.5 -45q-59 0 -91.5 39t-32.5 93q0 58 40 101.5t111 43.5q59 0 90.5 -37t31.5 -91z"/>
<glyph glyph-name="periodcentered" unicode="∙" horiz-adv-x="516" d="M393 620q0 -59 -39.5 -104t-109.5 -45q-59 0 -91.5 39t-32.5 93q0 58 40 101.5t111 43.5q59 0 90.5 -37t31.5 -91z"/>
<glyph glyph-name="periodcentered.case" horiz-adv-x="516" d="M393 729q0 -59 -39.5 -104t-109.5 -45q-59 0 -91.5 39t-32.5 93q0 58 40 101.5t111 43.5q59 0 90.5 -37t31.5 -91z"/>
<glyph glyph-name="parenleft" unicode="(" horiz-adv-x="723" d="M651 -401l-73 -85q-147 68 -249 185q-250 283 -250 772q0 526 255 841q107 131 255 209l51 -85q-116 -91 -198 -217q-198 -304 -198 -748q0 -380 204 -664q43 -60 93 -111.5t110 -96.5z"/>
<glyph glyph-name="parenright" unicode=")" horiz-adv-x="723" d="M651 564q0 -526 -255 -841q-107 -131 -256 -209l-51 85q116 90 199 217q198 305 198 748q0 381 -203 664q-85 119 -204 208l72 85q146 -67 250 -185q250 -283 250 -772z"/>
<glyph glyph-name="parenleft.case" horiz-adv-x="723" d="M651 -281l-73 -85q-147 68 -249 185q-250 283 -250 772q0 526 255 841q107 131 255 209l51 -85q-116 -91 -198 -217q-198 -304 -198 -748q0 -380 204 -664q43 -60 93 -111.5t110 -96.5z"/>
<glyph glyph-name="parenright.case" horiz-adv-x="723" d="M651 684q0 -526 -255 -841q-107 -131 -256 -209l-51 85q116 90 199 217q198 305 198 748q0 381 -203 664q-85 119 -204 208l72 85q146 -67 250 -185q250 -283 250 -772z"/>
<glyph glyph-name="bracketleft" unicode="[" horiz-adv-x="723" d="M599 -312l-10 -174l-471 11q12 683 12 946q0 204 -12 1037l481 13l-10 -172q-220 6 -300 6q-8 -691 -8 -884q0 -139 8 -802q74 2 310 19z"/>
<glyph glyph-name="bracketright" unicode="]" horiz-adv-x="723" d="M600 -472l-481 -13l10 172q220 -6 300 -6q8 691 8 884q0 139 -8 802q-74 -2 -310 -19l10 174l471 -11q-12 -683 -12 -946q0 -204 12 -1037z"/>
<glyph glyph-name="bracketleft.case" horiz-adv-x="723" d="M599 -192l-10 -174l-471 11q12 683 12 946q0 204 -12 1037l481 13l-10 -172q-220 6 -300 6q-8 -691 -8 -884q0 -139 8 -802q74 2 310 19z"/>
<glyph glyph-name="bracketright.case" horiz-adv-x="723" d="M600 -352l-481 -13l10 172q220 -6 300 -6q8 691 8 884q0 139 -8 802q-74 -2 -310 -19l10 174l471 -11q-12 -683 -12 -946q0 -204 12 -1037z"/>
<glyph glyph-name="braceleft" unicode="{" horiz-adv-x="723" d="M692 -362l-62 -128q-432 90 -432 319q0 74 40.5 244t40.5 216q0 124 -234 149v149q242 35 242 155q0 46 -44.5 209.5t-44.5 230.5q0 284 445 339l39 -124q-320 -38 -320 -275q0 -52 44 -196t44 -180q0 -108 -80.5 -165.5t-148.5 -57.5v-9q67 0 148 -56.5t81 -168.5 q0 -40 -44 -190.5t-44 -195.5q0 -187 330 -265z"/>
<glyph glyph-name="braceright" unicode="}" horiz-adv-x="723" d="M692 444q-242 -35 -242 -155q0 -46 44.5 -209.5t44.5 -230.5q0 -284 -445 -339l-39 124q320 38 320 275q0 52 -44 196t-44 180q0 108 80.5 165.5t148.5 57.5v9q-67 0 -148 56.5t-81 168.5q0 40 44 190.5t44 195.5q0 187 -330 265l62 128q432 -90 432 -319 q0 -74 -40.5 -244t-40.5 -216q0 -124 234 -149v-149z"/>
<glyph glyph-name="braceleft.case" horiz-adv-x="723" d="M692 -242l-62 -128q-432 90 -432 319q0 74 40.5 244t40.5 216q0 124 -234 149v149q242 35 242 155q0 46 -44.5 209.5t-44.5 230.5q0 284 445 339l39 -124q-320 -38 -320 -275q0 -52 44 -196t44 -180q0 -108 -80.5 -165.5t-148.5 -57.5v-9q67 0 148 -56.5t81 -168.5 q0 -40 -44 -190.5t-44 -195.5q0 -187 330 -265z"/>
<glyph glyph-name="braceright.case" horiz-adv-x="723" d="M692 564q-242 -35 -242 -155q0 -46 44.5 -209.5t44.5 -230.5q0 -284 -445 -339l-39 124q320 38 320 275q0 52 -44 196t-44 180q0 108 80.5 165.5t148.5 57.5v9q-67 0 -148 56.5t-81 168.5q0 40 44 190.5t44 195.5q0 187 -330 265l62 128q432 -90 432 -319 q0 -74 -40.5 -244t-40.5 -216q0 -124 234 -149v-149z"/>
<glyph glyph-name="asterisk" unicode="*" d="M940 1058q0 -87 -169 -87q-91 0 -184 8l-6 -20q219 -181 219 -238q0 -41 -44 -81.5t-87 -40.5q-82 0 -152 318h-23q-110 -289 -182 -289q-42 0 -88 35.5t-46 76.5q0 72 256 225l-6 23q-112 9 -294 41q-39 13 -39 74q0 48 23 89t64 41q58 0 275 -173l18 12 q-51 224 -51 292q0 31 34.5 50.5t78.5 19.5q99 0 99 -70q0 -79 -84 -296l16 -16q219 140 279 140q38 0 65.5 -46t27.5 -88z"/>
<glyph glyph-name="dagger" unicode="†" horiz-adv-x="723" d="M715 942l-10 -132q-183 6 -257 6q0 -496 -68 -1229h-35q-50 733 -50 1229q-54 0 -287 -6l13 132q236 -10 291 -10q-9 203 -48 473l197 21q-15 -133 -33 -494q71 0 287 10z"/>
<glyph glyph-name="daggerdbl" unicode="‡" horiz-adv-x="723" d="M715 529l-10 -147q-169 6 -244 6q1 -226 -81 -801h-35q-63 579 -62 801q-50 0 -275 -6l13 147q245 -10 305 -10q-31 257 -31 297q-54 0 -287 -6l19 132q230 -10 285 -10q-9 203 -48 473l197 21q-15 -133 -33 -494q71 0 287 10l-10 -132q-183 6 -257 6q0 -40 -31 -297 q71 0 298 10z"/>
<glyph glyph-name="section" unicode="§" horiz-adv-x="859" d="M766 -122q0 -312 -373 -312q-165 0 -308 33l31 147q130 -50 277 -50q223 0 223 135q0 79 -132 194l-245 212q-132 134 -132 259q0 92 57.5 165t174.5 99q-232 186 -232 356q0 117 87 207t261 90q172 0 276 -29l-31 -144q-108 43 -245 43q-193 0 -193 -132q0 -90 131 -203 l242 -201q131 -126 131 -249q0 -222 -219 -275q219 -177 219 -345zM616 450q0 94 -178 234q-86 0 -131 -45t-45 -108q0 -87 186 -231q81 0 124.5 45t43.5 105z"/>
<glyph glyph-name="paragraph" unicode="¶" horiz-adv-x="1371" d="M1122 -413h-172q9 475 9 1144q0 305 -11 533q-88 8 -161 7q-12 -563 -12 -916q0 -482 12 -851h-120q13 383 13 851q0 53 -2 205q-218 0 -354 98.5t-136 340.5q0 213 136 312.5t343 99.5q85 0 194.5 -3t134.5 -3h126q-13 -229 -13 -696q0 -657 13 -1122z"/>
<glyph glyph-name="Alpha" unicode="Α" horiz-adv-x="1262" d="M1251 0h-211q0 67 -126 421h-577q-124 -349 -124 -421h-202q0 37 258 639.5t258 662.5h232q0 -59 246 -653t246 -649zM868 552q-235 587 -235 624h-11q0 -31 -243 -624h489z"/>
<glyph glyph-name="Beta" unicode="Β" horiz-adv-x="1200" d="M1101 397q0 -194 -165 -300q-161 -103 -442 -103q-78 0 -306 6q14 310 14 684q0 352 -14 618h120q35 0 141 3t154 3q416 0 416 -287q0 -224 -197 -298v-10q279 -50 279 -316zM932 380q0 246 -436 246q-80 0 -141 -6q0 -267 11 -477q38 -9 134 -9q241 0 342 63 q90 57 90 183zM851 971q0 207 -279 207q-140 0 -227 -15q8 -72 8 -407q49 -2 108 -2q198 0 288 45q102 50 102 172z"/>
<glyph glyph-name="Gamma" unicode="Γ" horiz-adv-x="966" d="M955 1302l-5 -149q-266 12 -603 12q12 -166 12 -458q0 -420 11 -707h-182q14 310 14 684q0 352 -14 618h767z"/>
<glyph glyph-name="Delta" unicode="Δ" horiz-adv-x="1220" d="M1209 0h-1198q0 43 248 643t248 659h231q0 -59 235.5 -653t235.5 -649zM974 136q-41 148 -213 597q-149 388 -149 443h-10q0 -56 -152 -442q-173 -439 -214 -598h738z"/>
<glyph glyph-name="Epsilon" unicode="Ε" horiz-adv-x="1066" d="M1000 151l-6 -151h-806q14 310 14 684q0 352 -14 618h756l-8 -149q-275 12 -583 12q6 -155 6 -419q266 0 474 12v-149q-222 9 -474 9q0 -257 9 -482q332 0 632 15z"/>
<glyph glyph-name="Zeta" unicode="Ζ" horiz-adv-x="1062" d="M963 167l-6 -167h-858l9 120q126 176 367 570q259 425 259 473v11q-219 0 -621 -25l5 153h816l-8 -124q-114 -161 -351 -565q-247 -420 -247 -462v-11q207 0 635 27z"/>
<glyph glyph-name="Eta" unicode="Η" horiz-adv-x="1335" d="M1147 0h-190q10 346 10 620h-599q0 -222 10 -620h-190q14 365 14 684q0 334 -14 618h190q-12 -286 -12 -556h603q0 217 -12 556h190q-15 -278 -15 -618q0 -373 15 -684z"/>
<glyph glyph-name="Theta" unicode="Θ" horiz-adv-x="1421" d="M1322 671q0 -323 -189 -516.5t-437 -193.5q-238 0 -417.5 177.5t-179.5 479.5q0 327 189 518.5t437 191.5q238 0 417.5 -177.5t179.5 -479.5zM1144 651q0 258 -135.5 399.5t-312.5 141.5q-164 0 -292 -149t-128 -398q0 -259 136.5 -400.5t312.5 -141.5q164 0 291.5 151 t127.5 397zM921 589q-101 10 -209 10q-96 0 -210 -10v163q120 -10 214 -10q103 0 205 10v-163z"/>
<glyph glyph-name="Iota" unicode="Ι" horiz-adv-x="478" d="M335 0h-190q15 324 15 684q0 354 -15 618h190q-14 -273 -14 -618q0 -362 14 -684z"/>
<glyph glyph-name="Kappa" unicode="Κ" horiz-adv-x="1212" d="M1190 0h-219q0 11 -114 174q-132 189 -241 312q-148 167 -219 167h-31q0 -234 10 -653h-188q15 310 15 684q0 352 -15 618h188q-10 -266 -10 -540h23q55 0 274.5 255t219.5 285h208q0 -30 -213.5 -247.5t-317.5 -292.5v-10q115 -44 383 -397q247 -325 247 -355z"/>
<glyph glyph-name="Lambda" unicode="Λ" horiz-adv-x="1220" d="M1209 0h-211q0 108 -193 615.5t-193 560.5h-10q0 -53 -194.5 -550.5t-194.5 -625.5h-202q0 43 248 643t248 659h231q0 -59 235.5 -653t235.5 -649z"/>
<glyph glyph-name="Mu" unicode="Μ" horiz-adv-x="1748" d="M1582 0h-188q0 223 -31 645t-33 506h-10q-100 -325 -253.5 -705.5t-153.5 -445.5h-135q0 70 -143 453.5t-181 513.5t-52 184h-10q-3 -137 -39.5 -553t-36.5 -598h-172q0 10 68 550.5t68 751.5h263q0 -110 160 -550t160 -533h10q0 93 180 534.5t180 548.5h257 q0 -211 46 -748t46 -554z"/>
<glyph glyph-name="Nu" unicode="Ν" horiz-adv-x="1380" d="M1192 0h-140q0 17 -328 479q-343 485 -391 612h-10q18 -241 18 -413q0 -336 15 -678h-168q17 325 17 684q0 353 -17 618h192q0 -28 302 -456q316 -450 360 -586h10q-17 244 -17 414q0 370 -14 628h171q-17 -265 -17 -618q0 -359 17 -684z"/>
<glyph glyph-name="Xi" unicode="Ξ" horiz-adv-x="1078" d="M1012 167l-6 -167h-940l6 167q225 -14 490 -14q238 0 450 14zM993 1302l-6 -164q-228 13 -454 13q-232 0 -436 -13l6 164h890zM861 599q-130 8 -302 8t-334 -8v159q180 -12 334 -12q153 0 302 12v-159z"/>
<glyph glyph-name="Omicron" unicode="Ο" horiz-adv-x="1421" d="M1322 671q0 -323 -189 -516.5t-437 -193.5q-238 0 -417.5 177.5t-179.5 479.5q0 327 189 518.5t437 191.5q238 0 417.5 -177.5t179.5 -479.5zM1144 648q0 258 -135.5 399.5t-312.5 141.5q-164 0 -292 -149t-128 -398q0 -259 136.5 -400.5t312.5 -141.5q164 0 291.5 151 t127.5 397z"/>
<glyph glyph-name="Pi" unicode="Π" horiz-adv-x="1341" d="M1153 0h-184q10 280 10 657q0 299 17 519h-651q17 -210 17 -502q0 -381 10 -674h-184q12 396 12 692q0 280 -12 610h965q-12 -319 -12 -610q0 -303 12 -692z"/>
<glyph glyph-name="Rho" unicode="Ρ" horiz-adv-x="1132" d="M1066 979q0 -228 -173 -341t-465 -113q-37 0 -64 2q0 -218 16 -527h-192q15 284 15 684q0 344 -15 618h143q23 0 131.5 3t184.5 3q192 0 305.5 -87.5t113.5 -241.5zM899 921q0 257 -351 257q-86 0 -193 -15q7 -163 7 -508q35 -2 86 -2q451 0 451 268z"/>
<glyph glyph-name="Sigma" unicode="Σ" horiz-adv-x="1079" d="M1035 177l-8 -177h-1005q0 74 503 673v10q-476 521 -476 619h932l-6 -149q-368 15 -616 15v-11q0 -49 378 -432q-439 -504 -439 -562v-10q392 0 737 24z"/>
<glyph glyph-name="Tau" unicode="Τ" horiz-adv-x="1043" d="M1021 1302l-5 -141q-198 10 -409 10q-2 -192 -2 -487q0 -326 10 -684h-183q12 341 12 684q0 291 -6 487q-148 0 -416 -12l5 143h994z"/>
<glyph glyph-name="Upsilon" unicode="Υ" horiz-adv-x="1127" d="M1105 1302q0 -37 -123 -216q-174 -253 -227 -344q-123 -209 -123 -318q0 -206 14 -424h-192q13 207 13 426q0 120 -115 333q-65 119 -215 344q-115 174 -115 199h205q0 -26 172.5 -318.5t172.5 -386.5h10q0 95 164.5 380t164.5 325h194z"/>
<glyph glyph-name="Phi" unicode="Φ" horiz-adv-x="1429" d="M1360 680q0 -232 -157 -390.5t-398 -192.5l5 -137h-190q1 24 5 131q-243 19 -399.5 169t-156.5 381q0 244 156.5 410t398.5 201l-4 90h190q-1 -15 -4 -85q243 -21 398.5 -177.5t155.5 -399.5zM635 684q0 242 -7 450q-174 -22 -285 -139t-111 -301q0 -193 111.5 -322.5 t284.5 -160.5q7 191 7 473zM1197 676q0 184 -111 304.5t-284 150.5q-6 -189 -6 -447q0 -255 6 -477q173 25 284 150.5t111 318.5z"/>
<glyph glyph-name="Chi" unicode="Χ" horiz-adv-x="1143" d="M1132 0h-217q0 39 -150 288q-145 241 -215 326h-11q-60 -81 -186 -318q-132 -249 -132 -296h-210q0 30 211 345q209 312 260 360v10q-54 61 -222 307q-173 254 -173 280h215q0 -30 120 -232q118 -198 169 -258h10q51 62 162 261t111 229h211q0 -28 -183 -270 q-177 -232 -241 -297v-10q76 -85 270 -380q201 -305 201 -345z"/>
<glyph glyph-name="Psi" unicode="Ψ" horiz-adv-x="1426" d="M1360 1264q-35 -143 -35 -320q0 -230 -147 -357t-382 -147q4 -243 12 -440h-190q5 89 13 438q-525 31 -525 467q0 189 -40 359l127 31q47 -80 66 -291q20 -221 98.5 -324t275.5 -118q0 425 -15 740h190q-14 -321 -14 -740q200 14 278.5 112.5t99.5 329.5q19 211 66 291z "/>
<glyph glyph-name="Omega" unicode="Ω" horiz-adv-x="1390" d="M1346 153l-10 -153h-541q0 168 167 346q151 161 151 372q0 229 -128.5 353.5t-299.5 124.5q-164 0 -285.5 -116.5t-121.5 -330.5q0 -226 160 -405q160 -177 160 -344h-543l-11 153q196 -21 357 -21v11q0 30 -77 104q-98 96 -159 202t-61 264q0 288 177.5 454t426.5 166 q238 0 408 -154t170 -421q0 -163 -67.5 -281t-168.5 -221q-82 -84 -82 -111v-11q203 0 378 19z"/>
<glyph glyph-name="Alphatonos" unicode="Ά" horiz-adv-x="1330" d="M1319 0h-211q0 67 -126 421h-577q-124 -349 -124 -421h-202q0 37 258 639.5t258 662.5h232q0 -59 246 -653t246 -649zM936 552q-235 587 -235 624h-11q0 -31 -243 -624h489zM480 1510q0 -22 -138 -195t-138 -199h-120q0 33 90 203t90 191h216z"/>
<glyph glyph-name="Epsilontonos" unicode="Έ" horiz-adv-x="1418" d="M1352 151l-6 -151h-806q14 310 14 684q0 352 -14 618h756l-8 -149q-275 12 -583 12q6 -155 6 -419q266 0 474 12v-149q-222 9 -474 9q0 -257 9 -482q332 0 632 15zM480 1510q0 -22 -138 -195t-138 -199h-120q0 33 90 203t90 191h216z"/>
<glyph glyph-name="Etatonos" unicode="Ή" horiz-adv-x="1687" d="M1499 0h-190q10 346 10 620h-599q0 -222 10 -620h-190q14 365 14 684q0 334 -14 618h190q-12 -286 -12 -556h603q0 217 -12 556h190q-15 -278 -15 -618q0 -373 15 -684zM480 1510q0 -22 -138 -195t-138 -199h-120q0 33 90 203t90 191h216z"/>
<glyph glyph-name="Iotatonos" unicode="Ί" horiz-adv-x="920" d="M732 0h-190q15 324 15 684q0 354 -15 618h190q-14 -273 -14 -618q0 -362 14 -684zM480 1510q0 -22 -138 -195t-138 -199h-120q0 33 90 203t90 191h216z"/>
<glyph glyph-name="Iotadieresis" unicode="Ϊ" horiz-adv-x="566" d="M378 0h-190q15 324 15 684q0 354 -15 618h190q-14 -273 -14 -618q0 -362 14 -684zM202 1559q0 -46 -30.5 -80.5t-84.5 -34.5q-45 0 -70 30t-25 72q0 44 30.5 77.5t85.5 33.5q45 0 69.5 -28.5t24.5 -69.5zM580 1559q0 -46 -30.5 -80.5t-84.5 -34.5q-45 0 -70 30t-25 72 q0 44 30.5 77.5t85.5 33.5q45 0 69.5 -28.5t24.5 -69.5z"/>
<glyph glyph-name="Omicrontonos" unicode="Ό" horiz-adv-x="1657" d="M1558 671q0 -323 -189 -516.5t-437 -193.5q-238 0 -417.5 177.5t-179.5 479.5q0 327 189 518.5t437 191.5q238 0 417.5 -177.5t179.5 -479.5zM1380 648q0 258 -135.5 399.5t-312.5 141.5q-164 0 -292 -149t-128 -398q0 -259 136.5 -400.5t312.5 -141.5q164 0 291.5 151 t127.5 397zM480 1510q0 -22 -138 -195t-138 -199h-120q0 33 90 203t90 191h216z"/>
<glyph glyph-name="Upsilontonos" unicode="Ύ" horiz-adv-x="1549" d="M1527 1302q0 -37 -123 -216q-174 -253 -227 -344q-123 -209 -123 -318q0 -206 14 -424h-192q13 207 13 426q0 120 -115 333q-65 119 -215 344q-115 174 -115 199h205q0 -26 172.5 -318.5t172.5 -386.5h10q0 95 164.5 380t164.5 325h194zM480 1510q0 -22 -138 -195 t-138 -199h-120q0 33 90 203t90 191h216z"/>
<glyph glyph-name="Upsilondieresis" unicode="Ϋ" horiz-adv-x="1127" d="M1105 1302q0 -37 -123 -216q-174 -253 -227 -344q-123 -209 -123 -318q0 -206 14 -424h-192q13 207 13 426q0 120 -115 333q-65 119 -215 344q-115 174 -115 199h205q0 -26 172.5 -318.5t172.5 -386.5h10q0 95 164.5 380t164.5 325h194zM488 1559q0 -46 -30.5 -80.5 t-84.5 -34.5q-45 0 -70 30t-25 72q0 44 30.5 77.5t85.5 33.5q45 0 69.5 -28.5t24.5 -69.5zM866 1559q0 -46 -30.5 -80.5t-84.5 -34.5q-45 0 -70 30t-25 72q0 44 30.5 77.5t85.5 33.5q45 0 69.5 -28.5t24.5 -69.5z"/>
<glyph glyph-name="Omegatonos" unicode="Ώ" horiz-adv-x="1661" d="M480 1510q0 -22 -138 -195t-138 -199h-120q0 33 90 203t90 191h216zM1617 153l-10 -153h-541q0 168 167 346q151 161 151 372q0 229 -128.5 353.5t-299.5 124.5q-164 0 -285.5 -116.5t-121.5 -330.5q0 -226 160 -405q160 -177 160 -344h-543l-11 153q196 -21 357 -21v11 q0 30 -77 104q-98 96 -159 202t-61 264q0 288 177.5 454t426.5 166q238 0 408 -154t170 -421q0 -163 -67.5 -281t-168.5 -221q-82 -84 -82 -111v-11q203 0 378 19z"/>
<glyph glyph-name="alpha" unicode="α" horiz-adv-x="1187" d="M1147 138l-11 -134q-63 -25 -126 -25q-182 0 -214 226h-10q-110 -244 -338 -244q-166 0 -259 136.5t-93 336.5q0 225 116.5 387.5t321.5 162.5q164 0 272 -177h10q10 81 39 164l140 -21q-62 -222 -62 -507q0 -325 119 -325q42 0 95 20zM791 603q-108 245 -282 245 q-117 0 -177.5 -107.5t-60.5 -264.5q0 -156 57 -267.5t156 -111.5q123 0 202 121q86 131 105 385z"/>
<glyph glyph-name="beta" unicode="β" horiz-adv-x="1101" d="M1034 455q0 -206 -118 -345t-323 -139q-187 0 -264 61h-11q6 -251 74 -465l-200 -44q-59 172 -59 1205q0 342 66 490q98 218 378 218q154 0 259 -68.5t105 -208.5q0 -215 -228 -280v-10q94 -24 161 -73q160 -117 160 -341zM861 422q0 163 -104 268q-98 99 -236 99 q-43 0 -85 -5l14 140q37 -9 91 -9q100 0 164.5 55.5t64.5 149.5q0 86 -61.5 135t-157.5 49q-146 0 -201 -95.5t-55 -423.5q0 -274 14 -628q101 -56 295 -56q117 0 187 92.5t70 228.5z"/>
<glyph glyph-name="beta.salt" horiz-adv-x="1101" d="M1043 465q0 -248 -157 -381q-126 -107 -299 -107q-237 0 -350 134q-138 162 -138 558q0 383 156.5 577t387.5 194q152 0 250 -66t98 -204q0 -181 -211 -320v-10q91 -15 177 -110t86 -265zM872 455q0 120 -61.5 203.5t-162.5 114.5q-172 -79 -376 -118q0 -547 317 -547 q283 0 283 347zM830 1135q0 179 -208 179q-330 0 -346 -544q162 34 277 83q277 116 277 282z"/>
<glyph glyph-name="gamma" unicode="γ" horiz-adv-x="1022" d="M980 950q0 -204 -207 -596t-212 -404q33 -222 33 -391l-162 -27q-39 73 -39 194q0 125 28 274q-45 512 -393 896l159 75q88 -66 198.5 -281.5t153.5 -560.5h8q2 5 127 288.5t125 553.5z"/>
<glyph glyph-name="delta" unicode="δ" horiz-adv-x="1125" d="M1025 463q0 -238 -144.5 -371t-346.5 -133q-184 0 -309.5 116t-125.5 321t125 346t252 169v10q-258 156 -258 292q0 235 399 235q229 0 379 -69l-36 -152q-170 90 -443 90q-154 0 -154 -87q0 -54 105 -119q298 -190 383 -273q174 -169 174 -375zM852 429q0 241 -287 428 q-294 -129 -294 -421q0 -162 86 -253.5t207 -91.5q126 0 207 84t81 254z"/>
<glyph glyph-name="epsilon" unicode="ε" horiz-adv-x="940" d="M855 186l-10 -134q-138 -79 -351 -79q-387 0 -387 279q0 104 60.5 164.5t140.5 75.5v10q-186 44 -186 209q0 128 108.5 199t308.5 71q165 0 291 -35l-25 -140q-129 45 -276 45q-236 0 -236 -122q0 -160 285 -160q62 0 152 9l-19 -147q-73 12 -133 12q-158 0 -229 -40 t-71 -130q0 -164 258 -164q140 0 319 77z"/>
<glyph glyph-name="zeta" unicode="ζ" horiz-adv-x="894" d="M853 -103q0 -128 -107 -263l-79 27q27 95 27 196q0 107 -179 142q-195 38 -283 105q-133 102 -133 316q0 448 468 833v10q-137 -22 -343 -22l16 146q341 0 542 43l35 -117q-547 -351 -547 -849q0 -155 70 -224q59 -56 210 -85q170 -34 236.5 -93.5t66.5 -164.5z"/>
<glyph glyph-name="eta" unicode="η" horiz-adv-x="1117" d="M983 -430l-166 -25q-27 192 -27 582q0 57 6.5 205.5t6.5 241.5q0 155 -44.5 213t-135.5 58q-177 0 -289 -183q0 -440 -16 -667l-172 10q37 172 37 487q0 260 -118 410l152 71q24 -28 50 -80t33 -94h11q139 184 342 184q313 0 313 -330q0 -69 -8.5 -203t-8.5 -241 q0 -388 34 -639z"/>
<glyph glyph-name="theta" unicode="θ" horiz-adv-x="1177" d="M1078 723q0 -375 -148 -571.5t-362 -196.5q-203 0 -336 179t-133 532q0 378 149.5 575t360.5 197q198 0 333.5 -179t135.5 -536zM907 641h-634q28 -548 316 -548q315 0 318 548zM901 785q-36 512 -312 512q-130 0 -218.5 -121t-99.5 -391h630z"/>
<glyph glyph-name="theta.salt" horiz-adv-x="1177" d="M1078 707q0 -297 -129.5 -519.5t-388.5 -222.5q-200 0 -288.5 86.5t-106.5 274.5q-15 155 -49 236l155 31q44 -104 49 -205q11 -159 66 -231.5t189 -72.5q330 0 330 557q-397 0 -565.5 84t-168.5 314q0 178 119 283.5t290 105.5q256 0 377 -210.5t121 -510.5zM899 771 q-23 259 -117.5 395t-215.5 136q-226 0 -226 -239q0 -167 111 -229.5t448 -62.5z"/>
<glyph glyph-name="iota" unicode="ι" horiz-adv-x="522" d="M522 138l-13 -130q-68 -29 -144 -29q-132 0 -184 82t-52 327q0 314 15 564l159 21q-21 -210 -21 -630q0 -114 31.5 -169.5t102.5 -55.5q45 0 106 20z"/>
<glyph glyph-name="kappa" unicode="κ" horiz-adv-x="1117" d="M1001 10l-188 -31q0 63 -259 438h-10q-165 -173 -260 -432l-150 23q54 171 54 484q0 244 -33 448l200 31q-11 -164 -11 -451q0 -102 -11 -204h10q15 37 251 332q223 280 223 323l184 -21q0 -60 -339 -409v-10q339 -449 339 -521z"/>
<glyph glyph-name="lambda" unicode="λ" horiz-adv-x="1055" d="M1029 51l-172 -83q-51 32 -103 98q-128 163 -180 684h-10q0 -52 -156 -354.5t-156 -405.5l-190 20q0 98 233.5 479.5t246.5 430.5q-17 224 -73 281t-177 57q-73 0 -119 -12l16 146q80 23 166 23q175 0 232.5 -103t82.5 -339q59 -551 213 -768q76 -107 146 -154z"/>
<glyph glyph-name="mu" unicode="μ" horiz-adv-x="1198" d="M1170 138l-12 -134q-74 -25 -142 -25q-142 0 -184 121h-12q-125 -121 -258 -121q-196 0 -267 121h-10q0 -334 121 -513l-159 -75q-71 108 -71 240q0 58 10.5 231t10.5 281q0 376 -37 694l192 13q-14 -134 -14 -349q0 -293 52 -399.5t194 -106.5q143 0 231 114 q0 521 -20 720l197 21q-25 -260 -25 -490q0 -228 28 -304q21 -59 79 -59q42 0 96 20z"/>
<glyph glyph-name="nu" unicode="ν" horiz-adv-x="1022" d="M907 775q0 -167 -96 -336q-42 -74 -173 -262q-92 -131 -102 -177h-114q-16 247 -158 541.5t-215 374.5l159 65q51 -39 173.5 -326t140.5 -486h9q2 27 54 107q69 107 107 233q57 187 57 441l119 21q39 -74 39 -196z"/>
<glyph glyph-name="xi" unicode="ξ" horiz-adv-x="915" d="M853 -103q0 -128 -107 -263l-79 27q27 105 27 176q0 121 -179 162q-198 45 -282 104q-134 95 -134 286q0 137 77 240t175 125v10q-159 29 -159 201q0 171 262 298v10q-126 -22 -303 -22l16 146q408 0 615 43l35 -127q-469 -117 -469 -313q0 -80 48.5 -117t173.5 -37 q72 0 168 6l-15 -155q-81 12 -153 12q-130 0 -217.5 -83t-87.5 -193q0 -129 64 -187q56 -52 221 -91q173 -41 238 -98t65 -160z"/>
<glyph glyph-name="omicron" unicode="ο" horiz-adv-x="1144" d="M1045 504q0 -256 -147 -399.5t-346 -143.5q-186 0 -319.5 127t-133.5 358q0 258 147.5 403t346.5 145q186 0 319 -128.5t133 -361.5zM872 469q0 156 -78.5 277.5t-223.5 121.5q-144 0 -221.5 -115t-77.5 -267q0 -157 78.5 -278t224.5 -121q144 0 221 115.5t77 266.5z"/>
<glyph glyph-name="pi" unicode="π" horiz-adv-x="1264" d="M1176 961l-6 -164q-139 9 -291 9q-6 -160 -6 -349q0 -339 167 -339q39 0 97 20l-12 -134q-60 -25 -135 -25q-139 0 -207 87t-68 322q0 205 37 409v9h-288q-38 -611 -151 -816l-182 20q47 79 106 261t88 535h-94q-88 0 -185 -42l-39 93q87 93 279 93q547 0 888 11h2z"/>
<glyph glyph-name="rho" unicode="ρ" horiz-adv-x="1104" d="M1005 500q0 -213 -115.5 -371t-321.5 -158q-187 0 -264 131h-11q6 -251 84 -535l-200 -44q-58 288 -58 914q0 547 459 547q202 0 314.5 -139t112.5 -345zM832 466q0 160 -77 274t-218 114q-256 0 -256 -351q0 -119 6 -226q98 -176 292 -176q120 0 186.5 107.5t66.5 257.5 z"/>
<glyph glyph-name="sigma" unicode="σ" horiz-adv-x="1185" d="M1176 891q-177 -71 -365 -71v-20q174 -129 174 -356q0 -219 -134 -351t-330 -132q-186 0 -304 127.5t-118 357.5q0 249 139.5 386t331.5 137q383 0 565 39zM813 449q0 209 -129 371q-48 13 -114 13q-145 0 -222 -93.5t-77 -253.5q0 -174 66 -283.5t207 -109.5 q138 0 203.5 101t65.5 255z"/>
<glyph glyph-name="sigma1" unicode="ς" horiz-adv-x="866" d="M783 -113q0 -177 -118 -253l-78 27q37 86 37 165q0 64 -35 102t-144 81q-157 62 -233 140q-113 117 -113 312q0 265 135.5 388.5t345.5 123.5q133 0 197 -14l-27 -152q-92 34 -199 34q-131 0 -211 -84.5t-80 -252.5q0 -140 60 -220q50 -66 160 -109q177 -70 240 -130.5 t63 -157.5z"/>
<glyph glyph-name="tau" unicode="τ" horiz-adv-x="991" d="M923 961l-7 -161q-93 6 -401 6q-6 -160 -6 -349q0 -339 167 -339q69 0 130 20l-10 -134q-94 -25 -195 -25q-129 0 -189.5 82t-60.5 327q0 205 36 409v9h-166q-88 0 -175 -42l-39 93q101 93 238 93q398 0 678 11z"/>
<glyph glyph-name="upsilon" unicode="υ" horiz-adv-x="1095" d="M970 595q0 -303 -136 -465.5t-306 -162.5q-165 0 -259.5 94.5t-94.5 337.5q0 341 -71 533l176 41q58 -183 58 -419q0 -292 56.5 -374.5t156.5 -82.5q114 0 180 121.5t66 341.5q0 167 -74 394l107 19q141 -141 141 -378z"/>
<glyph glyph-name="phi" unicode="φ" horiz-adv-x="1537" d="M1449 574q0 -216 -164.5 -393.5t-439.5 -205.5q3 -67 3 -141q0 -176 -37 -324l-141 6q17 138 17 261q0 110 -5 198q-263 23 -428.5 151.5t-165.5 367.5q0 407 432 506l40 -107q-301 -70 -301 -364q0 -176 107 -289.5t308 -135.5q-17 202 -17 396q0 232 111 363t276 131 q405 0 405 -420zM1278 543q0 143 -58 232t-176 89q-227 0 -227 -370q0 -251 19 -390q214 24 328 143t114 296z"/>
<glyph glyph-name="phi.salt" horiz-adv-x="1537" d="M1456 490q0 -249 -174 -390.5t-435 -165.5q3 -219 9 -370l-172 -41q2 79 8 411q-264 20 -437.5 155.5t-173.5 373.5q0 244 174 387t438 170q-4 238 -10 391l172 8q-3 -67 -9 -399q265 -17 437.5 -151t172.5 -379zM696 533q0 126 -2 358q-218 -18 -332.5 -122t-114.5 -269 q0 -177 114 -296t333 -140q0 264 2 469zM1291 467q0 174 -115.5 288.5t-330.5 135.5q0 -193 -2 -358q0 -165 2 -469q211 21 328.5 130t117.5 273z"/>
<glyph glyph-name="chi" unicode="χ" horiz-adv-x="1032" d="M1032 -314l-16 -146q-55 -23 -136 -23q-91 0 -167.5 120.5t-221.5 527.5h-10q-272 -504 -272 -642l-180 20q0 187 413 770q-107 254 -154 350t-97.5 126.5t-112.5 30.5q-26 0 -49 -9l16 143q35 23 86 23q81 0 134.5 -36t109.5 -143t157 -393h11q222 415 222 566l180 -21 q0 -165 -361 -693q150 -354 225 -468.5t144 -114.5q47 0 79 12z"/>
<glyph glyph-name="psi" unicode="ψ" horiz-adv-x="1491" d="M1380 552q0 -234 -152.5 -384t-392.5 -176q0 -253 8 -428l-172 -41q8 201 8 467q-246 13 -378 122.5t-132 370.5q0 288 -45 443l136 43q69 -147 69 -409q0 -207 75 -312.5t277 -125.5q3 209 3 409q0 529 -13 880l172 8q-12 -335 -12 -888q0 -141 2 -407q217 27 295 143 t78 367q0 144 -62 314l106 27q130 -149 130 -423z"/>
<glyph glyph-name="omega" unicode="ω" horiz-adv-x="1543" d="M1448 452q0 -486 -400 -486q-82 0 -165.5 44t-113.5 106h-21q-37 -64 -110 -107t-160 -43q-164 0 -273.5 110.5t-109.5 354.5q0 307 281 540l78 -82q-186 -185 -185 -414q1 -151 42 -243q60 -135 217 -135q127 0 188 138v21q-37 108 -37 308q0 196 42 273l92 10 q52 -78 52 -293q0 -225 -26 -300v-21q69 -136 194 -136q245 0 245 337q0 233 -196 445l79 82q287 -201 287 -509z"/>
</font>
</defs>
</svg>
